{"glyphs":{"0":{"ha":722,"x_min":79,"x_max":742,"o":"m 79 304 q 110 576 79 450 q 197 793 142 701 q 328 937 251 885 q 496 989 404 989 q 678 913 614 989 q 742 669 742 836 q 715 422 742 544 q 635 202 688 300 q 507 44 583 104 q 331 -17 431 -17 q 212 10 260 -17 q 134 83 164 38 q 92 185 104 128 q 79 304 79 243 m 188 310 q 201 194 188 239 q 238 124 215 149 q 290 90 261 100 q 347 81 318 81 q 463 130 410 81 q 553 261 515 179 q 612 446 590 343 q 633 656 633 549 q 600 833 633 775 q 479 892 567 892 q 372 849 424 892 q 278 728 319 806 q 213 543 238 650 q 188 310 188 436 z "},"1":{"ha":722,"x_min":88,"x_max":585,"o":"m 108 103 l 293 103 l 438 775 l 468 857 l 400 792 l 233 682 l 194 753 l 538 989 l 585 989 l 396 103 l 576 103 l 556 0 l 88 0 l 108 103 z "},"2":{"ha":722,"x_min":44,"x_max":715,"o":"m 715 793 q 675 636 715 721 q 573 466 635 551 q 438 299 511 381 q 296 153 364 218 l 219 93 l 219 88 l 306 103 l 590 103 l 571 0 l 44 0 l 53 40 q 142 127 88 75 q 259 242 197 179 q 383 375 321 306 q 497 515 446 444 q 577 650 547 585 q 607 771 607 715 q 601 819 607 797 q 583 858 596 842 q 547 883 571 874 q 486 892 524 892 q 389 872 436 892 q 289 817 342 851 l 260 900 q 388 969 326 949 q 521 989 449 989 q 667 934 618 989 q 715 793 715 879 z "},"3":{"ha":722,"x_min":60,"x_max":736,"o":"m 267 81 q 381 101 332 81 q 462 156 431 122 q 510 234 493 190 q 526 324 526 278 q 490 435 526 396 q 356 474 454 474 l 256 474 l 264 514 l 517 822 l 589 883 l 501 869 l 244 869 l 264 972 l 736 972 l 728 932 l 449 596 l 394 556 l 394 553 l 440 563 q 514 549 479 563 q 576 509 549 536 q 619 440 603 482 q 635 340 635 399 q 610 201 635 265 q 538 88 586 136 q 418 11 490 39 q 250 -17 346 -17 q 142 -7 190 -17 q 60 18 94 3 l 110 117 q 176 91 138 101 q 267 81 215 81 z "},"4":{"ha":722,"x_min":47,"x_max":733,"o":"m 714 299 l 557 299 l 494 0 l 393 0 l 456 299 l 47 299 l 57 344 l 633 988 l 704 988 l 578 393 l 733 393 l 714 299 m 542 699 l 579 813 l 574 813 l 508 718 l 268 453 l 192 383 l 285 393 l 476 393 l 542 699 z "},"5":{"ha":722,"x_min":65,"x_max":739,"o":"m 258 81 q 370 101 321 81 q 454 156 419 121 q 507 239 489 192 q 524 343 525 286 q 481 461 525 422 q 338 500 438 500 l 226 493 l 328 972 l 739 972 l 717 869 l 404 869 l 344 592 q 354 592 346 592 q 374 593 363 592 q 400 594 386 593 q 510 574 465 594 q 581 522 554 554 q 620 448 608 490 q 632 363 632 406 q 597 183 632 256 q 506 65 563 110 q 380 2 450 21 q 238 -17 310 -17 q 140 -8 182 -17 q 65 15 97 0 l 113 111 q 174 90 142 99 q 258 81 207 81 z "},"6":{"ha":722,"x_min":88,"x_max":690,"o":"m 671 339 q 648 197 671 261 q 581 84 625 132 q 476 10 538 36 q 338 -17 414 -17 q 247 -1 292 -17 q 167 51 203 15 q 110 143 132 86 q 88 283 88 200 q 140 546 88 422 q 278 763 193 669 q 469 917 363 857 q 685 989 576 976 l 690 900 q 539 849 614 888 q 401 755 464 811 q 289 628 338 699 q 215 482 240 558 q 253 517 229 500 q 306 549 276 535 q 370 570 336 563 q 440 578 404 578 q 606 517 540 578 q 671 339 671 457 m 563 325 q 525 439 560 394 q 411 483 490 483 q 348 474 379 483 q 288 450 317 465 q 237 415 260 435 q 200 372 214 394 q 194 333 197 354 q 192 294 192 311 q 201 209 192 249 q 229 140 210 169 q 278 94 249 111 q 349 78 307 78 q 444 99 404 78 q 510 156 485 121 q 548 235 536 190 q 563 325 560 279 z "},"7":{"ha":722,"x_min":96,"x_max":794,"o":"m 96 0 l 599 814 l 671 882 l 590 869 l 222 869 l 243 972 l 794 972 l 788 935 l 210 0 l 96 0 z "},"8":{"ha":722,"x_min":85,"x_max":728,"o":"m 85 203 q 148 380 85 299 q 326 510 211 461 q 284 547 304 528 q 248 590 264 565 q 222 646 232 614 q 213 724 213 678 q 237 837 213 788 q 302 920 261 886 q 397 972 343 954 q 510 989 451 989 q 596 976 556 989 q 665 937 636 963 q 711 873 694 911 q 728 785 728 835 q 712 702 728 743 q 667 625 696 661 q 601 558 639 589 q 517 501 563 526 q 565 458 542 481 q 604 408 588 435 q 631 348 621 381 q 642 275 642 315 q 623 164 642 217 q 565 71 604 111 q 463 7 525 31 q 314 -17 401 -17 q 215 1 257 -17 q 143 47 172 18 q 99 117 114 76 q 85 203 85 157 m 533 254 q 523 323 533 293 q 496 377 513 353 q 453 422 479 401 q 396 463 426 443 q 249 357 304 419 q 193 215 193 294 q 200 165 193 190 q 223 122 207 140 q 267 92 239 103 q 338 81 296 81 q 412 91 376 81 q 475 124 447 101 q 518 178 503 146 q 533 254 533 211 m 321 729 q 354 622 321 663 q 446 544 388 581 q 513 594 481 567 q 567 649 544 621 q 605 707 590 678 q 619 765 619 736 q 588 861 619 831 q 497 892 556 892 q 429 881 461 892 q 374 850 397 871 q 335 799 350 829 q 321 729 321 768 z "},"9":{"ha":722,"x_min":129,"x_max":731,"o":"m 147 649 q 172 792 147 729 q 242 899 197 856 q 348 966 288 943 q 479 989 408 989 q 576 970 531 989 q 657 914 622 951 q 711 822 692 876 q 731 694 731 767 q 674 408 731 535 q 531 190 618 281 q 338 46 443 99 q 135 -17 232 -7 l 129 72 q 291 129 217 92 q 425 219 365 167 q 528 335 485 271 q 596 474 571 400 q 499 415 551 435 q 365 394 446 394 q 290 408 328 394 q 219 453 251 422 q 167 532 188 483 q 147 649 147 581 m 256 661 q 271 578 256 611 q 308 525 286 544 q 355 497 329 506 q 406 489 381 489 q 527 514 469 489 q 615 575 585 539 q 619 599 617 583 q 623 629 621 614 q 626 659 625 644 q 626 681 626 674 q 585 836 626 778 q 461 894 543 894 q 384 881 421 894 q 319 838 347 867 q 274 765 292 808 q 256 661 256 721 z "}," ":{"ha":371,"x_min":0,"x_max":0,"o":""},"!":{"ha":379,"x_min":121,"x_max":440,"o":"m 329 972 l 440 972 l 339 490 l 264 246 l 200 246 l 228 490 l 329 972 m 121 64 q 143 123 121 101 q 201 144 165 144 q 260 123 238 144 q 282 64 282 101 q 260 6 282 28 q 201 -17 238 -17 q 143 6 165 -17 q 121 64 121 28 z "},"\"":{"ha":421,"x_min":110,"x_max":424,"o":"m 321 972 l 424 972 l 326 704 l 264 704 l 321 972 m 167 972 l 269 972 l 172 704 l 110 704 l 167 972 z "},"#":{"ha":722,"x_min":89,"x_max":726,"o":"m 439 313 l 292 313 l 238 81 l 143 81 l 197 313 l 89 313 l 108 401 l 219 401 l 263 583 l 158 583 l 178 672 l 283 672 l 336 892 l 431 892 l 378 672 l 525 672 l 578 892 l 672 892 l 619 672 l 726 672 l 704 583 l 599 583 l 556 401 l 657 401 l 635 313 l 533 313 l 479 81 l 385 81 l 439 313 m 314 401 l 461 401 l 504 583 l 357 583 l 314 401 z "},"$":{"ha":722,"x_min":85,"x_max":751,"o":"m 275 -12 q 158 24 208 -3 q 85 71 108 50 l 133 156 q 198 117 156 140 q 296 83 240 93 l 379 474 q 319 521 349 496 q 266 575 289 546 q 228 641 243 604 q 214 725 214 678 q 234 833 214 786 q 291 912 254 879 q 378 963 328 944 q 488 986 428 982 l 515 1111 l 604 1111 l 578 988 q 680 967 638 982 q 751 936 722 951 l 704 849 q 643 872 681 860 q 557 889 606 883 l 482 540 q 545 490 514 517 q 601 431 576 464 q 640 355 625 397 q 656 257 656 313 q 636 152 656 200 q 579 69 617 104 q 487 11 542 33 q 363 -15 432 -11 q 358 -35 363 -17 q 350 -78 354 -54 q 338 -139 344 -104 l 249 -139 l 275 -12 m 542 247 q 511 352 542 310 q 438 431 481 394 l 363 81 q 494 131 446 86 q 542 247 542 175 m 328 742 q 356 652 328 689 q 424 583 383 615 l 489 890 q 369 844 410 885 q 328 742 328 803 z "},"%":{"ha":1022,"x_min":83,"x_max":957,"o":"m 83 681 q 108 819 83 761 q 169 915 132 878 q 253 971 207 953 q 343 989 299 989 q 463 946 422 989 q 504 824 504 903 q 483 692 504 749 q 427 596 463 635 q 344 537 392 557 q 243 517 296 517 q 128 560 172 517 q 83 681 83 603 m 179 692 q 199 622 179 647 q 260 597 219 597 q 316 613 289 597 q 364 656 343 628 q 397 726 385 685 q 408 818 408 767 q 387 888 408 867 q 326 908 365 908 q 270 891 297 908 q 223 844 243 874 q 191 776 203 815 q 179 692 179 736 m 536 165 q 560 304 536 246 q 622 400 585 363 q 706 456 660 438 q 796 474 751 474 q 916 431 875 474 q 957 308 957 388 q 936 176 957 233 q 880 81 915 119 q 797 22 844 42 q 696 1 749 1 q 581 44 625 1 q 536 165 536 88 m 632 176 q 652 107 632 132 q 713 82 672 82 q 769 97 742 82 q 817 141 796 113 q 849 210 838 169 q 861 303 861 251 q 840 372 861 351 q 779 393 818 393 q 723 376 750 393 q 676 329 696 358 q 644 260 656 300 q 632 176 632 221 m 835 990 l 904 936 l 192 -17 l 122 38 l 835 990 z "},"&":{"ha":1072,"x_min":121,"x_max":942,"o":"m 121 206 q 148 331 121 271 q 218 442 175 390 q 315 534 261 493 q 424 603 369 575 q 407 648 414 628 q 395 688 400 668 q 388 730 390 708 q 386 779 386 751 q 400 854 386 817 q 443 922 414 892 q 516 970 472 951 q 621 989 560 989 q 699 976 669 989 q 746 943 729 963 q 768 900 763 924 q 774 856 774 876 q 713 709 774 776 q 549 585 653 642 q 581 502 563 544 q 622 418 600 460 q 669 335 644 376 q 719 260 694 294 q 758 302 738 276 q 797 356 778 328 q 835 415 817 385 q 868 474 853 446 l 942 433 q 907 377 929 410 q 860 310 885 344 q 810 245 835 276 q 765 193 785 214 q 841 108 810 138 q 907 57 872 79 l 826 -21 q 758 32 794 -3 q 688 113 722 67 q 625 65 658 88 q 553 24 592 42 q 469 -6 514 6 q 372 -17 424 -17 q 267 0 314 -17 q 188 47 221 17 q 138 117 156 76 q 121 206 121 157 m 639 182 q 583 269 610 222 q 532 364 556 317 q 490 455 508 411 q 458 532 471 499 q 367 464 408 500 q 295 390 325 428 q 249 311 265 351 q 232 229 232 271 q 278 117 232 154 q 407 79 324 79 q 474 88 440 79 q 538 112 507 97 q 594 144 568 126 q 639 182 619 163 m 490 782 q 492 744 490 761 q 497 713 493 728 q 505 683 500 699 q 518 647 510 668 q 637 738 597 694 q 676 833 676 781 q 660 881 676 861 q 606 900 644 900 q 552 890 574 900 q 517 863 531 881 q 497 824 503 846 q 490 782 490 803 z "},"'":{"ha":281,"x_min":142,"x_max":301,"o":"m 199 972 l 301 972 l 204 704 l 142 704 l 199 972 z "},"(":{"ha":369,"x_min":75,"x_max":518,"o":"m 201 -303 q 101 -91 126 -193 q 75 104 75 11 q 107 374 75 244 q 193 615 139 503 q 318 822 247 728 q 467 989 389 915 l 518 940 q 378 755 440 851 q 272 554 317 658 q 206 340 228 450 q 183 121 183 229 q 202 -65 183 29 q 265 -254 221 -160 l 201 -303 z "},")":{"ha":369,"x_min":-132,"x_max":307,"o":"m 190 983 q 244 890 222 942 q 281 786 267 839 q 301 681 294 733 q 307 582 307 629 q 276 313 307 443 q 191 70 244 183 q 67 -137 138 -43 q -79 -306 -3 -232 l -132 -257 q -5 -89 -64 -183 q 100 110 54 6 q 172 327 146 215 q 199 543 199 439 q 181 772 199 679 q 121 938 164 865 l 190 983 z "},"*":{"ha":463,"x_min":99,"x_max":474,"o":"m 224 993 l 258 935 l 283 857 l 313 936 l 346 992 l 413 956 l 378 896 l 313 829 l 407 846 l 474 846 l 474 768 l 411 768 l 321 785 l 385 718 l 418 664 l 351 625 l 317 683 l 283 768 l 258 688 l 224 629 l 154 668 l 190 726 l 250 785 l 168 768 l 99 768 l 99 846 l 168 846 l 256 829 l 193 890 l 156 954 l 224 993 z "},"+":{"ha":667,"x_min":76,"x_max":665,"o":"m 76 519 l 321 519 l 321 771 l 421 771 l 421 519 l 665 519 l 665 419 l 421 419 l 421 168 l 321 168 l 321 419 l 76 419 l 76 519 z "},",":{"ha":271,"x_min":-29,"x_max":188,"o":"m 24 49 q 47 110 24 85 q 115 135 71 135 q 169 111 150 135 q 188 57 188 88 q 173 -27 188 14 q 132 -103 158 -68 q 70 -165 106 -137 q -7 -207 35 -192 l -29 -153 q 56 -92 24 -133 q 94 -10 88 -50 q 81 -12 89 -12 q 42 4 61 -12 q 24 49 24 21 z "},"-":{"ha":475,"x_min":88,"x_max":429,"o":"m 110 447 l 429 447 l 406 353 l 88 353 l 110 447 z "},".":{"ha":293,"x_min":49,"x_max":210,"o":"m 49 64 q 71 123 49 101 q 129 144 93 144 q 188 123 165 144 q 210 64 210 101 q 188 6 210 28 q 129 -17 165 -17 q 71 6 93 -17 q 49 64 49 28 z "},"/":{"ha":467,"x_min":-129,"x_max":674,"o":"m 594 989 l 674 946 l -50 -200 l -129 -156 l 594 989 z "},":":{"ha":371,"x_min":124,"x_max":401,"o":"m 240 624 q 263 683 240 661 q 321 704 285 704 q 379 683 357 704 q 401 624 401 661 q 379 565 401 588 q 321 543 357 543 q 263 565 285 543 q 240 624 240 588 m 124 64 q 146 123 124 101 q 204 144 168 144 q 263 123 240 144 q 285 64 285 101 q 263 6 285 28 q 204 -17 240 -17 q 146 6 168 -17 q 124 64 124 28 z "},";":{"ha":379,"x_min":75,"x_max":410,"o":"m 128 49 q 151 110 128 85 q 219 135 175 135 q 273 111 254 135 q 292 57 292 88 q 277 -27 292 14 q 236 -103 263 -68 q 174 -165 210 -137 q 97 -207 139 -192 l 75 -153 q 160 -92 128 -133 q 199 -10 192 -50 q 185 -12 193 -12 q 147 4 165 -12 q 128 49 128 21 m 249 624 q 271 683 249 661 q 329 704 293 704 q 388 683 365 704 q 410 624 410 661 q 388 565 410 588 q 329 543 365 543 q 271 565 293 543 q 249 624 249 588 z "},"<":{"ha":667,"x_min":75,"x_max":661,"o":"m 75 424 l 75 464 l 601 785 l 654 699 l 325 497 l 199 444 l 324 400 l 661 200 l 608 117 l 75 424 z "},"=":{"ha":667,"x_min":76,"x_max":665,"o":"m 76 635 l 665 635 l 665 535 l 76 535 l 76 635 m 76 404 l 665 404 l 665 304 l 76 304 l 76 404 z "},">":{"ha":667,"x_min":78,"x_max":664,"o":"m 664 478 l 664 438 l 138 117 l 85 201 l 414 403 l 540 456 l 415 500 l 78 700 l 131 785 l 664 478 z "},"?":{"ha":575,"x_min":111,"x_max":615,"o":"m 171 246 q 206 367 178 315 q 270 462 233 419 q 349 541 307 504 q 424 615 390 578 q 481 694 458 651 q 504 790 504 736 q 476 872 504 843 q 376 900 447 900 q 280 881 328 900 q 192 839 232 863 l 165 919 q 219 949 193 936 q 274 970 244 961 q 337 984 303 979 q 415 989 371 989 q 567 942 518 989 q 615 819 615 894 q 592 690 615 744 q 532 592 568 635 q 452 512 496 549 q 369 436 408 475 q 299 352 329 397 q 258 246 268 307 l 171 246 m 111 64 q 133 123 111 101 q 192 144 156 144 q 250 123 228 144 q 272 64 272 101 q 250 6 272 28 q 192 -17 228 -17 q 133 6 156 -17 q 111 64 111 28 z "},"@":{"ha":1478,"x_min":161,"x_max":1397,"o":"m 1022 682 l 1069 682 l 999 283 q 988 219 992 247 q 985 168 985 190 q 997 117 985 133 q 1039 100 1008 100 q 1132 125 1086 100 q 1215 196 1178 150 q 1274 307 1251 242 q 1297 453 1297 372 q 1261 642 1297 560 q 1160 780 1225 724 q 1004 865 1094 836 q 806 894 914 894 q 593 853 692 894 q 421 738 494 811 q 305 561 347 664 q 263 338 263 458 q 301 117 263 214 q 410 -47 339 19 q 579 -149 481 -114 q 799 -183 678 -183 q 890 -174 839 -183 q 983 -144 942 -164 l 1011 -233 q 897 -269 950 -260 q 782 -278 843 -278 q 540 -239 653 -278 q 343 -124 428 -200 q 210 66 258 -47 q 161 328 161 179 q 213 601 161 479 q 354 810 265 724 q 561 942 443 896 q 811 989 679 989 q 1043 952 936 989 q 1229 847 1150 915 q 1353 678 1308 778 q 1397 453 1397 579 q 1367 283 1397 364 q 1284 140 1336 201 q 1163 42 1232 79 q 1015 6 1093 6 q 923 31 957 6 q 889 124 889 56 q 890 151 889 136 q 894 182 892 165 l 889 182 q 842 119 868 150 q 783 63 815 88 q 713 22 750 38 q 636 6 676 6 q 573 20 603 6 q 521 63 543 35 q 485 128 499 90 q 472 215 472 167 q 501 390 472 304 q 580 543 531 476 q 695 651 629 610 q 835 692 761 692 q 916 676 885 692 q 976 639 947 661 l 1022 682 m 944 546 q 897 585 921 574 q 836 597 872 597 q 735 564 782 597 q 653 478 688 531 q 599 361 619 426 q 579 233 579 296 q 601 140 579 179 q 682 100 624 100 q 740 119 710 100 q 799 170 769 139 q 855 240 828 201 q 903 319 882 279 l 944 546 z "},"A":{"ha":774,"x_min":-46,"x_max":707,"o":"m 561 269 l 222 269 l 72 0 l -46 0 l 515 988 l 567 988 l 707 0 l 600 0 l 561 269 m 276 369 l 550 369 l 510 665 l 507 813 l 506 813 l 443 663 l 276 369 z "},"B":{"ha":772,"x_min":56,"x_max":779,"o":"m 779 765 q 763 667 779 711 q 715 589 746 622 q 644 535 685 556 q 556 508 603 515 l 556 503 q 614 480 586 496 q 663 440 642 464 q 696 385 683 417 q 708 317 708 354 q 670 156 708 219 q 573 56 632 93 q 441 3 514 18 q 297 -11 368 -11 q 244 -11 275 -11 q 164 -8 213 -11 q 56 7 81 0 l 258 964 q 377 978 311 972 q 519 983 443 983 q 618 970 571 983 q 701 931 665 957 q 758 863 736 904 q 779 765 779 821 m 328 89 q 424 101 376 89 q 508 138 471 113 q 569 203 546 163 q 592 301 592 243 q 571 373 592 344 q 517 418 550 401 q 441 441 483 435 q 356 447 399 447 l 258 447 l 185 99 q 210 94 193 96 q 248 92 228 93 q 290 90 268 90 q 328 89 311 89 m 351 542 q 407 542 375 542 q 461 546 439 543 q 529 565 493 553 q 595 601 565 578 q 644 659 625 624 q 663 747 663 694 q 651 812 663 786 q 616 853 639 838 q 561 876 593 869 q 490 883 529 883 q 407 881 446 883 q 349 875 368 879 l 278 542 l 351 542 z "},"C":{"ha":756,"x_min":99,"x_max":835,"o":"m 667 40 q 567 -4 619 8 q 444 -17 514 -17 q 299 13 363 -17 q 190 97 235 43 q 122 222 146 150 q 99 381 99 294 q 144 652 99 538 q 265 842 190 767 q 434 953 340 917 q 624 989 528 989 q 753 978 703 989 q 835 951 803 967 l 785 850 q 712 876 757 865 q 608 886 667 886 q 459 852 531 886 q 333 754 388 818 q 247 599 279 690 q 215 393 215 507 q 233 270 215 326 q 283 173 250 214 q 363 109 315 132 q 472 86 411 86 q 581 101 538 86 q 658 135 624 115 l 667 40 z "},"D":{"ha":864,"x_min":56,"x_max":861,"o":"m 263 972 q 382 981 315 979 q 503 983 449 983 q 651 962 585 983 q 765 896 718 940 q 836 783 811 851 q 861 624 861 715 q 850 491 861 563 q 813 349 839 419 q 744 214 788 279 q 638 98 701 149 q 488 17 574 47 q 289 -12 401 -12 q 234 -12 268 -12 q 167 -10 200 -11 q 56 -1 69 -4 l 263 972 m 494 881 q 457 880 478 881 q 417 878 436 879 q 379 876 397 878 q 351 874 361 875 l 188 96 q 210 94 193 94 q 245 92 226 93 q 281 91 264 92 q 306 90 299 90 q 510 140 426 90 q 645 267 593 190 q 721 435 697 343 q 744 608 744 526 q 731 721 744 671 q 687 806 717 771 q 610 861 657 842 q 494 881 563 881 z "},"E":{"ha":708,"x_min":56,"x_max":764,"o":"m 263 972 l 764 972 l 743 869 l 350 869 l 282 551 l 642 551 l 621 449 l 261 449 l 188 103 l 588 103 l 565 0 l 165 0 l 56 0 l 263 972 z "},"F":{"ha":683,"x_min":56,"x_max":764,"o":"m 263 972 l 764 972 l 743 869 l 350 869 l 279 538 l 646 538 l 625 435 l 258 435 l 167 0 l 56 0 l 263 972 z "},"G":{"ha":810,"x_min":99,"x_max":849,"o":"m 521 485 l 682 485 l 776 485 l 686 57 q 442 -17 588 -17 q 310 8 372 -17 q 201 83 249 33 q 126 206 154 132 q 99 378 99 279 q 149 665 99 549 q 277 853 199 782 q 450 957 356 925 q 633 989 544 989 q 765 978 713 989 q 849 953 817 968 l 800 851 q 726 876 772 867 q 621 886 679 886 q 467 855 540 886 q 338 761 394 824 q 249 606 282 699 q 215 392 215 514 q 231 274 215 329 q 277 176 246 218 q 355 110 308 135 q 465 86 401 86 q 542 95 510 86 q 606 121 574 104 l 663 392 l 507 419 l 521 485 z "},"H":{"ha":888,"x_min":56,"x_max":924,"o":"m 701 446 l 260 446 l 167 0 l 56 0 l 261 972 l 372 972 l 283 549 l 724 549 l 813 972 l 924 972 l 718 0 l 607 0 l 701 446 z "},"I":{"ha":385,"x_min":86,"x_max":403,"o":"m 292 972 l 403 972 l 197 0 l 86 0 l 292 972 z "},"J":{"ha":386,"x_min":-85,"x_max":419,"o":"m 308 972 l 419 972 l 258 214 q 228 116 246 158 q 184 44 211 74 q 117 1 157 15 q 22 -14 78 -14 q -3 -12 11 -14 q -33 -8 -18 -11 q -62 -1 -49 -6 q -85 8 -76 3 l -43 107 q 32 89 -17 89 q 81 99 61 89 q 114 130 100 110 q 137 178 128 150 q 153 242 146 206 l 308 972 z "},"K":{"ha":800,"x_min":56,"x_max":867,"o":"m 332 450 l 261 450 l 167 0 l 56 0 l 261 972 l 372 972 l 275 519 l 331 539 l 729 972 l 867 972 l 469 550 l 406 507 l 460 451 l 703 0 l 576 0 l 332 450 z "},"L":{"ha":683,"x_min":56,"x_max":624,"o":"m 603 0 l 164 0 l 56 0 l 261 972 l 372 972 l 188 103 l 624 103 l 603 0 z "},"M":{"ha":1047,"x_min":56,"x_max":1083,"o":"m 904 653 l 947 799 l 942 799 l 864 665 l 531 226 l 497 226 l 338 665 l 317 799 l 311 799 l 300 654 l 161 0 l 56 0 l 263 972 l 339 972 l 519 475 l 540 367 l 542 367 l 606 478 l 985 972 l 1083 972 l 876 0 l 765 0 l 904 653 z "},"N":{"ha":892,"x_min":56,"x_max":928,"o":"m 363 636 l 315 779 l 311 779 l 294 636 l 160 0 l 56 0 l 265 988 l 321 988 l 624 338 l 669 201 l 675 201 l 688 338 l 824 972 l 928 972 l 718 -15 l 667 -15 l 363 636 z "},"O":{"ha":904,"x_min":99,"x_max":899,"o":"m 99 356 q 133 599 99 483 q 233 801 168 714 q 388 938 297 888 q 590 989 479 989 q 714 969 657 989 q 812 905 771 949 q 876 792 853 861 q 899 622 899 722 q 864 376 899 492 q 767 172 829 260 q 617 34 704 85 q 426 -17 531 -17 q 181 78 263 -17 q 99 356 99 174 m 215 357 q 269 155 215 226 q 429 83 324 83 q 572 126 507 83 q 683 243 636 169 q 756 414 731 317 q 782 619 782 511 q 764 753 782 700 q 716 835 746 806 q 648 877 686 865 q 571 889 610 889 q 426 845 492 889 q 315 728 361 801 q 242 558 268 654 q 215 357 215 461 z "},"P":{"ha":739,"x_min":56,"x_max":786,"o":"m 260 963 q 371 979 313 975 q 486 983 429 983 q 605 969 550 983 q 700 925 660 956 q 763 847 740 894 q 786 732 786 799 q 748 556 786 626 q 648 442 710 485 q 508 382 586 400 q 351 364 431 364 q 330 364 344 364 q 299 365 315 364 q 267 367 282 365 q 244 369 251 368 l 167 0 l 56 0 l 260 963 m 463 883 q 401 881 431 883 q 351 875 371 879 l 267 471 q 285 467 272 468 q 313 465 299 467 q 342 464 328 464 q 363 464 356 464 q 478 476 422 464 q 576 519 533 489 q 644 599 618 550 q 669 721 669 647 q 653 803 669 771 q 608 852 636 835 q 542 876 579 869 q 463 883 504 883 z "},"Q":{"ha":904,"x_min":99,"x_max":901,"o":"m 879 -237 q 815 -251 846 -247 q 753 -254 783 -254 q 626 -240 686 -254 q 512 -208 567 -225 q 406 -177 457 -192 q 307 -162 356 -162 q 276 -164 292 -162 q 244 -169 260 -165 l 265 -68 q 339 -60 303 -60 q 446 -74 394 -60 q 551 -106 497 -89 q 661 -137 604 -122 q 783 -151 718 -151 q 901 -137 840 -151 l 879 -237 m 99 356 q 133 599 99 483 q 233 801 168 714 q 388 938 297 888 q 590 989 479 989 q 714 969 657 989 q 812 905 771 949 q 876 792 853 861 q 899 622 899 722 q 864 376 899 492 q 767 172 829 260 q 617 34 704 85 q 426 -17 531 -17 q 181 78 263 -17 q 99 356 99 174 m 215 357 q 269 155 215 226 q 429 83 324 83 q 572 126 507 83 q 683 243 636 169 q 756 414 731 317 q 782 619 782 511 q 764 753 782 700 q 716 835 746 806 q 648 877 686 865 q 571 889 610 889 q 426 845 492 889 q 315 728 361 801 q 242 558 268 654 q 215 357 215 461 z "},"R":{"ha":789,"x_min":56,"x_max":756,"o":"m 260 963 q 372 978 318 974 q 481 983 426 983 q 583 970 533 983 q 672 928 633 957 q 733 854 710 900 q 756 743 756 808 q 684 540 756 621 q 476 435 613 458 l 526 385 l 676 0 l 556 0 l 389 419 l 258 440 l 167 0 l 56 0 l 260 963 m 474 883 q 407 881 440 883 q 351 875 374 879 l 275 517 l 371 517 q 469 526 421 517 q 555 561 517 536 q 616 629 593 586 q 639 738 639 672 q 629 788 639 763 q 600 835 619 814 q 549 870 581 857 q 474 883 517 883 z "},"S":{"ha":701,"x_min":24,"x_max":779,"o":"m 539 250 q 513 335 539 300 q 449 398 488 369 q 365 453 410 426 q 281 514 319 479 q 216 596 242 549 q 190 713 190 643 q 217 839 190 786 q 291 925 244 892 q 401 974 338 958 q 535 989 464 989 q 679 976 615 989 q 779 944 743 964 l 724 846 q 641 875 696 861 q 514 889 586 889 q 365 847 422 889 q 307 726 307 806 q 333 640 307 675 q 397 576 358 604 q 481 521 436 547 q 565 460 526 494 q 630 379 604 426 q 656 264 656 332 q 558 56 656 129 q 279 -17 461 -17 q 122 -1 186 -17 q 24 35 57 15 l 81 136 q 167 101 113 118 q 297 83 222 83 q 383 91 340 83 q 461 118 426 99 q 517 169 496 138 q 539 250 539 201 z "},"T":{"ha":733,"x_min":153,"x_max":857,"o":"m 836 869 l 549 869 l 365 0 l 254 0 l 438 869 l 153 869 l 174 972 l 857 972 l 836 869 z "},"U":{"ha":858,"x_min":121,"x_max":901,"o":"m 796 972 l 901 972 l 765 324 q 717 171 746 235 q 644 67 688 107 q 539 7 600 26 q 397 -12 478 -12 q 268 5 321 -12 q 183 53 215 22 q 135 130 150 85 q 121 229 121 175 q 136 358 121 286 l 265 972 l 376 972 l 247 357 q 232 246 232 296 q 278 124 232 158 q 414 90 324 90 q 509 106 468 90 q 580 153 550 121 q 630 235 610 185 q 665 356 650 285 l 796 972 z "},"V":{"ha":751,"x_min":144,"x_max":904,"o":"m 351 307 l 351 158 l 354 158 l 417 310 l 785 972 l 904 972 l 346 -15 l 294 -15 l 144 972 l 258 972 l 351 307 z "},"W":{"ha":1094,"x_min":158,"x_max":1232,"o":"m 297 324 l 285 163 l 286 163 l 340 326 l 667 972 l 726 972 l 778 324 l 765 163 l 767 163 l 822 326 l 1118 972 l 1232 972 l 765 -15 l 704 -15 l 651 636 l 660 783 l 654 783 l 599 635 l 274 -15 l 213 -15 l 158 972 l 272 972 l 297 324 z "},"X":{"ha":817,"x_min":-10,"x_max":925,"o":"m 401 497 l 221 972 l 342 972 l 461 643 l 478 564 l 525 643 l 790 972 l 925 972 l 538 501 l 735 0 l 614 0 l 481 349 l 461 432 l 408 349 l 125 0 l -10 0 l 401 497 z "},"Y":{"ha":738,"x_min":150,"x_max":868,"o":"m 335 386 l 150 972 l 271 972 l 394 547 l 399 463 l 400 463 l 442 550 l 743 972 l 868 972 l 446 388 l 364 0 l 253 0 l 335 386 z "},"Z":{"ha":722,"x_min":-1,"x_max":825,"o":"m 19 104 l 624 814 l 692 869 l 183 869 l 204 972 l 825 972 l 804 868 l 196 154 l 131 103 l 640 103 l 619 0 l -1 0 l 19 104 z "},"[":{"ha":404,"x_min":22,"x_max":536,"o":"m 296 972 l 401 972 l 536 972 l 515 875 l 381 875 l 147 -222 l 283 -222 l 263 -319 l 126 -319 l 22 -319 l 296 972 z "},"\\":{"ha":528,"x_min":57,"x_max":624,"o":"m 624 -154 l 532 -194 l 57 950 l 153 989 l 624 -154 z "},"]":{"ha":404,"x_min":-87,"x_max":425,"o":"m 151 -319 l 47 -319 l -87 -319 l -67 -222 l 67 -222 l 299 875 l 164 875 l 185 972 l 322 972 l 425 972 l 151 -319 z "},"^":{"ha":694,"x_min":142,"x_max":675,"o":"m 400 988 l 440 988 l 675 604 l 560 604 l 450 792 l 418 888 l 375 790 l 246 604 l 142 604 l 400 988 z "},"_":{"ha":567,"x_min":-61,"x_max":506,"o":"m -61 -190 l 506 -190 l 506 -285 l -61 -285 l -61 -190 z "},"`":{"ha":331,"x_min":240,"x_max":413,"o":"m 413 793 l 353 793 l 240 971 l 246 1000 l 372 1000 l 413 793 z "},"a":{"ha":676,"x_min":63,"x_max":663,"o":"m 575 274 q 560 169 564 222 q 556 71 556 117 q 556 31 556 50 q 558 -3 556 13 l 481 -3 l 461 118 l 456 118 q 415 70 439 94 q 361 26 390 46 q 299 -5 332 7 q 228 -17 265 -17 q 63 199 63 -17 q 85 379 63 288 q 156 544 108 471 q 280 665 204 618 q 463 713 356 713 q 558 703 501 713 q 663 679 614 694 l 575 274 m 260 72 q 324 88 293 72 q 381 128 354 104 q 429 178 408 151 q 463 229 450 206 l 540 604 q 435 624 499 624 q 322 586 371 624 q 240 488 274 549 q 190 351 207 428 q 174 199 174 275 q 194 109 174 146 q 260 72 215 72 z "},"b":{"ha":724,"x_min":60,"x_max":679,"o":"m 257 972 l 361 972 l 276 575 l 282 575 q 326 624 301 600 q 382 668 351 649 q 447 699 413 688 q 522 711 482 711 q 642 653 604 711 q 679 508 679 596 q 644 287 679 383 q 553 124 610 190 q 423 22 496 57 q 274 -12 350 -12 q 142 4 199 -12 q 60 43 86 21 l 257 972 m 489 622 q 418 605 454 622 q 349 560 382 588 q 290 498 317 532 q 246 432 263 464 l 176 106 q 294 76 218 76 q 388 103 339 76 q 476 183 436 131 q 542 310 517 235 q 568 483 568 386 q 547 588 568 554 q 489 622 525 622 z "},"c":{"ha":583,"x_min":69,"x_max":601,"o":"m 507 60 q 459 28 486 42 q 403 4 432 14 q 347 -11 375 -6 q 294 -17 319 -17 q 183 5 226 -17 q 114 60 139 26 q 79 132 89 93 q 69 206 69 171 q 101 417 69 324 q 187 576 133 511 q 310 676 240 642 q 453 711 379 711 q 540 701 506 711 q 601 679 574 692 l 563 593 q 504 615 539 607 q 429 622 469 622 q 337 590 382 622 q 257 506 292 558 q 201 387 222 454 q 181 249 181 319 q 218 115 181 158 q 319 72 256 72 q 407 91 361 72 q 481 129 453 110 l 507 60 z "},"d":{"ha":707,"x_min":69,"x_max":738,"o":"m 582 239 q 565 138 571 185 q 560 50 560 90 q 560 22 560 35 q 563 -3 561 10 l 493 -3 l 474 118 l 468 118 q 426 70 451 94 q 371 26 401 46 q 306 -5 340 7 q 236 -17 272 -17 q 115 40 160 -17 q 69 218 69 96 q 93 387 69 300 q 163 544 117 474 q 277 661 208 615 q 436 707 346 707 q 479 706 461 707 q 513 701 497 704 q 543 694 529 699 q 572 683 557 689 l 633 972 l 738 972 l 582 239 m 275 72 q 335 88 304 72 q 392 128 365 104 q 441 178 419 151 q 475 229 463 206 l 553 590 q 499 612 529 606 q 421 618 469 618 q 321 584 365 618 q 245 493 276 550 q 197 363 214 436 q 181 211 181 289 q 203 113 181 154 q 275 72 225 72 z "},"e":{"ha":643,"x_min":69,"x_max":632,"o":"m 540 68 q 426 5 492 26 q 293 -17 360 -17 q 126 47 182 -17 q 69 225 69 111 q 101 429 69 339 q 185 582 133 519 q 303 678 238 644 q 439 711 369 711 q 526 697 489 711 q 586 660 563 683 q 621 608 610 638 q 632 544 632 578 q 536 390 632 446 q 257 333 440 333 q 222 334 240 333 q 185 336 204 335 q 176 286 179 310 q 174 244 174 263 q 208 120 174 168 q 317 72 243 72 q 428 92 378 72 q 507 135 479 113 l 540 68 m 422 622 q 290 570 346 622 q 204 414 233 518 q 314 417 257 414 q 417 431 371 419 q 494 469 464 443 q 525 540 525 494 q 520 569 525 554 q 504 595 515 583 q 473 615 493 607 q 422 622 453 622 z "},"f":{"ha":386,"x_min":-158,"x_max":597,"o":"m 304 606 l 193 -47 q 170 -142 185 -99 q 132 -219 156 -186 q 72 -270 108 -251 q -15 -289 36 -289 q -92 -283 -57 -289 q -158 -261 -128 -276 l -128 -183 q -77 -197 -100 -193 q -21 -200 -54 -200 q 58 -149 32 -200 q 103 11 85 -99 l 200 606 l 93 606 l 111 694 l 213 694 l 231 788 q 254 876 240 839 q 291 939 268 914 q 348 976 314 964 q 431 989 382 989 q 519 980 476 989 q 597 956 563 971 l 567 874 q 438 900 499 900 q 363 865 386 900 q 326 751 339 829 l 317 694 l 457 694 l 440 606 l 304 606 z "},"g":{"ha":701,"x_min":7,"x_max":682,"o":"m 535 -32 q 434 -231 506 -168 q 244 -294 363 -294 q 96 -272 154 -294 q 7 -232 38 -249 l 53 -154 q 80 -169 64 -160 q 119 -186 96 -178 q 174 -200 142 -194 q 251 -206 207 -206 q 368 -156 321 -206 q 439 1 415 -106 l 464 118 l 458 118 q 416 68 439 92 q 365 26 393 44 q 305 -4 338 7 q 233 -15 272 -15 q 113 39 158 -15 q 67 193 67 93 q 92 378 67 286 q 169 542 118 469 q 294 661 219 615 q 465 707 368 707 q 592 694 540 707 q 682 664 643 682 l 535 -32 m 272 74 q 341 92 307 74 q 403 138 375 110 q 455 200 432 167 q 493 263 478 233 l 564 597 q 510 614 542 610 q 444 618 478 618 q 339 585 388 618 q 255 495 290 551 q 199 365 219 439 q 178 211 178 292 q 203 110 178 147 q 272 74 229 74 z "},"h":{"ha":735,"x_min":50,"x_max":685,"o":"m 474 0 l 557 396 q 571 470 565 438 q 576 528 576 503 q 556 601 576 579 q 490 622 535 622 q 417 603 454 622 q 344 556 379 585 q 283 490 310 526 q 242 421 256 454 l 154 0 l 50 0 l 256 972 l 360 972 l 274 575 l 279 575 q 323 621 297 597 q 382 665 349 644 q 454 698 415 685 q 539 711 493 711 q 646 678 607 711 q 685 560 685 646 q 667 419 685 501 l 578 0 l 474 0 z "},"i":{"ha":360,"x_min":75,"x_max":396,"o":"m 222 694 l 326 694 l 179 0 l 75 0 l 222 694 m 244 907 q 266 961 244 939 q 319 983 288 983 q 374 961 351 983 q 396 907 396 939 q 374 853 396 875 q 319 832 351 832 q 266 853 288 832 q 244 907 244 875 z "},"j":{"ha":346,"x_min":-133,"x_max":379,"o":"m 206 694 l 310 694 l 154 -37 q 68 -228 126 -167 q -90 -289 10 -289 q -112 -288 -101 -289 q -133 -286 -122 -287 l -112 -196 q -44 -184 -71 -196 q 2 -147 -17 -172 q 34 -85 21 -122 q 58 4 47 -47 l 206 694 m 228 907 q 249 961 228 939 q 303 983 271 983 q 357 961 335 983 q 379 907 379 939 q 357 853 379 875 q 303 832 335 832 q 249 853 271 832 q 228 907 228 875 z "},"k":{"ha":624,"x_min":50,"x_max":671,"o":"m 294 313 l 219 313 l 154 0 l 50 0 l 256 972 l 360 972 l 233 381 l 293 396 l 543 694 l 671 694 l 424 413 l 358 367 l 411 313 l 567 0 l 451 0 l 294 313 z "},"l":{"ha":375,"x_min":69,"x_max":354,"o":"m 185 165 q 181 126 181 142 q 190 88 181 100 q 214 76 199 76 q 260 80 242 76 q 306 93 279 83 l 306 14 q 276 2 293 7 q 242 -6 260 -3 q 208 -10 225 -8 q 176 -12 190 -12 q 99 10 128 -12 q 69 92 69 32 q 78 160 69 119 l 250 972 l 354 972 l 185 165 z "},"m":{"ha":1060,"x_min":50,"x_max":1010,"o":"m 424 0 l 507 393 q 524 479 518 442 q 529 544 529 517 q 515 602 529 582 q 468 622 501 622 q 400 604 433 622 q 338 559 367 586 q 284 501 308 532 q 246 446 260 471 l 154 0 l 50 0 l 197 694 l 271 694 l 263 575 l 268 575 q 316 622 290 597 q 373 665 342 646 q 441 698 404 685 q 522 711 478 711 q 606 672 585 711 q 628 564 628 633 q 676 617 649 590 q 737 664 704 643 q 806 698 769 685 q 878 711 842 711 q 976 681 942 711 q 1010 571 1010 651 q 989 417 1010 513 l 901 0 l 797 0 l 885 418 q 898 490 893 458 q 903 546 903 522 q 888 603 903 583 q 836 622 872 622 q 774 603 807 622 q 711 557 742 585 q 656 497 681 529 q 618 438 632 465 l 528 0 l 424 0 z "},"n":{"ha":725,"x_min":50,"x_max":675,"o":"m 460 0 l 553 439 q 563 488 558 464 q 567 532 567 513 q 548 597 567 572 q 478 622 529 622 q 407 606 442 622 q 342 563 372 589 q 287 506 311 538 q 246 444 263 475 l 154 0 l 50 0 l 197 694 l 269 694 l 264 575 l 269 575 q 313 622 288 597 q 369 665 338 646 q 439 698 400 685 q 525 711 478 711 q 635 678 594 711 q 675 561 675 644 q 663 461 675 519 l 564 0 l 460 0 z "},"o":{"ha":692,"x_min":69,"x_max":647,"o":"m 69 217 q 98 417 69 326 q 176 574 126 508 q 292 675 226 639 q 433 711 358 711 q 533 692 492 711 q 599 641 574 674 q 636 566 625 608 q 647 478 647 524 q 620 283 647 374 q 545 126 593 193 q 433 22 497 60 q 294 -17 369 -17 q 190 3 232 -17 q 120 57 147 24 q 81 132 93 90 q 69 217 69 174 m 181 242 q 211 116 181 160 q 308 72 242 72 q 395 105 354 72 q 467 193 436 138 q 517 320 499 249 q 536 469 536 392 q 510 581 536 540 q 413 622 485 622 q 325 591 367 622 q 251 507 283 560 q 199 385 218 454 q 181 242 181 317 z "},"p":{"ha":706,"x_min":-7,"x_max":669,"o":"m 200 694 l 272 694 l 265 575 l 271 575 q 315 624 290 600 q 368 668 339 649 q 432 699 397 688 q 507 711 467 711 q 569 701 540 711 q 621 666 599 690 q 656 601 643 642 q 669 503 669 561 q 636 284 669 381 q 549 121 603 188 q 427 19 494 54 q 293 -17 360 -17 q 208 -8 244 -17 q 158 11 171 1 l 97 -278 l -7 -278 l 200 694 m 468 622 q 397 603 431 622 q 334 555 363 583 q 283 494 306 526 q 247 433 261 461 l 179 104 q 228 79 203 86 q 282 72 253 72 q 385 102 336 72 q 474 188 435 132 q 535 321 513 243 q 558 494 558 399 q 535 586 558 550 q 468 622 513 622 z "},"q":{"ha":699,"x_min":64,"x_max":672,"o":"m 472 -278 l 368 -278 l 453 117 l 447 117 q 409 71 431 94 q 360 28 388 47 q 300 -4 333 8 q 229 -17 267 -17 q 153 -1 185 -17 q 101 44 121 15 q 73 111 82 72 q 64 196 64 150 q 94 381 64 289 q 179 544 125 472 q 308 662 233 617 q 474 707 383 707 q 533 703 503 707 q 589 692 563 699 q 638 678 615 686 q 672 663 660 671 l 472 -278 m 258 72 q 328 93 293 72 q 394 145 364 114 q 449 212 425 176 q 486 276 472 247 l 556 597 q 502 614 533 610 q 447 618 471 618 q 344 583 393 618 q 257 491 294 549 q 197 359 219 433 q 175 206 175 285 q 197 106 175 139 q 258 72 218 72 z "},"r":{"ha":454,"x_min":50,"x_max":531,"o":"m 503 603 q 477 607 490 606 q 453 608 464 608 q 331 564 382 608 q 250 456 279 519 l 154 0 l 50 0 l 197 694 l 269 694 l 269 575 l 275 575 q 311 624 292 601 q 354 665 331 647 q 406 694 378 683 q 467 704 433 704 q 531 694 497 704 l 503 603 z "},"s":{"ha":553,"x_min":4,"x_max":544,"o":"m 360 196 q 342 257 360 232 q 296 302 324 282 q 236 342 268 322 q 176 385 204 361 q 131 442 149 410 q 113 524 113 475 q 131 597 113 563 q 183 656 150 631 q 260 697 215 682 q 358 711 306 711 q 472 701 432 711 q 544 674 513 692 l 510 590 q 358 622 454 622 q 262 598 300 622 q 224 524 224 574 q 242 473 224 494 q 288 432 260 451 q 347 392 315 413 q 407 347 379 372 q 453 286 435 321 q 471 204 471 251 q 398 40 471 96 q 203 -17 325 -17 q 88 -4 140 -17 q 4 28 36 8 l 43 115 q 116 85 71 97 q 210 72 161 72 q 319 102 278 72 q 360 196 360 132 z "},"t":{"ha":435,"x_min":78,"x_max":488,"o":"m 99 694 l 201 694 l 231 832 l 342 864 l 306 694 l 488 694 l 467 606 l 286 606 l 199 186 q 194 156 196 169 q 192 131 192 142 q 207 85 192 97 q 253 72 222 72 q 314 81 286 72 q 369 106 342 89 l 369 21 q 294 -6 340 4 q 207 -17 249 -17 q 81 99 81 -17 q 88 157 81 122 l 182 606 l 78 606 l 99 694 z "},"u":{"ha":710,"x_min":83,"x_max":690,"o":"m 296 694 l 199 232 q 190 163 190 194 q 206 98 190 124 q 261 72 221 72 q 328 89 294 72 q 394 132 363 106 q 451 190 425 158 q 493 253 476 222 l 586 694 l 690 694 l 603 282 q 592 224 597 258 q 581 153 586 190 q 574 80 576 115 q 571 18 571 44 l 571 0 l 489 0 l 489 132 l 483 132 q 435 78 463 104 q 376 31 408 51 q 306 -3 343 10 q 226 -17 268 -17 q 170 -10 196 -17 q 125 15 144 -3 q 94 60 106 32 q 83 133 83 89 q 97 243 83 182 l 192 694 l 296 694 z "},"v":{"ha":621,"x_min":83,"x_max":696,"o":"m 267 288 l 279 156 l 282 156 l 342 290 l 576 694 l 696 694 l 263 -15 l 218 -15 l 83 694 l 194 694 l 267 288 z "},"w":{"ha":951,"x_min":79,"x_max":1029,"o":"m 593 694 l 658 289 l 664 156 l 665 156 l 719 292 l 924 694 l 1029 694 l 656 -15 l 603 -15 l 529 443 l 528 557 l 525 557 l 474 442 l 210 -15 l 160 -15 l 79 694 l 185 694 l 228 290 l 225 156 l 231 156 l 286 293 l 515 694 l 593 694 z "},"x":{"ha":672,"x_min":-31,"x_max":710,"o":"m 282 356 l 133 694 l 251 694 l 333 503 l 358 424 l 415 503 l 583 694 l 710 694 l 415 361 l 581 0 l 463 0 l 368 211 l 340 294 l 282 211 l 96 0 l -31 0 l 282 356 z "},"y":{"ha":610,"x_min":-28,"x_max":678,"o":"m 269 244 l 276 111 l 283 111 l 336 246 l 567 694 l 678 694 l 350 75 q 278 -58 314 7 q 206 -173 243 -122 q 128 -254 168 -224 q 44 -285 88 -285 q 3 -282 21 -285 q -28 -272 -14 -279 l 6 -176 q 39 -182 21 -182 q 119 -140 79 -182 q 210 0 160 -99 l 90 694 l 201 694 l 269 244 z "},"z":{"ha":596,"x_min":-3,"x_max":613,"o":"m 15 96 l 406 539 l 482 599 l 124 599 l 144 694 l 613 694 l 592 599 l 197 151 l 122 96 l 485 96 l 465 0 l -3 0 l 15 96 z "},"{":{"ha":460,"x_min":104,"x_max":594,"o":"m 321 -319 l 208 -319 q 133 -292 160 -319 q 108 -215 107 -265 q 114 -175 108 -196 l 183 156 q 189 200 189 181 q 169 262 192 244 q 104 279 146 279 l 125 374 q 254 492 228 374 l 326 828 q 380 933 340 893 q 482 974 419 974 l 594 974 l 574 876 l 507 876 q 451 858 471 876 q 421 794 431 839 l 353 465 q 306 372 340 404 q 233 333 271 340 l 232 325 q 280 293 260 321 q 299 221 300 265 q 297 204 299 214 q 288 160 294 194 q 267 56 282 126 q 224 -140 251 -14 q 221 -156 222 -149 q 219 -169 219 -162 q 278 -222 218 -222 l 343 -222 l 321 -319 z "},"|":{"ha":331,"x_min":160,"x_max":256,"o":"m 160 972 l 256 972 l 256 -181 l 160 -181 l 160 972 z "},"}":{"ha":460,"x_min":-87,"x_max":403,"o":"m 322 499 q 317 457 317 475 q 338 393 315 411 q 403 375 361 375 l 381 281 q 297 251 331 281 q 250 163 264 222 q 247 146 250 161 q 238 107 243 131 q 227 53 233 83 q 215 -8 221 22 q 181 -174 200 -82 q 126 -279 167 -239 q 24 -319 86 -319 l -87 -319 l -65 -222 l 0 -222 q 55 -203 35 -222 q 83 -140 75 -185 l 153 189 q 201 282 167 250 q 274 321 235 314 l 276 329 q 226 361 246 333 q 207 433 206 389 q 208 449 207 440 q 211 467 210 458 l 282 794 q 285 810 285 803 q 286 824 286 817 q 229 876 288 876 l 165 876 l 185 974 l 297 974 q 373 947 346 974 q 397 869 400 921 q 392 829 397 850 l 322 499 z "},"~":{"ha":667,"x_min":64,"x_max":679,"o":"m 64 501 q 172 565 124 547 q 261 583 221 583 q 333 572 300 583 q 397 545 367 560 q 457 519 428 531 q 518 507 486 507 q 572 518 544 507 q 632 557 600 529 l 679 472 q 584 422 626 436 q 507 407 542 407 q 438 419 469 407 q 378 445 407 431 q 322 472 350 460 q 260 483 293 483 q 192 469 228 483 q 111 418 156 454 l 64 501 z "}," ":{"ha":371,"x_min":0,"x_max":0,"o":""},"¡":{"ha":403,"x_min":25,"x_max":343,"o":"m 133 -278 l 25 -278 l 128 204 l 201 449 l 267 449 l 236 204 l 133 -278 m 182 629 q 204 688 182 667 q 263 710 226 710 q 321 688 299 710 q 343 629 343 667 q 321 571 343 593 q 263 549 299 549 q 204 571 226 549 q 182 629 182 593 z "},"¢":{"ha":722,"x_min":140,"x_max":676,"o":"m 582 60 q 500 13 547 31 q 408 -12 453 -6 l 382 -139 l 290 -139 l 317 -14 q 229 18 264 -6 q 175 73 194 42 q 148 139 156 104 q 140 206 140 174 q 167 399 140 313 q 238 551 193 486 q 343 655 283 615 q 469 706 403 694 l 497 833 l 590 833 l 563 710 q 626 697 599 706 q 676 679 653 689 l 638 593 q 593 611 619 604 q 535 621 567 618 l 419 75 q 494 97 457 81 q 556 129 532 114 l 582 60 m 251 249 q 277 130 251 172 q 349 76 303 88 l 463 617 q 383 572 421 606 q 315 488 344 538 q 269 376 286 438 q 251 249 251 314 z "},"£":{"ha":722,"x_min":51,"x_max":774,"o":"m 164 551 l 254 551 q 246 605 249 576 q 243 669 243 633 q 271 809 243 749 q 345 909 299 869 q 454 969 392 949 q 588 989 517 989 q 692 977 643 989 q 774 947 742 965 l 736 858 q 664 883 708 874 q 564 893 619 893 q 483 878 521 893 q 416 835 444 864 q 371 766 388 807 q 354 672 354 725 q 358 601 354 629 q 367 551 361 574 l 582 551 l 561 463 l 388 463 q 392 425 390 446 q 393 376 393 404 q 384 292 393 331 q 362 222 375 253 q 332 167 349 190 q 300 131 315 144 l 238 83 l 236 76 l 322 96 l 661 96 l 640 0 l 51 0 l 72 99 q 152 119 114 99 q 219 176 190 140 q 266 260 249 211 q 283 367 283 308 q 281 417 283 394 q 274 463 278 440 l 143 463 l 164 551 z "},"¤":{"ha":722,"x_min":86,"x_max":783,"o":"m 154 828 l 263 721 l 292 672 q 435 718 350 718 q 578 672 517 718 l 608 721 l 717 828 l 783 760 l 678 651 l 629 621 q 674 479 674 561 q 629 336 674 396 l 678 307 l 783 199 l 717 132 l 608 239 l 579 285 q 435 242 519 242 q 292 285 349 242 l 263 239 l 154 132 l 86 199 l 193 307 l 240 338 q 197 479 197 396 q 209 556 197 519 q 240 622 221 592 l 193 651 l 86 760 l 154 828 m 293 479 q 333 375 293 417 q 435 333 372 333 q 538 375 497 333 q 578 479 578 417 q 538 584 578 542 q 435 626 497 626 q 333 584 372 626 q 293 479 293 542 z "},"¥":{"ha":722,"x_min":125,"x_max":860,"o":"m 179 456 l 303 456 l 143 972 l 264 972 l 392 547 l 396 463 l 397 463 l 439 550 l 735 972 l 860 972 l 485 456 l 610 456 l 592 372 l 432 372 l 414 285 l 574 285 l 556 201 l 396 201 l 354 0 l 243 0 l 285 201 l 125 201 l 142 285 l 303 285 l 321 372 l 161 372 l 179 456 z "},"¦":{"ha":331,"x_min":160,"x_max":256,"o":"m 160 286 l 256 286 l 256 -181 l 160 -181 l 160 286 m 256 506 l 160 506 l 160 972 l 256 972 l 256 506 z "},"§":{"ha":657,"x_min":67,"x_max":675,"o":"m 122 468 q 152 572 122 529 q 229 647 182 615 l 293 672 q 248 728 261 699 q 235 792 235 757 q 254 869 235 833 q 307 932 274 906 q 385 974 340 958 q 483 989 431 989 q 599 976 556 989 q 675 944 643 964 l 635 860 q 566 885 607 875 q 476 894 525 894 q 380 865 417 894 q 343 788 343 835 q 365 740 343 758 q 418 708 388 722 q 485 681 449 694 q 553 645 522 667 q 604 592 583 624 q 625 508 625 560 q 593 401 625 449 q 517 326 561 354 l 442 301 q 490 250 474 279 q 507 172 507 221 q 487 90 507 125 q 433 31 467 54 q 356 -5 400 7 q 261 -17 311 -17 q 144 -1 189 -17 q 67 33 99 14 l 111 118 q 178 90 139 103 q 268 78 218 78 q 361 99 324 78 q 399 172 399 121 q 379 224 399 203 q 329 260 360 244 q 262 293 299 276 q 194 332 225 310 q 143 386 164 354 q 122 468 122 418 m 514 493 q 501 543 514 524 q 467 577 489 563 q 415 603 444 592 q 353 628 386 614 q 310 606 332 619 q 272 576 289 593 q 244 535 254 558 q 233 483 233 513 q 246 433 233 454 q 279 397 258 413 q 328 370 300 382 q 389 346 357 358 q 431 367 410 354 q 472 399 453 381 q 502 440 490 417 q 514 493 514 464 z "},"¨":{"ha":340,"x_min":122,"x_max":506,"o":"m 122 907 q 140 958 122 938 q 186 978 157 978 q 233 958 215 978 q 251 907 251 938 q 233 859 251 879 q 186 839 215 839 q 140 859 157 839 q 122 907 122 879 m 376 908 q 394 958 376 938 q 440 978 411 978 q 488 958 471 978 q 506 908 506 938 q 488 859 506 879 q 440 839 471 839 q 394 859 411 839 q 376 908 376 879 z "},"©":{"ha":1119,"x_min":107,"x_max":1085,"o":"m 107 403 q 146 609 107 518 q 251 763 185 700 q 407 858 318 825 q 596 892 496 892 q 785 858 696 892 q 940 763 874 825 q 1046 609 1007 700 q 1085 403 1085 518 q 1046 197 1085 288 q 940 43 1007 106 q 785 -53 874 -19 q 596 -86 696 -86 q 394 -53 485 -86 q 240 43 304 -19 q 142 197 176 106 q 107 403 107 288 m 204 403 q 235 233 204 307 q 318 108 265 158 q 442 32 371 58 q 596 6 514 6 q 749 32 678 6 q 874 108 821 58 q 957 233 926 158 q 988 403 988 307 q 957 573 988 499 q 874 697 926 647 q 749 774 821 747 q 596 800 678 800 q 442 774 514 800 q 318 697 371 747 q 235 573 265 647 q 204 403 204 499 m 757 176 q 685 149 725 158 q 593 139 646 139 q 422 210 481 139 q 363 403 363 281 q 426 598 363 529 q 593 667 489 667 q 638 664 618 667 q 676 656 658 661 q 710 644 693 651 q 747 629 726 638 l 711 544 q 653 565 681 560 q 606 571 625 571 q 510 535 547 571 q 474 403 474 499 q 510 278 474 322 q 617 233 546 235 q 728 258 682 233 l 757 176 z "},"ª":{"ha":529,"x_min":83,"x_max":507,"o":"m 172 940 q 258 971 208 958 q 374 983 307 983 q 473 954 439 983 q 507 881 507 925 q 497 801 507 846 q 473 707 486 756 q 449 612 460 658 q 439 528 439 565 l 369 528 l 365 592 l 361 592 q 301 545 338 568 q 208 522 265 522 q 115 558 146 522 q 83 642 83 593 q 103 715 83 685 q 157 766 124 746 q 234 795 190 786 q 326 804 278 804 q 365 803 346 804 q 404 799 385 801 q 413 846 413 825 q 333 906 413 906 q 244 895 281 906 q 179 872 207 885 l 172 940 m 238 600 q 327 626 294 600 q 376 676 360 651 l 388 735 q 360 736 374 736 q 332 736 347 736 q 276 733 303 736 q 227 720 249 729 q 192 694 206 711 q 179 651 179 678 q 193 615 179 629 q 238 600 207 600 z "},"«":{"ha":631,"x_min":53,"x_max":631,"o":"m 294 360 l 569 676 l 631 613 l 460 413 l 382 361 l 429 310 l 522 114 l 447 56 l 294 360 m 53 360 l 331 679 l 393 614 l 221 413 l 142 361 l 190 310 l 283 113 l 208 53 l 53 360 z "},"¬":{"ha":701,"x_min":93,"x_max":682,"o":"m 93 544 l 682 544 l 682 278 l 585 278 l 585 444 l 93 444 l 93 544 z "},"­":{"ha":475,"x_min":88,"x_max":429,"o":"m 110 447 l 429 447 l 406 353 l 88 353 l 110 447 z "},"®":{"ha":972,"x_min":190,"x_max":926,"o":"m 190 626 q 219 784 190 715 q 299 899 249 853 q 417 970 350 946 q 558 994 483 994 q 702 970 635 994 q 819 899 769 946 q 898 784 869 853 q 926 626 926 715 q 897 469 926 538 q 817 353 868 400 q 700 283 767 307 q 558 258 633 258 q 414 283 481 258 q 297 353 347 307 q 219 469 247 400 q 190 626 190 538 m 278 626 q 300 501 278 554 q 360 412 322 447 q 450 358 399 376 q 558 340 501 340 q 669 358 618 340 q 758 410 721 375 q 817 499 796 446 q 839 626 839 553 q 817 752 839 699 q 756 841 794 806 q 667 894 718 876 q 558 913 617 913 q 446 894 497 913 q 357 841 394 876 q 299 752 319 806 q 278 626 278 699 m 415 807 q 478 817 438 814 q 554 821 518 821 q 654 797 613 821 q 696 713 696 772 q 667 644 696 668 q 597 618 639 621 l 636 599 l 739 447 l 654 447 l 554 592 l 488 613 l 488 447 l 415 447 l 415 807 m 539 758 q 510 758 524 758 q 488 753 496 757 l 488 654 l 535 654 q 597 667 575 654 q 619 710 619 679 q 539 758 619 758 z "},"¯":{"ha":435,"x_min":167,"x_max":576,"o":"m 186 893 l 576 893 l 558 807 l 167 807 l 186 893 z "},"°":{"ha":590,"x_min":196,"x_max":588,"o":"m 196 793 q 211 872 196 836 q 253 934 226 908 q 315 974 279 960 q 392 989 351 989 q 468 976 432 989 q 531 937 504 963 q 572 875 557 911 q 588 793 588 839 q 572 711 588 747 q 531 649 557 675 q 468 610 504 624 q 392 597 432 597 q 315 610 351 597 q 253 649 279 624 q 211 711 226 675 q 196 793 196 747 m 285 793 q 317 710 285 740 q 392 681 349 681 q 467 710 435 681 q 499 793 499 740 q 467 876 499 846 q 392 906 435 906 q 317 876 349 906 q 285 793 285 846 z "},"±":{"ha":667,"x_min":76,"x_max":665,"o":"m 76 685 l 321 685 l 321 936 l 421 936 l 421 685 l 665 685 l 665 585 l 421 585 l 421 418 l 321 418 l 321 585 l 76 585 l 76 685 m 76 347 l 665 347 l 665 247 l 76 247 l 76 347 z "},"²":{"ha":524,"x_min":150,"x_max":604,"o":"m 604 990 q 584 901 604 946 q 530 810 564 856 q 451 723 496 765 q 360 642 407 681 l 290 599 l 290 594 l 369 617 l 551 617 l 532 528 l 150 528 l 160 574 q 220 619 185 592 q 294 679 256 646 q 371 750 333 713 q 439 826 408 788 q 488 900 469 864 q 507 968 507 936 q 431 1032 507 1032 q 358 1019 394 1032 q 294 989 322 1006 l 282 1068 q 369 1107 321 1093 q 465 1121 418 1121 q 515 1115 490 1121 q 560 1093 540 1108 q 592 1053 579 1078 q 604 990 604 1028 z "},"³":{"ha":524,"x_min":186,"x_max":644,"o":"m 336 601 q 451 640 414 601 q 488 731 488 678 q 465 787 488 768 q 376 806 443 806 l 304 806 l 310 838 l 471 1000 l 524 1036 l 457 1028 l 289 1028 l 307 1111 l 644 1111 l 635 1065 l 463 893 l 426 868 l 425 865 l 456 869 q 545 835 508 869 q 582 743 582 801 q 568 658 582 699 q 524 585 554 617 q 444 536 493 554 q 322 518 394 518 q 242 526 275 518 q 186 544 210 535 l 222 628 q 271 609 242 617 q 336 601 300 601 z "},"´":{"ha":331,"x_min":194,"x_max":433,"o":"m 317 1000 l 433 1000 l 426 971 l 256 793 l 194 793 l 317 1000 z "},"µ":{"ha":729,"x_min":-19,"x_max":735,"o":"m 290 694 q 238 439 257 532 q 208 296 218 346 q 197 228 199 246 q 194 199 194 210 q 306 79 194 79 q 439 125 379 79 q 535 244 499 171 l 631 694 l 735 694 l 635 226 q 615 112 624 169 q 607 0 607 54 l 536 0 l 519 103 l 514 103 q 415 19 476 54 q 274 -17 353 -17 q 181 12 211 -17 q 140 81 151 40 l 133 81 l 124 -93 l 85 -278 l -19 -278 l 186 694 l 290 694 z "},"¶":{"ha":688,"x_min":104,"x_max":621,"o":"m 525 972 l 621 972 l 621 -181 l 525 -181 l 525 972 m 308 431 q 226 453 264 431 q 162 515 189 476 q 119 602 135 553 q 104 703 104 651 q 120 803 104 754 q 167 889 136 851 q 242 949 197 926 q 342 972 286 972 l 404 972 l 404 -181 l 308 -181 l 308 431 z "},"·":{"ha":371,"x_min":136,"x_max":297,"o":"m 136 411 q 158 470 136 449 q 217 492 181 492 q 275 470 253 492 q 297 411 297 449 q 275 353 297 375 q 217 331 253 331 q 158 353 181 331 q 136 411 136 375 z "},"¸":{"ha":504,"x_min":69,"x_max":318,"o":"m 232 -60 q 294 -88 269 -64 q 318 -157 318 -112 q 274 -253 318 -215 q 143 -290 231 -290 q 108 -288 126 -290 q 69 -283 89 -286 l 93 -229 q 108 -231 100 -231 q 122 -231 115 -231 q 171 -225 151 -231 q 201 -212 190 -219 q 217 -194 213 -204 q 221 -176 221 -185 q 192 -137 221 -150 q 114 -125 163 -125 l 204 0 l 278 0 l 232 -60 z "},"¹":{"ha":524,"x_min":189,"x_max":564,"o":"m 207 613 l 347 613 l 422 965 l 442 1015 l 399 976 l 286 914 l 257 978 l 493 1121 l 547 1121 l 439 613 l 564 613 l 546 528 l 189 528 l 207 613 z "},"º":{"ha":526,"x_min":83,"x_max":504,"o":"m 83 681 q 108 819 83 761 q 169 915 132 878 q 253 971 207 953 q 343 989 299 989 q 463 946 422 989 q 504 824 504 903 q 483 692 504 749 q 427 596 463 635 q 344 537 392 557 q 243 517 296 517 q 128 560 172 517 q 83 681 83 603 m 179 692 q 199 622 179 647 q 260 597 219 597 q 316 613 289 597 q 364 656 343 628 q 397 726 385 685 q 408 818 408 767 q 387 888 408 867 q 326 908 365 908 q 270 891 297 908 q 223 844 243 874 q 191 776 203 815 q 179 692 179 736 z "},"»":{"ha":631,"x_min":53,"x_max":631,"o":"m 389 372 l 114 56 l 53 118 l 224 318 l 301 371 l 253 431 l 158 626 l 238 676 l 389 372 m 631 372 l 353 53 l 290 117 l 463 318 l 540 371 l 492 432 l 396 629 l 476 679 l 631 372 z "},"¼":{"ha":1107,"x_min":188,"x_max":1051,"o":"m 888 990 l 960 940 l 283 -17 l 211 33 l 888 990 m 1033 133 l 925 133 l 896 0 l 807 0 l 836 133 l 568 133 l 578 185 l 964 604 l 1024 604 l 942 215 l 1051 215 l 1033 133 m 890 393 l 914 461 l 911 461 l 868 397 l 735 251 l 682 208 l 750 215 l 853 215 l 890 393 m 356 826 l 376 876 l 333 838 l 221 775 l 188 843 l 428 982 l 482 982 l 356 389 l 264 389 l 356 826 z "},"½":{"ha":1124,"x_min":188,"x_max":1089,"o":"m 888 990 l 960 940 l 283 -17 l 211 33 l 888 990 m 1089 463 q 1069 373 1089 418 q 1015 283 1049 328 q 936 195 981 238 q 844 114 892 153 l 775 71 l 775 67 l 854 89 l 1036 89 l 1017 0 l 635 0 l 644 46 q 705 91 669 64 q 779 151 740 118 q 856 222 818 185 q 924 298 893 260 q 973 372 954 336 q 992 440 992 408 q 915 504 992 504 q 843 491 879 504 q 779 461 807 478 l 767 540 q 854 579 806 565 q 950 593 903 593 q 1000 587 975 593 q 1044 565 1025 581 q 1076 525 1064 550 q 1089 463 1089 500 m 356 826 l 376 876 l 333 838 l 221 775 l 188 843 l 428 982 l 482 982 l 356 389 l 264 389 l 356 826 z "},"¾":{"ha":1157,"x_min":140,"x_max":1101,"o":"m 938 990 l 1010 940 l 333 -17 l 261 33 l 938 990 m 1083 133 l 975 133 l 946 0 l 857 0 l 886 133 l 618 133 l 628 185 l 1014 604 l 1074 604 l 992 215 l 1101 215 l 1083 133 m 940 393 l 964 461 l 961 461 l 918 397 l 785 251 l 732 208 l 800 215 l 903 215 l 940 393 m 290 463 q 405 501 368 463 q 442 592 442 539 q 419 648 442 629 q 331 667 397 667 l 258 667 l 264 699 l 425 861 l 478 897 l 411 889 l 243 889 l 261 972 l 599 972 l 589 926 l 417 754 l 381 729 l 379 726 l 410 731 q 499 697 463 731 q 536 604 536 663 q 522 519 536 560 q 478 447 508 478 q 398 397 447 415 q 276 379 349 379 q 197 388 229 379 q 140 406 164 396 l 176 489 q 225 470 196 478 q 290 463 254 463 z "},"¿":{"ha":574,"x_min":-19,"x_max":486,"o":"m 425 449 q 390 327 418 379 q 325 233 363 275 q 247 154 288 190 q 172 81 206 118 q 115 1 138 43 q 92 -94 92 -40 q 120 -177 92 -149 q 219 -206 149 -206 q 315 -187 268 -206 q 403 -144 363 -168 l 431 -225 q 376 -254 403 -242 q 321 -276 350 -267 q 258 -290 292 -285 q 181 -294 224 -294 q 29 -247 78 -294 q -19 -125 -19 -200 q 4 5 -19 -50 q 64 103 28 60 q 144 183 100 146 q 227 258 188 219 q 297 342 267 297 q 336 449 326 388 l 425 449 m 325 631 q 347 690 325 668 q 406 711 369 711 q 464 690 442 711 q 486 631 486 668 q 464 572 486 594 q 406 550 442 550 q 347 572 369 550 q 325 631 325 594 z "},"À":{"ha":774,"x_min":-46,"x_max":707,"o":"m 561 269 l 222 269 l 72 0 l -46 0 l 515 988 l 567 988 l 707 0 l 600 0 l 561 269 m 276 369 l 550 369 l 510 665 l 507 813 l 506 813 l 443 663 l 276 369 m 633 1044 l 546 1044 l 367 1179 l 372 1208 l 513 1208 l 633 1044 z "},"Á":{"ha":774,"x_min":-46,"x_max":810,"o":"m 561 269 l 222 269 l 72 0 l -46 0 l 515 988 l 567 988 l 707 0 l 600 0 l 561 269 m 276 369 l 550 369 l 510 665 l 507 813 l 506 813 l 443 663 l 276 369 m 649 1208 l 810 1208 l 803 1179 l 560 1044 l 458 1044 l 649 1208 z "},"Â":{"ha":774,"x_min":-46,"x_max":749,"o":"m 561 269 l 222 269 l 72 0 l -46 0 l 515 988 l 567 988 l 707 0 l 600 0 l 561 269 m 276 369 l 550 369 l 510 665 l 507 813 l 506 813 l 443 663 l 276 369 m 544 1208 l 611 1208 l 749 1067 l 743 1038 l 649 1038 l 585 1106 l 571 1154 l 536 1107 l 438 1038 l 333 1038 l 340 1068 l 544 1208 z "},"Ã":{"ha":774,"x_min":-46,"x_max":776,"o":"m 561 269 l 222 269 l 72 0 l -46 0 l 515 988 l 567 988 l 707 0 l 600 0 l 561 269 m 276 369 l 550 369 l 510 665 l 507 813 l 506 813 l 443 663 l 276 369 m 356 1090 q 442 1151 404 1135 q 513 1167 481 1167 q 559 1160 538 1167 q 601 1144 581 1153 q 640 1128 621 1135 q 681 1121 660 1121 q 754 1150 715 1121 l 776 1090 q 698 1042 732 1054 q 636 1029 664 1029 q 590 1036 611 1029 q 549 1052 569 1043 q 510 1068 529 1061 q 469 1075 490 1075 q 426 1066 449 1075 q 375 1033 403 1057 l 356 1090 z "},"Ä":{"ha":774,"x_min":-46,"x_max":760,"o":"m 561 269 l 222 269 l 72 0 l -46 0 l 515 988 l 567 988 l 707 0 l 600 0 l 561 269 m 276 369 l 550 369 l 510 665 l 507 813 l 506 813 l 443 663 l 276 369 m 365 1103 q 385 1149 365 1131 q 436 1168 404 1168 q 487 1149 468 1168 q 506 1103 506 1131 q 487 1057 506 1075 q 436 1039 468 1039 q 385 1057 404 1039 q 365 1103 365 1075 m 619 1103 q 638 1149 619 1131 q 689 1168 657 1168 q 740 1149 721 1168 q 760 1103 760 1131 q 740 1057 760 1075 q 689 1039 721 1039 q 638 1057 657 1039 q 619 1103 619 1075 z "},"Å":{"ha":774,"x_min":-46,"x_max":707,"o":"m 411 1067 q 446 1151 411 1118 q 557 1185 481 1185 q 665 1155 626 1185 q 704 1067 704 1125 q 671 987 704 1018 q 571 951 638 956 l 707 0 l 600 0 l 561 269 l 222 269 l 72 0 l -46 0 l 499 958 q 411 1067 411 982 m 276 368 l 550 368 l 510 665 l 507 813 l 506 813 l 443 663 l 276 368 m 496 1067 q 510 1027 496 1043 q 557 1011 525 1011 q 603 1026 588 1011 q 619 1067 619 1042 q 604 1109 619 1093 q 557 1125 589 1125 q 511 1109 526 1125 q 496 1067 496 1093 z "},"Æ":{"ha":1118,"x_min":-86,"x_max":1174,"o":"m 638 832 l 567 692 l 325 374 l 543 374 l 642 832 l 638 832 m 524 274 l 247 274 l 42 0 l -86 0 l 665 972 l 1174 972 l 1153 869 l 760 869 l 692 551 l 1051 551 l 1029 449 l 671 449 l 596 103 l 996 103 l 975 0 l 576 0 l 465 0 l 524 274 z "},"Ç":{"ha":756,"x_min":99,"x_max":835,"o":"m 667 40 q 572 -3 622 10 q 456 -17 521 -15 l 422 -60 q 484 -88 460 -64 q 508 -157 508 -112 q 465 -253 508 -215 q 333 -290 421 -290 q 298 -288 317 -290 q 260 -283 279 -286 l 283 -229 q 298 -231 290 -231 q 313 -231 306 -231 q 361 -225 342 -231 q 392 -212 381 -219 q 407 -194 403 -204 q 411 -176 411 -185 q 382 -137 411 -150 q 304 -125 353 -125 l 385 -12 q 264 31 317 -3 q 174 117 211 65 q 118 235 138 168 q 99 381 99 303 q 144 652 99 538 q 265 842 190 767 q 434 953 340 917 q 624 989 528 989 q 753 978 703 989 q 835 951 803 967 l 785 850 q 712 876 757 865 q 608 886 667 886 q 459 852 531 886 q 333 754 388 818 q 247 599 279 690 q 215 393 215 507 q 233 270 215 326 q 283 173 250 214 q 363 109 315 132 q 472 86 411 86 q 581 101 538 86 q 658 135 624 115 l 667 40 z "},"È":{"ha":708,"x_min":56,"x_max":764,"o":"m 263 972 l 764 972 l 743 869 l 350 869 l 282 551 l 642 551 l 621 449 l 261 449 l 188 103 l 588 103 l 565 0 l 165 0 l 56 0 l 263 972 m 586 1044 l 499 1044 l 319 1179 l 325 1208 l 465 1208 l 586 1044 z "},"É":{"ha":708,"x_min":56,"x_max":788,"o":"m 263 972 l 764 972 l 743 869 l 350 869 l 282 551 l 642 551 l 621 449 l 261 449 l 188 103 l 588 103 l 565 0 l 165 0 l 56 0 l 263 972 m 626 1208 l 788 1208 l 781 1179 l 538 1044 l 436 1044 l 626 1208 z "},"Ê":{"ha":708,"x_min":56,"x_max":764,"o":"m 263 972 l 764 972 l 743 869 l 350 869 l 282 551 l 642 551 l 621 449 l 261 449 l 188 103 l 588 103 l 565 0 l 165 0 l 56 0 l 263 972 m 529 1208 l 596 1208 l 733 1067 l 728 1038 l 633 1038 l 569 1106 l 556 1154 l 521 1107 l 422 1038 l 318 1038 l 325 1068 l 529 1208 z "},"Ë":{"ha":708,"x_min":56,"x_max":764,"o":"m 263 972 l 764 972 l 743 869 l 350 869 l 282 551 l 642 551 l 621 449 l 261 449 l 188 103 l 588 103 l 565 0 l 165 0 l 56 0 l 263 972 m 333 1103 q 353 1149 333 1131 q 404 1168 372 1168 q 455 1149 436 1168 q 474 1103 474 1131 q 455 1057 474 1075 q 404 1039 436 1039 q 353 1057 372 1039 q 333 1103 333 1075 m 588 1103 q 606 1149 588 1131 q 657 1168 625 1168 q 708 1149 689 1168 q 728 1103 728 1131 q 708 1057 728 1075 q 657 1039 689 1039 q 606 1057 625 1039 q 588 1103 588 1075 z "},"Ì":{"ha":385,"x_min":86,"x_max":440,"o":"m 292 972 l 403 972 l 197 0 l 86 0 l 292 972 m 440 1044 l 353 1044 l 174 1179 l 179 1208 l 319 1208 l 440 1044 z "},"Í":{"ha":385,"x_min":86,"x_max":614,"o":"m 292 972 l 403 972 l 197 0 l 86 0 l 292 972 m 453 1208 l 614 1208 l 607 1179 l 364 1044 l 263 1044 l 453 1208 z "},"Î":{"ha":385,"x_min":86,"x_max":569,"o":"m 292 972 l 403 972 l 197 0 l 86 0 l 292 972 m 365 1208 l 432 1208 l 569 1067 l 564 1038 l 469 1038 l 406 1106 l 392 1154 l 357 1107 l 258 1038 l 154 1038 l 161 1068 l 365 1208 z "},"Ï":{"ha":385,"x_min":86,"x_max":565,"o":"m 292 972 l 403 972 l 197 0 l 86 0 l 292 972 m 171 1103 q 190 1149 171 1131 q 242 1168 210 1168 q 292 1149 274 1168 q 311 1103 311 1131 q 292 1057 311 1075 q 242 1039 274 1039 q 190 1057 210 1039 q 171 1103 171 1075 m 425 1103 q 444 1149 425 1131 q 494 1168 463 1168 q 546 1149 526 1168 q 565 1103 565 1131 q 546 1057 565 1075 q 494 1039 526 1039 q 444 1057 463 1039 q 425 1103 425 1075 z "},"Ð":{"ha":869,"x_min":39,"x_max":865,"o":"m 57 544 l 176 544 l 268 972 q 388 981 321 979 q 508 983 454 983 q 656 962 589 983 q 769 896 722 940 q 840 783 815 851 q 865 624 865 715 q 854 491 865 563 q 817 349 843 419 q 749 214 792 279 q 642 98 706 149 q 492 17 578 47 q 294 -12 407 -12 q 240 -12 274 -12 q 169 -10 206 -11 q 61 -1 75 -4 l 160 461 l 39 461 l 57 544 m 500 881 q 463 880 483 881 q 422 878 442 879 q 385 876 403 878 q 357 874 367 875 l 288 544 l 478 544 l 461 461 l 269 461 l 193 96 q 215 94 199 94 q 251 92 232 93 q 287 91 269 92 q 311 90 304 90 q 515 140 432 90 q 649 267 597 190 q 725 435 701 343 q 749 608 749 526 q 735 721 749 671 q 691 806 721 771 q 614 861 661 842 q 500 881 567 881 z "},"Ñ":{"ha":892,"x_min":56,"x_max":928,"o":"m 363 636 l 315 779 l 311 779 l 294 636 l 160 0 l 56 0 l 265 988 l 321 988 l 624 338 l 669 201 l 675 201 l 688 338 l 824 972 l 928 972 l 718 -15 l 667 -15 l 363 636 m 401 1090 q 488 1151 450 1135 q 558 1167 526 1167 q 605 1160 583 1167 q 647 1144 626 1153 q 686 1128 667 1135 q 726 1121 706 1121 q 800 1150 761 1121 l 822 1090 q 744 1042 778 1054 q 682 1029 710 1029 q 636 1036 657 1029 q 595 1052 615 1043 q 556 1068 575 1061 q 515 1075 536 1075 q 472 1066 494 1075 q 421 1033 449 1057 l 401 1090 z "},"Ò":{"ha":904,"x_min":99,"x_max":899,"o":"m 99 356 q 133 599 99 483 q 233 801 168 714 q 388 938 297 888 q 590 989 479 989 q 714 969 657 989 q 812 905 771 949 q 876 792 853 861 q 899 622 899 722 q 864 376 899 492 q 767 172 829 260 q 617 34 704 85 q 426 -17 531 -17 q 181 78 263 -17 q 99 356 99 174 m 215 357 q 269 155 215 226 q 429 83 324 83 q 572 126 507 83 q 683 243 636 169 q 756 414 731 317 q 782 619 782 511 q 764 753 782 700 q 716 835 746 806 q 648 877 686 865 q 571 889 610 889 q 426 845 492 889 q 315 728 361 801 q 242 558 268 654 q 215 357 215 461 m 699 1044 l 611 1044 l 432 1179 l 438 1208 l 578 1208 l 699 1044 z "},"Ó":{"ha":904,"x_min":99,"x_max":900,"o":"m 99 356 q 133 599 99 483 q 233 801 168 714 q 388 938 297 888 q 590 989 479 989 q 714 969 657 989 q 812 905 771 949 q 876 792 853 861 q 899 622 899 722 q 864 376 899 492 q 767 172 829 260 q 617 34 704 85 q 426 -17 531 -17 q 181 78 263 -17 q 99 356 99 174 m 215 357 q 269 155 215 226 q 429 83 324 83 q 572 126 507 83 q 683 243 636 169 q 756 414 731 317 q 782 619 782 511 q 764 753 782 700 q 716 835 746 806 q 648 877 686 865 q 571 889 610 889 q 426 845 492 889 q 315 728 361 801 q 242 558 268 654 q 215 357 215 461 m 739 1208 l 900 1208 l 893 1179 l 650 1044 l 549 1044 l 739 1208 z "},"Ô":{"ha":904,"x_min":99,"x_max":899,"o":"m 99 356 q 133 599 99 483 q 233 801 168 714 q 388 938 297 888 q 590 989 479 989 q 714 969 657 989 q 812 905 771 949 q 876 792 853 861 q 899 622 899 722 q 864 376 899 492 q 767 172 829 260 q 617 34 704 85 q 426 -17 531 -17 q 181 78 263 -17 q 99 356 99 174 m 215 357 q 269 155 215 226 q 429 83 324 83 q 572 126 507 83 q 683 243 636 169 q 756 414 731 317 q 782 619 782 511 q 764 753 782 700 q 716 835 746 806 q 648 877 686 865 q 571 889 610 889 q 426 845 492 889 q 315 728 361 801 q 242 558 268 654 q 215 357 215 461 m 621 1208 l 688 1208 l 825 1067 l 819 1038 l 725 1038 l 661 1106 l 647 1154 l 613 1107 l 514 1038 l 410 1038 l 417 1068 l 621 1208 z "},"Õ":{"ha":904,"x_min":99,"x_max":899,"o":"m 99 356 q 133 599 99 483 q 233 801 168 714 q 388 938 297 888 q 590 989 479 989 q 714 969 657 989 q 812 905 771 949 q 876 792 853 861 q 899 622 899 722 q 864 376 899 492 q 767 172 829 260 q 617 34 704 85 q 426 -17 531 -17 q 181 78 263 -17 q 99 356 99 174 m 215 357 q 269 155 215 226 q 429 83 324 83 q 572 126 507 83 q 683 243 636 169 q 756 414 731 317 q 782 619 782 511 q 764 753 782 700 q 716 835 746 806 q 648 877 686 865 q 571 889 610 889 q 426 845 492 889 q 315 728 361 801 q 242 558 268 654 q 215 357 215 461 m 414 1090 q 501 1151 463 1135 q 571 1167 539 1167 q 617 1160 596 1167 q 659 1144 639 1153 q 699 1128 679 1135 q 739 1121 718 1121 q 813 1150 774 1121 l 835 1090 q 756 1042 790 1054 q 694 1029 722 1029 q 649 1036 669 1029 q 608 1052 628 1043 q 568 1068 588 1061 q 528 1075 549 1075 q 484 1066 507 1075 q 433 1033 461 1057 l 414 1090 z "},"Ö":{"ha":904,"x_min":99,"x_max":899,"o":"m 99 356 q 133 599 99 483 q 233 801 168 714 q 388 938 297 888 q 590 989 479 989 q 714 969 657 989 q 812 905 771 949 q 876 792 853 861 q 899 622 899 722 q 864 376 899 492 q 767 172 829 260 q 617 34 704 85 q 426 -17 531 -17 q 181 78 263 -17 q 99 356 99 174 m 215 357 q 269 155 215 226 q 429 83 324 83 q 572 126 507 83 q 683 243 636 169 q 756 414 731 317 q 782 619 782 511 q 764 753 782 700 q 716 835 746 806 q 648 877 686 865 q 571 889 610 889 q 426 845 492 889 q 315 728 361 801 q 242 558 268 654 q 215 357 215 461 m 426 1103 q 446 1149 426 1131 q 497 1168 465 1168 q 548 1149 529 1168 q 567 1103 567 1131 q 548 1057 567 1075 q 497 1039 529 1039 q 446 1057 465 1039 q 426 1103 426 1075 m 681 1103 q 699 1149 681 1131 q 750 1168 718 1168 q 801 1149 782 1168 q 821 1103 821 1131 q 801 1057 821 1075 q 750 1039 782 1039 q 699 1057 718 1039 q 681 1103 681 1075 z "},"×":{"ha":667,"x_min":121,"x_max":615,"o":"m 192 718 l 368 542 l 544 718 l 615 644 l 440 471 l 615 294 l 544 222 l 368 399 l 193 221 l 121 292 l 297 471 l 121 644 l 192 718 z "},"Ø":{"ha":904,"x_min":99,"x_max":899,"o":"m 99 356 q 133 599 99 483 q 233 801 168 714 q 388 938 297 888 q 590 989 479 989 q 692 976 644 989 q 778 935 740 963 l 818 989 l 886 936 l 838 871 q 883 767 867 828 q 899 622 899 706 q 864 376 899 492 q 767 172 829 260 q 617 34 704 85 q 426 -17 531 -17 q 225 39 304 -17 l 185 -15 l 115 39 l 163 103 q 99 356 99 193 m 215 357 q 240 207 215 269 l 708 840 q 644 878 679 867 q 571 889 608 889 q 426 845 492 889 q 315 728 361 801 q 242 558 268 654 q 215 357 215 461 m 782 619 q 776 700 782 664 q 760 764 771 736 l 292 131 q 429 83 346 83 q 572 126 507 83 q 683 243 636 169 q 756 414 731 317 q 782 619 782 511 z "},"Ù":{"ha":858,"x_min":121,"x_max":901,"o":"m 796 972 l 901 972 l 765 324 q 717 171 746 235 q 644 67 688 107 q 539 7 600 26 q 397 -12 478 -12 q 268 5 321 -12 q 183 53 215 22 q 135 130 150 85 q 121 229 121 175 q 136 358 121 286 l 265 972 l 376 972 l 247 357 q 232 246 232 296 q 278 124 232 158 q 414 90 324 90 q 509 106 468 90 q 580 153 550 121 q 630 235 610 185 q 665 356 650 285 l 796 972 m 693 1044 l 606 1044 l 426 1179 l 432 1208 l 572 1208 l 693 1044 z "},"Ú":{"ha":858,"x_min":121,"x_max":901,"o":"m 796 972 l 901 972 l 765 324 q 717 171 746 235 q 644 67 688 107 q 539 7 600 26 q 397 -12 478 -12 q 268 5 321 -12 q 183 53 215 22 q 135 130 150 85 q 121 229 121 175 q 136 358 121 286 l 265 972 l 376 972 l 247 357 q 232 246 232 296 q 278 124 232 158 q 414 90 324 90 q 509 106 468 90 q 580 153 550 121 q 630 235 610 185 q 665 356 650 285 l 796 972 m 706 1208 l 867 1208 l 860 1179 l 617 1044 l 515 1044 l 706 1208 z "},"Û":{"ha":858,"x_min":121,"x_max":901,"o":"m 796 972 l 901 972 l 765 324 q 717 171 746 235 q 644 67 688 107 q 539 7 600 26 q 397 -12 478 -12 q 268 5 321 -12 q 183 53 215 22 q 135 130 150 85 q 121 229 121 175 q 136 358 121 286 l 265 972 l 376 972 l 247 357 q 232 246 232 296 q 278 124 232 158 q 414 90 324 90 q 509 106 468 90 q 580 153 550 121 q 630 235 610 185 q 665 356 650 285 l 796 972 m 603 1208 l 669 1208 l 807 1067 l 801 1038 l 707 1038 l 643 1106 l 629 1154 l 594 1107 l 496 1038 l 392 1038 l 399 1068 l 603 1208 z "},"Ü":{"ha":858,"x_min":121,"x_max":901,"o":"m 796 972 l 901 972 l 765 324 q 717 171 746 235 q 644 67 688 107 q 539 7 600 26 q 397 -12 478 -12 q 268 5 321 -12 q 183 53 215 22 q 135 130 150 85 q 121 229 121 175 q 136 358 121 286 l 265 972 l 376 972 l 247 357 q 232 246 232 296 q 278 124 232 158 q 414 90 324 90 q 509 106 468 90 q 580 153 550 121 q 630 235 610 185 q 665 356 650 285 l 796 972 m 411 1103 q 431 1149 411 1131 q 482 1168 450 1168 q 533 1149 514 1168 q 551 1103 551 1131 q 533 1057 551 1075 q 482 1039 514 1039 q 431 1057 450 1039 q 411 1103 411 1075 m 665 1103 q 684 1149 665 1131 q 735 1168 703 1168 q 786 1149 767 1168 q 806 1103 806 1131 q 786 1057 806 1075 q 735 1039 767 1039 q 684 1057 703 1039 q 665 1103 665 1075 z "},"Ý":{"ha":738,"x_min":150,"x_max":868,"o":"m 335 386 l 150 972 l 271 972 l 394 547 l 399 463 l 400 463 l 442 550 l 743 972 l 868 972 l 446 388 l 364 0 l 253 0 l 335 386 m 658 1208 l 819 1208 l 813 1179 l 569 1044 l 468 1044 l 658 1208 z "},"Þ":{"ha":739,"x_min":56,"x_max":763,"o":"m 263 972 l 372 972 l 350 868 q 463 872 406 872 q 581 858 526 872 q 675 814 635 844 q 739 735 715 783 q 763 621 763 688 q 725 444 763 515 q 625 331 688 374 q 485 269 563 288 q 328 251 407 251 q 306 251 321 251 q 275 252 292 251 q 243 254 258 253 q 221 257 228 256 l 167 0 l 56 0 l 263 972 m 439 771 q 377 769 407 771 q 328 763 347 767 l 243 360 q 262 356 249 357 q 290 354 275 356 q 318 353 304 353 q 339 353 332 353 q 454 365 399 353 q 553 408 510 378 q 621 487 596 438 q 646 610 646 536 q 629 691 646 660 q 584 740 613 722 q 518 764 556 757 q 439 771 481 771 z "},"ß":{"ha":776,"x_min":-158,"x_max":749,"o":"m 242 733 q 345 923 269 865 q 536 981 421 981 q 635 967 594 981 q 700 930 675 953 q 737 877 725 907 q 749 817 749 847 q 731 735 749 768 q 688 676 714 701 q 632 633 663 651 q 576 595 601 614 q 533 556 550 576 q 515 506 515 535 q 531 463 515 479 q 572 435 547 447 q 624 409 596 422 q 677 375 653 396 q 717 323 701 354 q 733 242 733 292 q 709 140 733 188 q 644 58 685 93 q 548 3 603 24 q 432 -17 493 -17 q 342 -8 383 -17 q 267 22 300 1 l 317 115 q 443 81 372 81 q 504 91 472 81 q 562 121 536 101 q 605 169 588 140 q 622 235 622 197 q 606 288 622 267 q 566 324 590 308 q 514 352 542 339 q 461 384 486 365 q 420 431 436 403 q 404 501 404 458 q 422 572 404 543 q 465 625 439 601 q 522 668 492 649 q 579 707 553 688 q 622 749 606 726 q 638 800 638 771 q 607 863 638 842 q 521 883 576 883 q 338 692 369 885 l 204 0 q 175 -131 192 -76 q 133 -220 158 -185 q 72 -272 108 -256 q -15 -289 36 -289 q -92 -283 -57 -289 q -158 -261 -128 -276 l -128 -183 q -77 -196 -100 -193 q -21 -199 -54 -199 q 58 -144 32 -199 q 100 0 85 -90 l 214 606 l 94 606 l 113 694 l 232 694 l 242 733 l 242 733 z "},"à":{"ha":676,"x_min":63,"x_max":663,"o":"m 575 274 q 560 169 564 222 q 556 71 556 117 q 556 31 556 50 q 558 -3 556 13 l 481 -3 l 461 118 l 456 118 q 415 70 439 94 q 361 26 390 46 q 299 -5 332 7 q 228 -17 265 -17 q 63 199 63 -17 q 85 379 63 288 q 156 544 108 471 q 280 665 204 618 q 463 713 356 713 q 558 703 501 713 q 663 679 614 694 l 575 274 m 260 72 q 324 88 293 72 q 381 128 354 104 q 429 178 408 151 q 463 229 450 206 l 540 604 q 435 624 499 624 q 322 586 371 624 q 240 488 274 549 q 190 351 207 428 q 174 199 174 275 q 194 109 174 146 q 260 72 215 72 m 499 793 l 439 793 l 326 971 l 332 1000 l 458 1000 l 499 793 z "},"á":{"ha":676,"x_min":63,"x_max":663,"o":"m 575 274 q 560 169 564 222 q 556 71 556 117 q 556 31 556 50 q 558 -3 556 13 l 481 -3 l 461 118 l 456 118 q 415 70 439 94 q 361 26 390 46 q 299 -5 332 7 q 228 -17 265 -17 q 63 199 63 -17 q 85 379 63 288 q 156 544 108 471 q 280 665 204 618 q 463 713 356 713 q 558 703 501 713 q 663 679 614 694 l 575 274 m 260 72 q 324 88 293 72 q 381 128 354 104 q 429 178 408 151 q 463 229 450 206 l 540 604 q 435 624 499 624 q 322 586 371 624 q 240 488 274 549 q 190 351 207 428 q 174 199 174 275 q 194 109 174 146 q 260 72 215 72 m 544 1000 l 661 1000 l 654 971 l 483 793 l 422 793 l 544 1000 z "},"â":{"ha":676,"x_min":63,"x_max":663,"o":"m 575 274 q 560 169 564 222 q 556 71 556 117 q 556 31 556 50 q 558 -3 556 13 l 481 -3 l 461 118 l 456 118 q 415 70 439 94 q 361 26 390 46 q 299 -5 332 7 q 228 -17 265 -17 q 63 199 63 -17 q 85 379 63 288 q 156 544 108 471 q 280 665 204 618 q 463 713 356 713 q 558 703 501 713 q 663 679 614 694 l 575 274 m 260 72 q 324 88 293 72 q 381 128 354 104 q 429 178 408 151 q 463 229 450 206 l 540 604 q 435 624 499 624 q 322 586 371 624 q 240 488 274 549 q 190 351 207 428 q 174 199 174 275 q 194 109 174 146 q 260 72 215 72 m 497 1017 l 539 1017 l 631 764 l 543 764 l 510 856 l 501 936 l 454 856 l 375 764 l 281 764 l 497 1017 z "},"ã":{"ha":676,"x_min":63,"x_max":669,"o":"m 575 274 q 560 169 564 222 q 556 71 556 117 q 556 31 556 50 q 558 -3 556 13 l 481 -3 l 461 118 l 456 118 q 415 70 439 94 q 361 26 390 46 q 299 -5 332 7 q 228 -17 265 -17 q 63 199 63 -17 q 85 379 63 288 q 156 544 108 471 q 280 665 204 618 q 463 713 356 713 q 558 703 501 713 q 663 679 614 694 l 575 274 m 260 72 q 324 88 293 72 q 381 128 354 104 q 429 178 408 151 q 463 229 450 206 l 540 604 q 435 624 499 624 q 322 586 371 624 q 240 488 274 549 q 190 351 207 428 q 174 199 174 275 q 194 109 174 146 q 260 72 215 72 m 301 911 q 378 974 346 957 q 436 992 411 992 q 474 983 457 992 q 506 963 490 974 q 538 944 522 953 q 574 936 554 936 q 649 969 606 936 l 669 910 q 600 854 629 869 q 547 839 571 839 q 510 847 526 839 q 477 866 493 856 q 444 885 461 876 q 407 893 428 893 q 368 884 389 893 q 319 853 347 875 l 301 911 z "},"ä":{"ha":676,"x_min":63,"x_max":663,"o":"m 575 274 q 560 169 564 222 q 556 71 556 117 q 556 31 556 50 q 558 -3 556 13 l 481 -3 l 461 118 l 456 118 q 415 70 439 94 q 361 26 390 46 q 299 -5 332 7 q 228 -17 265 -17 q 63 199 63 -17 q 85 379 63 288 q 156 544 108 471 q 280 665 204 618 q 463 713 356 713 q 558 703 501 713 q 663 679 614 694 l 575 274 m 260 72 q 324 88 293 72 q 381 128 354 104 q 429 178 408 151 q 463 229 450 206 l 540 604 q 435 624 499 624 q 322 586 371 624 q 240 488 274 549 q 190 351 207 428 q 174 199 174 275 q 194 109 174 146 q 260 72 215 72 m 257 907 q 274 958 257 938 q 321 978 292 978 q 368 958 350 978 q 386 907 386 938 q 368 859 386 879 q 321 839 350 839 q 274 859 292 839 q 257 907 257 879 m 511 908 q 528 958 511 938 q 575 978 546 978 q 623 958 606 978 q 640 908 640 938 q 623 859 640 879 q 575 839 606 839 q 528 859 546 839 q 511 908 511 879 z "},"å":{"ha":676,"x_min":63,"x_max":663,"o":"m 575 274 q 560 169 564 222 q 556 71 556 117 q 556 31 556 50 q 558 -3 556 13 l 481 -3 l 461 118 l 456 118 q 415 70 439 94 q 361 26 390 46 q 299 -5 332 7 q 228 -17 265 -17 q 63 199 63 -17 q 85 379 63 288 q 156 544 108 471 q 280 665 204 618 q 463 713 356 713 q 558 703 501 713 q 663 679 614 694 l 575 274 m 260 72 q 324 88 293 72 q 381 128 354 104 q 429 178 408 151 q 463 229 450 206 l 540 604 q 435 624 499 624 q 322 586 371 624 q 240 488 274 549 q 190 351 207 428 q 174 199 174 275 q 194 109 174 146 q 260 72 215 72 m 349 893 q 385 985 349 951 q 483 1019 422 1019 q 581 989 542 1019 q 619 893 619 958 q 581 803 619 839 q 483 768 542 768 q 387 801 425 768 q 349 893 349 833 m 424 893 q 442 850 424 865 q 483 835 461 835 q 527 849 510 835 q 544 893 544 863 q 526 938 544 924 q 483 953 507 953 q 442 939 460 953 q 424 893 424 925 z "},"æ":{"ha":1047,"x_min":39,"x_max":1035,"o":"m 244 78 q 316 96 282 78 q 378 138 350 114 q 426 187 406 163 q 456 226 446 211 l 467 321 q 435 323 451 322 q 403 324 418 324 q 303 315 350 324 q 223 289 257 307 q 169 244 189 271 q 150 178 150 217 q 174 101 150 125 q 244 78 199 78 m 461 121 q 351 28 417 67 q 206 -11 285 -11 q 131 3 163 -11 q 79 40 100 17 q 49 92 58 63 q 39 154 39 122 q 69 273 39 225 q 152 349 100 321 q 274 390 204 378 q 419 403 343 403 q 451 403 435 403 q 482 401 467 403 q 510 536 510 492 q 483 599 510 581 q 396 617 457 617 q 347 613 374 617 q 292 603 319 610 q 238 587 264 596 q 192 568 213 578 l 175 651 q 302 694 233 683 q 442 706 371 706 q 551 682 508 706 q 603 614 593 658 q 710 688 647 665 q 832 711 774 711 q 985 666 935 711 q 1035 554 1035 621 q 1001 436 1035 481 q 906 367 967 392 q 758 333 844 342 q 569 322 672 324 q 563 278 565 299 q 560 238 560 257 q 599 117 560 161 q 731 72 638 72 q 823 90 775 72 q 900 128 871 107 l 924 53 q 812 1 876 19 q 681 -17 747 -17 q 545 20 600 -17 q 471 121 490 57 l 461 121 m 815 622 q 674 567 731 622 q 586 407 617 511 q 716 410 654 407 q 825 427 778 414 q 900 467 872 440 q 928 539 928 493 q 905 598 928 574 q 815 622 882 622 z "},"ç":{"ha":583,"x_min":69,"x_max":601,"o":"m 507 60 q 422 9 471 29 q 328 -17 372 -11 l 293 -60 q 355 -88 331 -64 q 379 -157 379 -112 q 335 -253 379 -215 q 204 -290 292 -290 q 169 -288 188 -290 q 131 -283 150 -286 l 154 -229 q 169 -231 161 -231 q 183 -231 176 -231 q 232 -225 213 -231 q 263 -212 251 -219 q 278 -194 274 -204 q 282 -176 282 -185 q 253 -137 282 -150 q 175 -125 224 -125 l 254 -17 q 163 13 199 -11 q 106 69 126 36 q 77 138 85 101 q 69 206 69 174 q 101 417 69 324 q 187 576 133 511 q 310 676 240 642 q 453 711 379 711 q 540 701 506 711 q 601 679 574 692 l 563 593 q 504 615 539 607 q 429 622 469 622 q 337 590 382 622 q 257 506 292 558 q 201 387 222 454 q 181 249 181 319 q 218 115 181 158 q 319 72 256 72 q 407 91 361 72 q 481 129 453 110 l 507 60 z "},"è":{"ha":643,"x_min":69,"x_max":632,"o":"m 540 68 q 426 5 492 26 q 293 -17 360 -17 q 126 47 182 -17 q 69 225 69 111 q 101 429 69 339 q 185 582 133 519 q 303 678 238 644 q 439 711 369 711 q 526 697 489 711 q 586 660 563 683 q 621 608 610 638 q 632 544 632 578 q 536 390 632 446 q 257 333 440 333 q 222 334 240 333 q 185 336 204 335 q 176 286 179 310 q 174 244 174 263 q 208 120 174 168 q 317 72 243 72 q 428 92 378 72 q 507 135 479 113 l 540 68 m 422 622 q 290 570 346 622 q 204 414 233 518 q 314 417 257 414 q 417 431 371 419 q 494 469 464 443 q 525 540 525 494 q 520 569 525 554 q 504 595 515 583 q 473 615 493 607 q 422 622 453 622 m 476 793 l 417 793 l 304 971 l 310 1000 l 436 1000 l 476 793 z "},"é":{"ha":643,"x_min":69,"x_max":636,"o":"m 540 68 q 426 5 492 26 q 293 -17 360 -17 q 126 47 182 -17 q 69 225 69 111 q 101 429 69 339 q 185 582 133 519 q 303 678 238 644 q 439 711 369 711 q 526 697 489 711 q 586 660 563 683 q 621 608 610 638 q 632 544 632 578 q 536 390 632 446 q 257 333 440 333 q 222 334 240 333 q 185 336 204 335 q 176 286 179 310 q 174 244 174 263 q 208 120 174 168 q 317 72 243 72 q 428 92 378 72 q 507 135 479 113 l 540 68 m 422 622 q 290 570 346 622 q 204 414 233 518 q 314 417 257 414 q 417 431 371 419 q 494 469 464 443 q 525 540 525 494 q 520 569 525 554 q 504 595 515 583 q 473 615 493 607 q 422 622 453 622 m 519 1000 l 636 1000 l 629 971 l 458 793 l 397 793 l 519 1000 z "},"ê":{"ha":643,"x_min":69,"x_max":632,"o":"m 540 68 q 426 5 492 26 q 293 -17 360 -17 q 126 47 182 -17 q 69 225 69 111 q 101 429 69 339 q 185 582 133 519 q 303 678 238 644 q 439 711 369 711 q 526 697 489 711 q 586 660 563 683 q 621 608 610 638 q 632 544 632 578 q 536 390 632 446 q 257 333 440 333 q 222 334 240 333 q 185 336 204 335 q 176 286 179 310 q 174 244 174 263 q 208 120 174 168 q 317 72 243 72 q 428 92 378 72 q 507 135 479 113 l 540 68 m 422 622 q 290 570 346 622 q 204 414 233 518 q 314 417 257 414 q 417 431 371 419 q 494 469 464 443 q 525 540 525 494 q 520 569 525 554 q 504 595 515 583 q 473 615 493 607 q 422 622 453 622 m 476 1017 l 518 1017 l 610 764 l 522 764 l 489 856 l 481 936 l 433 856 l 354 764 l 260 764 l 476 1017 z "},"ë":{"ha":643,"x_min":69,"x_max":654,"o":"m 540 68 q 426 5 492 26 q 293 -17 360 -17 q 126 47 182 -17 q 69 225 69 111 q 101 429 69 339 q 185 582 133 519 q 303 678 238 644 q 439 711 369 711 q 526 697 489 711 q 586 660 563 683 q 621 608 610 638 q 632 544 632 578 q 536 390 632 446 q 257 333 440 333 q 222 334 240 333 q 185 336 204 335 q 176 286 179 310 q 174 244 174 263 q 208 120 174 168 q 317 72 243 72 q 428 92 378 72 q 507 135 479 113 l 540 68 m 422 622 q 290 570 346 622 q 204 414 233 518 q 314 417 257 414 q 417 431 371 419 q 494 469 464 443 q 525 540 525 494 q 520 569 525 554 q 504 595 515 583 q 473 615 493 607 q 422 622 453 622 m 271 907 q 288 958 271 938 q 335 978 306 978 q 382 958 364 978 q 400 907 400 938 q 382 859 400 879 q 335 839 364 839 q 288 859 306 839 q 271 907 271 879 m 525 908 q 542 958 525 938 q 589 978 560 978 q 637 958 619 978 q 654 908 654 938 q 637 859 654 879 q 589 839 619 839 q 542 859 560 839 q 525 908 525 879 z "},"ì":{"ha":360,"x_min":75,"x_max":344,"o":"m 222 694 l 326 694 l 179 0 l 75 0 l 222 694 m 344 793 l 285 793 l 172 971 l 178 1000 l 304 1000 l 344 793 z "},"í":{"ha":360,"x_min":75,"x_max":483,"o":"m 222 694 l 326 694 l 179 0 l 75 0 l 222 694 m 367 1000 l 483 1000 l 476 971 l 306 793 l 244 793 l 367 1000 z "},"î":{"ha":360,"x_min":75,"x_max":458,"o":"m 222 694 l 326 694 l 179 0 l 75 0 l 222 694 m 325 1017 l 367 1017 l 458 764 l 371 764 l 338 856 l 329 936 l 282 856 l 203 764 l 108 764 l 325 1017 z "},"ï":{"ha":360,"x_min":75,"x_max":507,"o":"m 222 694 l 326 694 l 179 0 l 75 0 l 222 694 m 124 907 q 141 958 124 938 q 188 978 158 978 q 235 958 217 978 q 253 907 253 938 q 235 859 253 879 q 188 839 217 839 q 141 859 158 839 q 124 907 124 879 m 378 908 q 395 958 378 938 q 442 978 413 978 q 490 958 472 978 q 507 908 507 938 q 490 859 507 879 q 442 839 472 839 q 395 859 413 839 q 378 908 378 879 z "},"ð":{"ha":689,"x_min":71,"x_max":711,"o":"m 383 826 l 492 874 q 444 920 469 901 q 390 951 418 939 l 472 989 q 578 911 536 963 l 683 957 l 711 900 l 613 857 q 647 757 635 813 q 660 633 660 701 q 627 335 660 458 q 542 134 594 213 q 422 19 489 56 q 288 -17 356 -17 q 192 1 233 -17 q 124 51 151 19 q 84 125 97 82 q 71 217 71 168 q 97 401 71 313 q 169 558 122 489 q 281 667 217 626 q 422 708 344 708 q 511 692 482 708 q 561 653 540 676 q 526 819 563 750 l 414 771 l 383 826 m 181 228 q 213 113 181 153 q 293 72 244 72 q 416 122 367 72 q 495 242 465 171 q 537 392 525 313 q 549 531 549 471 q 502 594 538 571 q 418 618 467 618 q 322 582 365 618 q 247 489 278 546 q 198 363 215 432 q 181 228 181 294 z "},"ñ":{"ha":725,"x_min":36,"x_max":674,"o":"m 446 0 l 539 439 q 549 488 544 464 q 553 532 553 513 q 534 597 553 572 q 464 622 515 622 q 393 606 428 622 q 328 563 358 589 q 273 506 297 538 q 232 444 249 475 l 140 0 l 36 0 l 183 694 l 256 694 l 250 575 l 256 575 q 299 622 274 597 q 355 665 324 646 q 425 698 386 685 q 511 711 464 711 q 621 678 581 711 q 661 561 661 644 q 649 461 661 519 l 550 0 l 446 0 m 306 911 q 383 974 350 957 q 440 992 415 992 q 478 983 461 992 q 510 963 494 974 q 542 944 526 953 q 578 936 558 936 q 653 969 610 936 l 674 910 q 604 854 633 869 q 551 839 575 839 q 514 847 531 839 q 481 866 497 856 q 449 885 465 876 q 411 893 432 893 q 372 884 393 893 q 324 853 351 875 l 306 911 z "},"ò":{"ha":692,"x_min":69,"x_max":647,"o":"m 69 217 q 98 417 69 326 q 176 574 126 508 q 292 675 226 639 q 433 711 358 711 q 533 692 492 711 q 599 641 574 674 q 636 566 625 608 q 647 478 647 524 q 620 283 647 374 q 545 126 593 193 q 433 22 497 60 q 294 -17 369 -17 q 190 3 232 -17 q 120 57 147 24 q 81 132 93 90 q 69 217 69 174 m 181 242 q 211 116 181 160 q 308 72 242 72 q 395 105 354 72 q 467 193 436 138 q 517 320 499 249 q 536 469 536 392 q 510 581 536 540 q 413 622 485 622 q 325 591 367 622 q 251 507 283 560 q 199 385 218 454 q 181 242 181 317 m 493 793 l 433 793 l 321 971 l 326 1000 l 453 1000 l 493 793 z "},"ó":{"ha":692,"x_min":69,"x_max":647,"o":"m 69 217 q 98 417 69 326 q 176 574 126 508 q 292 675 226 639 q 433 711 358 711 q 533 692 492 711 q 599 641 574 674 q 636 566 625 608 q 647 478 647 524 q 620 283 647 374 q 545 126 593 193 q 433 22 497 60 q 294 -17 369 -17 q 190 3 232 -17 q 120 57 147 24 q 81 132 93 90 q 69 217 69 174 m 181 242 q 211 116 181 160 q 308 72 242 72 q 395 105 354 72 q 467 193 436 138 q 517 320 499 249 q 536 469 536 392 q 510 581 536 540 q 413 622 485 622 q 325 591 367 622 q 251 507 283 560 q 199 385 218 454 q 181 242 181 317 m 522 1000 l 639 1000 l 632 971 l 461 793 l 400 793 l 522 1000 z "},"ô":{"ha":692,"x_min":69,"x_max":647,"o":"m 69 217 q 98 417 69 326 q 176 574 126 508 q 292 675 226 639 q 433 711 358 711 q 533 692 492 711 q 599 641 574 674 q 636 566 625 608 q 647 478 647 524 q 620 283 647 374 q 545 126 593 193 q 433 22 497 60 q 294 -17 369 -17 q 190 3 232 -17 q 120 57 147 24 q 81 132 93 90 q 69 217 69 174 m 181 242 q 211 116 181 160 q 308 72 242 72 q 395 105 354 72 q 467 193 436 138 q 517 320 499 249 q 536 469 536 392 q 510 581 536 540 q 413 622 485 622 q 325 591 367 622 q 251 507 283 560 q 199 385 218 454 q 181 242 181 317 m 476 1017 l 518 1017 l 610 764 l 522 764 l 489 856 l 481 936 l 433 856 l 354 764 l 260 764 l 476 1017 z "},"õ":{"ha":692,"x_min":69,"x_max":647,"o":"m 69 217 q 98 417 69 326 q 176 574 126 508 q 292 675 226 639 q 433 711 358 711 q 533 692 492 711 q 599 641 574 674 q 636 566 625 608 q 647 478 647 524 q 620 283 647 374 q 545 126 593 193 q 433 22 497 60 q 294 -17 369 -17 q 190 3 232 -17 q 120 57 147 24 q 81 132 93 90 q 69 217 69 174 m 181 242 q 211 116 181 160 q 308 72 242 72 q 395 105 354 72 q 467 193 436 138 q 517 320 499 249 q 536 469 536 392 q 510 581 536 540 q 413 622 485 622 q 325 591 367 622 q 251 507 283 560 q 199 385 218 454 q 181 242 181 317 m 271 911 q 348 974 315 957 q 406 992 381 992 q 443 983 426 992 q 476 963 460 974 q 508 944 492 953 q 543 936 524 936 q 618 969 575 936 l 639 910 q 569 854 599 869 q 517 839 540 839 q 479 847 496 839 q 447 866 463 856 q 414 885 431 876 q 376 893 397 893 q 338 884 358 893 q 289 853 317 875 l 271 911 z "},"ö":{"ha":692,"x_min":69,"x_max":647,"o":"m 69 217 q 98 417 69 326 q 176 574 126 508 q 292 675 226 639 q 433 711 358 711 q 533 692 492 711 q 599 641 574 674 q 636 566 625 608 q 647 478 647 524 q 620 283 647 374 q 545 126 593 193 q 433 22 497 60 q 294 -17 369 -17 q 190 3 232 -17 q 120 57 147 24 q 81 132 93 90 q 69 217 69 174 m 181 242 q 211 116 181 160 q 308 72 242 72 q 395 105 354 72 q 467 193 436 138 q 517 320 499 249 q 536 469 536 392 q 510 581 536 540 q 413 622 485 622 q 325 591 367 622 q 251 507 283 560 q 199 385 218 454 q 181 242 181 317 m 263 907 q 280 958 263 938 q 326 978 297 978 q 374 958 356 978 q 392 907 392 938 q 374 859 392 879 q 326 839 356 839 q 280 859 297 839 q 263 907 263 879 m 517 908 q 534 958 517 938 q 581 978 551 978 q 628 958 611 978 q 646 908 646 938 q 628 859 646 879 q 581 839 611 839 q 534 859 551 839 q 517 908 517 879 z "},"÷":{"ha":667,"x_min":76,"x_max":665,"o":"m 76 519 l 665 519 l 665 419 l 76 419 l 76 519 m 292 729 q 314 788 292 767 q 372 810 336 810 q 431 788 408 810 q 453 729 453 767 q 431 671 453 693 q 372 649 408 649 q 314 671 336 649 q 292 729 292 693 m 292 210 q 314 269 292 247 q 372 290 336 290 q 431 269 408 290 q 453 210 453 247 q 431 151 453 174 q 372 129 408 129 q 314 151 336 129 q 292 210 292 174 z "},"ø":{"ha":692,"x_min":18,"x_max":686,"o":"m 69 217 q 98 417 69 326 q 176 574 126 508 q 292 675 226 639 q 433 711 358 711 q 518 698 482 711 q 581 661 554 685 l 631 715 l 686 664 l 625 594 q 642 539 636 568 q 647 478 647 510 q 620 283 647 374 q 545 126 593 193 q 433 22 497 60 q 294 -17 369 -17 q 199 -1 239 -17 q 132 43 160 15 l 76 -19 l 18 33 l 88 111 q 69 217 69 160 m 536 469 q 536 483 536 476 q 535 497 536 490 l 203 128 q 308 72 235 72 q 395 105 354 72 q 467 193 436 138 q 517 320 499 249 q 536 469 536 392 m 181 242 q 181 225 181 233 q 182 208 181 217 l 513 578 q 413 622 483 622 q 325 591 367 622 q 251 507 283 560 q 199 385 218 454 q 181 242 181 317 z "},"ù":{"ha":710,"x_min":83,"x_max":690,"o":"m 296 694 l 199 232 q 190 163 190 194 q 206 98 190 124 q 261 72 221 72 q 328 89 294 72 q 394 132 363 106 q 451 190 425 158 q 493 253 476 222 l 586 694 l 690 694 l 603 282 q 592 224 597 258 q 581 153 586 190 q 574 80 576 115 q 571 18 571 44 l 571 0 l 489 0 l 489 132 l 483 132 q 435 78 463 104 q 376 31 408 51 q 306 -3 343 10 q 226 -17 268 -17 q 170 -10 196 -17 q 125 15 144 -3 q 94 60 106 32 q 83 133 83 89 q 97 243 83 182 l 192 694 l 296 694 m 508 793 l 449 793 l 336 971 l 342 1000 l 468 1000 l 508 793 z "},"ú":{"ha":710,"x_min":83,"x_max":690,"o":"m 296 694 l 199 232 q 190 163 190 194 q 206 98 190 124 q 261 72 221 72 q 328 89 294 72 q 394 132 363 106 q 451 190 425 158 q 493 253 476 222 l 586 694 l 690 694 l 603 282 q 592 224 597 258 q 581 153 586 190 q 574 80 576 115 q 571 18 571 44 l 571 0 l 489 0 l 489 132 l 483 132 q 435 78 463 104 q 376 31 408 51 q 306 -3 343 10 q 226 -17 268 -17 q 170 -10 196 -17 q 125 15 144 -3 q 94 60 106 32 q 83 133 83 89 q 97 243 83 182 l 192 694 l 296 694 m 524 1000 l 640 1000 l 633 971 l 463 793 l 401 793 l 524 1000 z "},"û":{"ha":710,"x_min":83,"x_max":690,"o":"m 296 694 l 199 232 q 190 163 190 194 q 206 98 190 124 q 261 72 221 72 q 328 89 294 72 q 394 132 363 106 q 451 190 425 158 q 493 253 476 222 l 586 694 l 690 694 l 603 282 q 592 224 597 258 q 581 153 586 190 q 574 80 576 115 q 571 18 571 44 l 571 0 l 489 0 l 489 132 l 483 132 q 435 78 463 104 q 376 31 408 51 q 306 -3 343 10 q 226 -17 268 -17 q 170 -10 196 -17 q 125 15 144 -3 q 94 60 106 32 q 83 133 83 89 q 97 243 83 182 l 192 694 l 296 694 m 494 1017 l 536 1017 l 628 764 l 540 764 l 507 856 l 499 936 l 451 856 l 372 764 l 278 764 l 494 1017 z "},"ü":{"ha":710,"x_min":83,"x_max":690,"o":"m 296 694 l 199 232 q 190 163 190 194 q 206 98 190 124 q 261 72 221 72 q 328 89 294 72 q 394 132 363 106 q 451 190 425 158 q 493 253 476 222 l 586 694 l 690 694 l 603 282 q 592 224 597 258 q 581 153 586 190 q 574 80 576 115 q 571 18 571 44 l 571 0 l 489 0 l 489 132 l 483 132 q 435 78 463 104 q 376 31 408 51 q 306 -3 343 10 q 226 -17 268 -17 q 170 -10 196 -17 q 125 15 144 -3 q 94 60 106 32 q 83 133 83 89 q 97 243 83 182 l 192 694 l 296 694 m 292 907 q 309 958 292 938 q 356 978 326 978 q 403 958 385 978 q 421 907 421 938 q 403 859 421 879 q 356 839 385 839 q 309 859 326 839 q 292 907 292 879 m 546 908 q 563 958 546 938 q 610 978 581 978 q 658 958 640 978 q 675 908 675 938 q 658 859 675 879 q 610 839 640 839 q 563 859 581 839 q 546 908 546 879 z "},"ý":{"ha":610,"x_min":-28,"x_max":678,"o":"m 269 244 l 276 111 l 283 111 l 336 246 l 567 694 l 678 694 l 350 75 q 278 -58 314 7 q 206 -173 243 -122 q 128 -254 168 -224 q 44 -285 88 -285 q 3 -282 21 -285 q -28 -272 -14 -279 l 6 -176 q 39 -182 21 -182 q 119 -140 79 -182 q 210 0 160 -99 l 90 694 l 201 694 l 269 244 m 468 1000 l 585 1000 l 578 971 l 407 793 l 346 793 l 468 1000 z "},"þ":{"ha":706,"x_min":-7,"x_max":669,"o":"m 261 972 l 365 972 l 279 592 l 285 592 q 326 637 304 615 q 375 675 349 658 q 434 701 401 692 q 507 711 467 711 q 569 701 540 711 q 621 666 599 690 q 656 601 643 642 q 669 503 669 561 q 636 284 669 381 q 549 121 603 188 q 427 19 494 54 q 293 -17 360 -17 q 208 -8 244 -17 q 158 11 171 1 l 97 -278 l -7 -278 l 261 972 m 468 622 q 397 603 431 622 q 334 555 363 583 q 283 494 306 526 q 247 433 261 461 l 179 104 q 228 79 203 86 q 282 72 253 72 q 385 102 336 72 q 474 188 435 132 q 535 321 513 243 q 558 494 558 399 q 535 586 558 550 q 468 622 513 622 z "},"ÿ":{"ha":610,"x_min":-28,"x_max":678,"o":"m 269 244 l 276 111 l 283 111 l 336 246 l 567 694 l 678 694 l 350 75 q 278 -58 314 7 q 206 -173 243 -122 q 128 -254 168 -224 q 44 -285 88 -285 q 3 -282 21 -285 q -28 -272 -14 -279 l 6 -176 q 39 -182 21 -182 q 119 -140 79 -182 q 210 0 160 -99 l 90 694 l 201 694 l 269 244 m 208 907 q 226 958 208 938 q 272 978 243 978 q 319 958 301 978 q 338 907 338 938 q 319 859 338 879 q 272 839 301 839 q 226 859 243 839 q 208 907 208 879 m 463 908 q 480 958 463 938 q 526 978 497 978 q 574 958 557 978 q 592 908 592 938 q 574 859 592 879 q 526 839 557 839 q 480 859 497 839 q 463 908 463 879 z "},"Ā":{"ha":774,"x_min":-46,"x_max":778,"o":"m 561 269 l 222 269 l 72 0 l -46 0 l 515 988 l 567 988 l 707 0 l 600 0 l 561 269 m 276 369 l 550 369 l 510 665 l 507 813 l 506 813 l 443 663 l 276 369 m 361 1171 l 778 1171 l 760 1085 l 342 1085 l 361 1171 z "},"ā":{"ha":676,"x_min":63,"x_max":678,"o":"m 575 274 q 560 169 564 222 q 556 71 556 117 q 556 31 556 50 q 558 -3 556 13 l 481 -3 l 461 118 l 456 118 q 415 70 439 94 q 361 26 390 46 q 299 -5 332 7 q 228 -17 265 -17 q 63 199 63 -17 q 85 379 63 288 q 156 544 108 471 q 280 665 204 618 q 463 713 356 713 q 558 703 501 713 q 663 679 614 694 l 575 274 m 260 72 q 324 88 293 72 q 381 128 354 104 q 429 178 408 151 q 463 229 450 206 l 540 604 q 435 624 499 624 q 322 586 371 624 q 240 488 274 549 q 190 351 207 428 q 174 199 174 275 q 194 109 174 146 q 260 72 215 72 m 288 893 l 678 893 l 660 807 l 268 807 l 288 893 z "},"Ă":{"ha":774,"x_min":-46,"x_max":811,"o":"m 561 269 l 222 269 l 72 0 l -46 0 l 515 988 l 567 988 l 707 0 l 600 0 l 561 269 m 276 369 l 550 369 l 510 665 l 507 813 l 506 813 l 443 663 l 276 369 m 408 1210 q 458 1135 424 1161 q 547 1110 493 1110 q 624 1118 592 1110 q 679 1140 656 1126 q 721 1171 703 1153 q 754 1210 739 1189 l 811 1183 q 708 1057 776 1100 q 543 1014 640 1014 q 469 1027 503 1014 q 412 1063 436 1040 q 373 1115 388 1085 q 354 1176 358 1144 l 408 1210 z "},"ă":{"ha":676,"x_min":63,"x_max":701,"o":"m 575 274 q 560 169 564 222 q 556 71 556 117 q 556 31 556 50 q 558 -3 556 13 l 481 -3 l 461 118 l 456 118 q 415 70 439 94 q 361 26 390 46 q 299 -5 332 7 q 228 -17 265 -17 q 63 199 63 -17 q 85 379 63 288 q 156 544 108 471 q 280 665 204 618 q 463 713 356 713 q 558 703 501 713 q 663 679 614 694 l 575 274 m 260 72 q 324 88 293 72 q 381 128 354 104 q 429 178 408 151 q 463 229 450 206 l 540 604 q 435 624 499 624 q 322 586 371 624 q 240 488 274 549 q 190 351 207 428 q 174 199 174 275 q 194 109 174 146 q 260 72 215 72 m 365 1000 q 403 922 378 950 q 478 893 429 893 q 576 922 531 893 q 653 1000 621 950 l 701 975 q 667 909 690 942 q 613 851 644 876 q 544 811 582 826 q 467 796 506 796 q 348 842 394 796 q 299 968 301 889 l 365 1000 z "},"Ą":{"ha":774,"x_min":-46,"x_max":707,"o":"m 561 269 l 222 269 l 72 0 l -46 0 l 515 988 l 567 988 l 707 0 l 678 0 q 638 -24 657 -11 q 604 -52 619 -36 q 581 -89 589 -68 q 571 -133 572 -110 q 584 -173 571 -157 q 628 -189 597 -189 q 686 -178 654 -189 l 688 -237 q 628 -263 661 -256 q 568 -271 594 -271 q 489 -245 521 -271 q 457 -168 457 -219 q 500 -67 460 -111 q 599 0 540 -24 l 561 269 m 276 368 l 550 368 l 510 667 q 508 734 508 692 q 507 813 508 776 l 506 813 l 443 663 l 276 368 z "},"ą":{"ha":676,"x_min":63,"x_max":663,"o":"m 575 274 q 560 169 564 222 q 556 71 556 117 q 556 31 556 50 q 558 -3 556 13 l 521 -3 q 449 -57 478 -25 q 421 -133 421 -89 q 433 -173 421 -157 q 478 -189 446 -189 q 535 -178 504 -189 l 536 -237 q 479 -263 513 -256 q 418 -271 446 -271 q 339 -247 371 -272 q 307 -169 307 -221 q 317 -115 307 -140 q 347 -69 328 -90 q 399 -26 367 -47 q 478 10 431 -4 l 461 118 l 456 118 q 415 70 439 94 q 361 26 390 46 q 299 -5 332 7 q 228 -17 265 -17 q 63 199 63 -17 q 85 379 63 288 q 156 544 108 471 q 280 665 204 618 q 463 713 356 713 q 558 703 501 713 q 663 679 614 694 l 575 274 m 260 72 q 324 88 293 72 q 381 128 354 104 q 429 178 408 151 q 463 229 450 206 l 540 604 q 435 624 499 624 q 322 586 371 624 q 240 488 274 549 q 190 351 207 428 q 174 199 174 275 q 194 109 174 146 q 260 72 215 72 z "},"Ć":{"ha":756,"x_min":99,"x_max":903,"o":"m 667 40 q 567 -4 619 8 q 444 -17 514 -17 q 299 13 363 -17 q 190 97 235 43 q 122 222 146 150 q 99 381 99 294 q 144 652 99 538 q 265 842 190 767 q 434 953 340 917 q 624 989 528 989 q 753 978 703 989 q 835 951 803 967 l 785 850 q 712 876 757 865 q 608 886 667 886 q 459 852 531 886 q 333 754 388 818 q 247 599 279 690 q 215 393 215 507 q 233 270 215 326 q 283 173 250 214 q 363 109 315 132 q 472 86 411 86 q 581 101 538 86 q 658 135 624 115 l 667 40 m 742 1208 l 903 1208 l 896 1179 l 653 1044 l 551 1044 l 742 1208 z "},"ć":{"ha":583,"x_min":69,"x_max":650,"o":"m 507 60 q 459 28 486 42 q 403 4 432 14 q 347 -11 375 -6 q 294 -17 319 -17 q 183 5 226 -17 q 114 60 139 26 q 79 132 89 93 q 69 206 69 171 q 101 417 69 324 q 187 576 133 511 q 310 676 240 642 q 453 711 379 711 q 540 701 506 711 q 601 679 574 692 l 563 593 q 504 615 539 607 q 429 622 469 622 q 337 590 382 622 q 257 506 292 558 q 201 387 222 454 q 181 249 181 319 q 218 115 181 158 q 319 72 256 72 q 407 91 361 72 q 481 129 453 110 l 507 60 m 533 1000 l 650 1000 l 643 971 l 472 793 l 411 793 l 533 1000 z "},"Ĉ":{"ha":756,"x_min":99,"x_max":836,"o":"m 667 40 q 567 -4 619 8 q 444 -17 514 -17 q 299 13 363 -17 q 190 97 235 43 q 122 222 146 150 q 99 381 99 294 q 144 652 99 538 q 265 842 190 767 q 434 953 340 917 q 624 989 528 989 q 753 978 703 989 q 835 951 803 967 l 785 850 q 712 876 757 865 q 608 886 667 886 q 459 852 531 886 q 333 754 388 818 q 247 599 279 690 q 215 393 215 507 q 233 270 215 326 q 283 173 250 214 q 363 109 315 132 q 472 86 411 86 q 581 101 538 86 q 658 135 624 115 l 667 40 m 632 1208 l 699 1208 l 836 1067 l 831 1038 l 736 1038 l 672 1106 l 658 1154 l 624 1107 l 525 1038 l 421 1038 l 428 1068 l 632 1208 z "},"ĉ":{"ha":583,"x_min":69,"x_max":601,"o":"m 507 60 q 459 28 486 42 q 403 4 432 14 q 347 -11 375 -6 q 294 -17 319 -17 q 183 5 226 -17 q 114 60 139 26 q 79 132 89 93 q 69 206 69 171 q 101 417 69 324 q 187 576 133 511 q 310 676 240 642 q 453 711 379 711 q 540 701 506 711 q 601 679 574 692 l 563 593 q 504 615 539 607 q 429 622 469 622 q 337 590 382 622 q 257 506 292 558 q 201 387 222 454 q 181 249 181 319 q 218 115 181 158 q 319 72 256 72 q 407 91 361 72 q 481 129 453 110 l 507 60 m 467 1017 l 508 1017 l 600 764 l 513 764 l 479 856 l 471 936 l 424 856 l 344 764 l 250 764 l 467 1017 z "},"Č":{"ha":756,"x_min":99,"x_max":874,"o":"m 667 40 q 567 -4 619 8 q 444 -17 514 -17 q 299 13 363 -17 q 190 97 235 43 q 122 222 146 150 q 99 381 99 294 q 144 652 99 538 q 265 842 190 767 q 434 953 340 917 q 624 989 528 989 q 753 978 703 989 q 835 951 803 967 l 785 850 q 712 876 757 865 q 608 886 667 886 q 459 852 531 886 q 333 754 388 818 q 247 599 279 690 q 215 393 215 507 q 233 270 215 326 q 283 173 250 214 q 363 109 315 132 q 472 86 411 86 q 581 101 538 86 q 658 135 624 115 l 667 40 m 663 1036 l 597 1036 l 463 1179 l 467 1208 l 560 1208 l 624 1139 l 636 1092 l 669 1138 l 768 1208 l 874 1208 l 868 1178 l 663 1036 z "},"č":{"ha":583,"x_min":69,"x_max":671,"o":"m 507 60 q 459 28 486 42 q 403 4 432 14 q 347 -11 375 -6 q 294 -17 319 -17 q 183 5 226 -17 q 114 60 139 26 q 79 132 89 93 q 69 206 69 171 q 101 417 69 324 q 187 576 133 511 q 310 676 240 642 q 453 711 379 711 q 540 701 506 711 q 601 679 574 692 l 563 593 q 504 615 539 607 q 429 622 469 622 q 337 590 382 622 q 257 506 292 558 q 201 387 222 454 q 181 249 181 319 q 218 115 181 158 q 319 72 256 72 q 407 91 361 72 q 481 129 453 110 l 507 60 m 454 764 l 406 764 l 307 1017 l 407 1017 l 439 925 l 449 844 l 496 925 l 574 1017 l 671 1017 l 454 764 z "},"Ď":{"ha":864,"x_min":56,"x_max":861,"o":"m 263 972 q 382 981 315 979 q 503 983 449 983 q 651 962 585 983 q 765 896 718 940 q 836 783 811 851 q 861 624 861 715 q 850 491 861 563 q 813 349 839 419 q 744 214 788 279 q 638 98 701 149 q 488 17 574 47 q 289 -12 401 -12 q 234 -12 268 -12 q 167 -10 200 -11 q 56 -1 69 -4 l 263 972 m 494 881 q 457 880 478 881 q 417 878 436 879 q 379 876 397 878 q 351 874 361 875 l 188 96 q 210 94 193 94 q 245 92 226 93 q 281 91 264 92 q 306 90 299 90 q 510 140 426 90 q 645 267 593 190 q 721 435 697 343 q 744 608 744 526 q 731 721 744 671 q 687 806 717 771 q 610 861 657 842 q 494 881 563 881 m 563 1036 l 497 1036 l 363 1179 l 367 1208 l 460 1208 l 524 1139 l 536 1092 l 569 1138 l 668 1208 l 774 1208 l 768 1178 l 563 1036 z "},"ď":{"ha":707,"x_min":69,"x_max":940,"o":"m 582 239 q 565 138 571 185 q 560 50 560 90 q 560 22 560 35 q 563 -3 561 10 l 493 -3 l 474 118 l 468 118 q 426 70 451 94 q 371 26 401 46 q 306 -5 340 7 q 236 -17 272 -17 q 115 40 160 -17 q 69 218 69 96 q 93 387 69 300 q 163 544 117 474 q 277 661 208 615 q 436 707 346 707 q 479 706 461 707 q 513 701 497 704 q 543 694 529 699 q 572 683 557 689 l 633 972 l 738 972 l 582 239 m 275 72 q 335 88 304 72 q 392 128 365 104 q 441 178 419 151 q 475 229 463 206 l 553 590 q 499 612 529 606 q 421 618 469 618 q 321 584 365 618 q 245 493 276 550 q 197 363 214 436 q 181 211 181 289 q 203 113 181 154 q 275 72 225 72 m 940 972 q 908 890 929 932 q 861 811 886 847 q 813 747 836 775 q 776 707 790 719 l 739 732 q 797 845 772 782 q 835 972 821 908 l 940 972 z "},"Đ":{"ha":869,"x_min":39,"x_max":865,"o":"m 57 544 l 176 544 l 268 972 q 388 981 321 979 q 508 983 454 983 q 656 962 589 983 q 769 896 722 940 q 840 783 815 851 q 865 624 865 715 q 854 491 865 563 q 817 349 843 419 q 749 214 792 279 q 642 98 706 149 q 492 17 578 47 q 294 -12 407 -12 q 240 -12 274 -12 q 169 -10 206 -11 q 61 -1 75 -4 l 160 461 l 39 461 l 57 544 m 500 881 q 463 880 483 881 q 422 878 442 879 q 385 876 403 878 q 357 874 367 875 l 288 544 l 478 544 l 461 461 l 269 461 l 193 96 q 215 94 199 94 q 251 92 232 93 q 287 91 269 92 q 311 90 304 90 q 515 140 432 90 q 649 267 597 190 q 725 435 701 343 q 749 608 749 526 q 735 721 749 671 q 691 806 721 771 q 614 861 661 842 q 500 881 567 881 z "},"đ":{"ha":707,"x_min":69,"x_max":838,"o":"m 717 878 l 838 878 l 821 794 l 700 794 l 582 239 q 565 138 571 185 q 560 50 560 90 q 560 22 560 35 q 563 -3 561 10 l 493 -3 l 474 118 l 468 118 q 426 70 451 94 q 371 26 401 46 q 306 -5 340 7 q 236 -17 272 -17 q 115 40 160 -17 q 69 218 69 96 q 93 387 69 300 q 163 544 117 474 q 277 661 208 615 q 436 707 346 707 q 479 706 461 707 q 513 701 497 704 q 543 694 529 699 q 572 683 557 689 l 596 794 l 401 794 l 418 878 l 613 878 l 633 972 l 738 972 l 717 878 m 275 72 q 335 88 304 72 q 392 128 365 104 q 441 178 419 151 q 475 229 463 206 l 553 590 q 499 612 529 606 q 421 618 469 618 q 321 584 365 618 q 245 493 276 550 q 197 363 214 436 q 181 211 181 289 q 203 113 181 154 q 275 72 225 72 z "},"Ē":{"ha":708,"x_min":56,"x_max":764,"o":"m 263 972 l 764 972 l 743 869 l 350 869 l 282 551 l 642 551 l 621 449 l 261 449 l 188 103 l 588 103 l 565 0 l 165 0 l 56 0 l 263 972 m 331 1171 l 747 1171 l 729 1085 l 311 1085 l 331 1171 z "},"ē":{"ha":643,"x_min":69,"x_max":657,"o":"m 540 68 q 426 5 492 26 q 293 -17 360 -17 q 126 47 182 -17 q 69 225 69 111 q 101 429 69 339 q 185 582 133 519 q 303 678 238 644 q 439 711 369 711 q 526 697 489 711 q 586 660 563 683 q 621 608 610 638 q 632 544 632 578 q 536 390 632 446 q 257 333 440 333 q 222 334 240 333 q 185 336 204 335 q 176 286 179 310 q 174 244 174 263 q 208 120 174 168 q 317 72 243 72 q 428 92 378 72 q 507 135 479 113 l 540 68 m 422 622 q 290 570 346 622 q 204 414 233 518 q 314 417 257 414 q 417 431 371 419 q 494 469 464 443 q 525 540 525 494 q 520 569 525 554 q 504 595 515 583 q 473 615 493 607 q 422 622 453 622 m 267 893 l 657 893 l 639 807 l 247 807 l 267 893 z "},"Ė":{"ha":708,"x_min":56,"x_max":764,"o":"m 263 972 l 764 972 l 743 869 l 350 869 l 282 551 l 642 551 l 621 449 l 261 449 l 188 103 l 588 103 l 565 0 l 165 0 l 56 0 l 263 972 m 458 1106 q 482 1158 458 1138 q 540 1179 506 1179 q 600 1158 576 1179 q 624 1106 624 1138 q 600 1054 624 1075 q 540 1033 576 1033 q 482 1054 506 1033 q 458 1106 458 1075 z "},"ė":{"ha":643,"x_min":69,"x_max":632,"o":"m 540 68 q 426 5 492 26 q 293 -17 360 -17 q 126 47 182 -17 q 69 225 69 111 q 101 429 69 339 q 185 582 133 519 q 303 678 238 644 q 439 711 369 711 q 526 697 489 711 q 586 660 563 683 q 621 608 610 638 q 632 544 632 578 q 536 390 632 446 q 257 333 440 333 q 222 334 240 333 q 185 336 204 335 q 176 286 179 310 q 174 244 174 263 q 208 120 174 168 q 317 72 243 72 q 428 92 378 72 q 507 135 479 113 l 540 68 m 422 622 q 290 570 346 622 q 204 414 233 518 q 314 417 257 414 q 417 431 371 419 q 494 469 464 443 q 525 540 525 494 q 520 569 525 554 q 504 595 515 583 q 473 615 493 607 q 422 622 453 622 m 401 907 q 423 961 401 939 q 476 983 444 983 q 531 961 508 983 q 553 907 553 939 q 531 853 553 875 q 476 832 508 832 q 423 853 444 832 q 401 907 401 875 z "},"Ę":{"ha":708,"x_min":56,"x_max":764,"o":"m 263 972 l 764 972 l 743 869 l 350 869 l 282 551 l 642 551 l 621 449 l 261 449 l 188 103 l 588 103 l 565 0 l 528 0 q 453 -53 485 -21 q 421 -133 421 -85 q 434 -173 421 -157 q 478 -189 447 -189 q 536 -178 504 -189 l 538 -237 q 479 -263 513 -256 q 418 -271 446 -271 q 338 -246 369 -271 q 307 -169 307 -221 q 349 -66 307 -108 q 447 0 390 -24 l 167 0 l 56 0 l 263 972 z "},"ę":{"ha":643,"x_min":69,"x_max":632,"o":"m 540 68 q 428 6 493 28 q 353 -54 386 -18 q 317 -139 319 -90 q 331 -178 317 -162 q 367 -193 346 -194 q 429 -179 397 -192 l 431 -237 q 372 -262 407 -254 q 310 -271 338 -271 q 231 -246 258 -271 q 203 -178 204 -221 q 206 -147 201 -164 q 243 -76 213 -111 q 314 -15 274 -40 l 293 -17 q 126 47 182 -17 q 69 225 69 111 q 101 429 69 339 q 185 582 133 519 q 303 678 238 644 q 439 711 369 711 q 526 697 489 711 q 586 660 563 683 q 621 608 610 638 q 632 544 632 578 q 536 390 632 446 q 257 333 440 333 q 222 334 240 333 q 183 336 203 335 q 176 286 178 310 q 174 244 174 263 q 209 120 175 168 q 317 72 243 72 q 428 92 378 72 q 507 135 479 113 l 540 68 m 422 622 q 290 570 346 622 q 204 414 233 518 q 314 417 257 414 q 417 431 371 419 q 494 469 464 443 q 525 540 525 494 q 520 569 525 554 q 504 595 515 583 q 473 615 493 607 q 422 622 453 622 z "},"Ě":{"ha":708,"x_min":56,"x_max":764,"o":"m 263 972 l 764 972 l 743 869 l 350 869 l 282 551 l 642 551 l 621 449 l 261 449 l 188 103 l 588 103 l 565 0 l 165 0 l 56 0 l 263 972 m 546 1036 l 481 1036 l 346 1179 l 350 1208 l 443 1208 l 507 1139 l 519 1092 l 553 1138 l 651 1208 l 757 1208 l 751 1178 l 546 1036 z "},"ě":{"ha":643,"x_min":69,"x_max":682,"o":"m 540 68 q 426 5 492 26 q 293 -17 360 -17 q 126 47 182 -17 q 69 225 69 111 q 101 429 69 339 q 185 582 133 519 q 303 678 238 644 q 439 711 369 711 q 526 697 489 711 q 586 660 563 683 q 621 608 610 638 q 632 544 632 578 q 536 390 632 446 q 257 333 440 333 q 222 334 240 333 q 185 336 204 335 q 176 286 179 310 q 174 244 174 263 q 208 120 174 168 q 317 72 243 72 q 428 92 378 72 q 507 135 479 113 l 540 68 m 422 622 q 290 570 346 622 q 204 414 233 518 q 314 417 257 414 q 417 431 371 419 q 494 469 464 443 q 525 540 525 494 q 520 569 525 554 q 504 595 515 583 q 473 615 493 607 q 422 622 453 622 m 465 764 l 417 764 l 318 1017 l 418 1017 l 450 925 l 460 844 l 507 925 l 585 1017 l 682 1017 l 465 764 z "},"Ĝ":{"ha":810,"x_min":99,"x_max":851,"o":"m 521 485 l 682 485 l 776 485 l 686 57 q 442 -17 588 -17 q 310 8 372 -17 q 201 83 249 33 q 126 206 154 132 q 99 378 99 279 q 149 665 99 549 q 277 853 199 782 q 450 957 356 925 q 633 989 544 989 q 765 978 713 989 q 849 953 817 968 l 800 851 q 726 876 772 867 q 621 886 679 886 q 467 855 540 886 q 338 761 394 824 q 249 606 282 699 q 215 392 215 514 q 231 274 215 329 q 277 176 246 218 q 355 110 308 135 q 465 86 401 86 q 542 95 510 86 q 606 121 574 104 l 663 392 l 507 419 l 521 485 m 647 1208 l 714 1208 l 851 1067 l 846 1038 l 751 1038 l 688 1106 l 674 1154 l 639 1107 l 540 1038 l 436 1038 l 443 1068 l 647 1208 z "},"ĝ":{"ha":701,"x_min":7,"x_max":682,"o":"m 535 -32 q 434 -231 506 -168 q 244 -294 363 -294 q 96 -272 154 -294 q 7 -232 38 -249 l 53 -154 q 80 -169 64 -160 q 119 -186 96 -178 q 174 -200 142 -194 q 251 -206 207 -206 q 368 -156 321 -206 q 439 1 415 -106 l 464 118 l 458 118 q 416 68 439 92 q 365 26 393 44 q 305 -4 338 7 q 233 -15 272 -15 q 113 39 158 -15 q 67 193 67 93 q 92 378 67 286 q 169 542 118 469 q 294 661 219 615 q 465 707 368 707 q 592 694 540 707 q 682 664 643 682 l 535 -32 m 272 74 q 341 92 307 74 q 403 138 375 110 q 455 200 432 167 q 493 263 478 233 l 564 597 q 510 614 542 610 q 444 618 478 618 q 339 585 388 618 q 255 495 290 551 q 199 365 219 439 q 178 211 178 292 q 203 110 178 147 q 272 74 229 74 m 506 1017 l 547 1017 l 639 764 l 551 764 l 518 856 l 510 936 l 463 856 l 383 764 l 289 764 l 506 1017 z "},"Ğ":{"ha":810,"x_min":99,"x_max":906,"o":"m 521 485 l 682 485 l 776 485 l 686 57 q 442 -17 588 -17 q 310 8 372 -17 q 201 83 249 33 q 126 206 154 132 q 99 378 99 279 q 149 665 99 549 q 277 853 199 782 q 450 957 356 925 q 633 989 544 989 q 765 978 713 989 q 849 953 817 968 l 800 851 q 726 876 772 867 q 621 886 679 886 q 467 855 540 886 q 338 761 394 824 q 249 606 282 699 q 215 392 215 514 q 231 274 215 329 q 277 176 246 218 q 355 110 308 135 q 465 86 401 86 q 542 95 510 86 q 606 121 574 104 l 663 392 l 507 419 l 521 485 m 503 1210 q 553 1135 518 1161 q 642 1110 588 1110 q 718 1118 686 1110 q 774 1140 750 1126 q 815 1171 797 1153 q 849 1210 833 1189 l 906 1183 q 803 1057 871 1100 q 638 1014 735 1014 q 564 1027 597 1014 q 506 1063 531 1040 q 467 1115 482 1085 q 449 1176 453 1144 l 503 1210 z "},"ğ":{"ha":701,"x_min":7,"x_max":708,"o":"m 535 -32 q 434 -231 506 -168 q 244 -294 363 -294 q 96 -272 154 -294 q 7 -232 38 -249 l 53 -154 q 80 -169 64 -160 q 119 -186 96 -178 q 174 -200 142 -194 q 251 -206 207 -206 q 368 -156 321 -206 q 439 1 415 -106 l 464 118 l 458 118 q 416 68 439 92 q 365 26 393 44 q 305 -4 338 7 q 233 -15 272 -15 q 113 39 158 -15 q 67 193 67 93 q 92 378 67 286 q 169 542 118 469 q 294 661 219 615 q 465 707 368 707 q 592 694 540 707 q 682 664 643 682 l 535 -32 m 272 74 q 341 92 307 74 q 403 138 375 110 q 455 200 432 167 q 493 263 478 233 l 564 597 q 510 614 542 610 q 444 618 478 618 q 339 585 388 618 q 255 495 290 551 q 199 365 219 439 q 178 211 178 292 q 203 110 178 147 q 272 74 229 74 m 372 1000 q 410 922 385 950 q 485 893 436 893 q 583 922 538 893 q 660 1000 628 950 l 708 975 q 674 909 697 942 q 620 851 651 876 q 551 811 589 826 q 474 796 513 796 q 355 842 401 796 q 306 968 308 889 l 372 1000 z "},"Ģ":{"ha":810,"x_min":99,"x_max":849,"o":"m 521 485 l 682 485 l 776 485 l 686 57 q 442 -17 588 -17 q 310 8 372 -17 q 201 83 249 33 q 126 206 154 132 q 99 378 99 279 q 149 665 99 549 q 277 853 199 782 q 450 957 356 925 q 633 989 544 989 q 765 978 713 989 q 849 953 817 968 l 800 851 q 726 876 772 867 q 621 886 679 886 q 467 855 540 886 q 338 761 394 824 q 249 606 282 699 q 215 392 215 514 q 231 274 215 329 q 277 176 246 218 q 355 110 308 135 q 465 86 401 86 q 542 95 510 86 q 606 121 574 104 l 663 392 l 507 419 l 521 485 m 353 -146 q 378 -95 353 -114 q 431 -76 403 -76 q 482 -99 467 -76 q 497 -154 497 -121 q 481 -226 497 -194 q 441 -282 464 -258 q 394 -321 418 -306 q 356 -340 371 -336 l 331 -296 q 381 -258 358 -281 q 408 -203 403 -236 q 367 -187 381 -203 q 353 -146 353 -172 z "},"ģ":{"ha":701,"x_min":7,"x_max":682,"o":"m 535 -32 q 434 -231 506 -168 q 244 -294 363 -294 q 96 -272 154 -294 q 7 -232 38 -249 l 53 -154 q 80 -169 64 -160 q 119 -186 96 -178 q 174 -200 142 -194 q 251 -206 207 -206 q 368 -156 321 -206 q 439 1 415 -106 l 464 118 l 458 118 q 416 68 439 92 q 365 26 393 44 q 305 -4 338 7 q 233 -15 272 -15 q 113 39 158 -15 q 67 193 67 93 q 92 378 67 286 q 169 542 118 469 q 294 661 219 615 q 465 707 368 707 q 592 694 540 707 q 682 664 643 682 l 535 -32 m 272 74 q 341 92 307 74 q 403 138 375 110 q 455 200 432 167 q 493 263 478 233 l 564 597 q 510 614 542 610 q 444 618 478 618 q 339 585 388 618 q 255 495 290 551 q 199 365 219 439 q 178 211 178 292 q 203 110 178 147 q 272 74 229 74 m 588 850 q 563 799 588 818 q 510 781 538 781 q 458 803 474 781 q 443 858 443 825 q 460 931 443 899 q 499 986 476 962 q 546 1025 522 1010 q 585 1044 569 1040 l 610 1000 q 560 962 582 985 q 532 907 538 940 q 574 892 560 907 q 588 850 588 876 z "},"Ĥ":{"ha":888,"x_min":56,"x_max":924,"o":"m 701 446 l 260 446 l 167 0 l 56 0 l 261 972 l 372 972 l 283 549 l 724 549 l 813 972 l 924 972 l 718 0 l 607 0 l 701 446 m 617 1208 l 683 1208 l 821 1067 l 815 1038 l 721 1038 l 657 1106 l 643 1154 l 608 1107 l 510 1038 l 406 1038 l 413 1068 l 617 1208 z "},"ĥ":{"ha":735,"x_min":50,"x_max":685,"o":"m 474 0 l 557 396 q 571 470 565 438 q 576 528 576 503 q 556 601 576 579 q 490 622 535 622 q 417 603 454 622 q 344 556 379 585 q 283 490 310 526 q 242 421 256 454 l 154 0 l 50 0 l 256 972 l 360 972 l 274 575 l 279 575 q 323 621 297 597 q 382 665 349 644 q 454 698 415 685 q 539 711 493 711 q 646 678 607 711 q 685 560 685 646 q 667 419 685 501 l 578 0 l 474 0 m 335 1208 l 401 1208 l 539 1067 l 533 1038 l 439 1038 l 375 1106 l 361 1154 l 326 1107 l 228 1038 l 124 1038 l 131 1068 l 335 1208 z "},"Ħ":{"ha":896,"x_min":60,"x_max":1001,"o":"m 131 815 l 232 815 l 265 972 l 376 972 l 343 815 l 783 815 l 817 972 l 928 972 l 894 815 l 1001 815 l 983 726 l 875 726 l 722 0 l 611 0 l 706 446 l 264 446 l 171 0 l 60 0 l 213 726 l 111 726 l 131 815 m 728 549 l 765 726 l 325 726 l 288 549 l 728 549 z "},"ħ":{"ha":736,"x_min":50,"x_max":685,"o":"m 129 878 l 235 878 l 256 972 l 360 972 l 339 878 l 550 878 l 533 794 l 321 794 l 274 575 l 279 575 q 323 621 297 597 q 382 665 349 644 q 454 698 415 685 q 539 711 493 711 q 646 678 607 711 q 685 560 685 646 q 667 419 685 501 l 578 0 l 474 0 l 557 396 q 571 470 565 438 q 576 528 576 503 q 556 601 576 579 q 490 622 535 622 q 417 603 454 622 q 344 556 379 585 q 283 490 310 526 q 242 421 256 454 l 154 0 l 50 0 l 218 794 l 111 794 l 129 878 z "},"Ī":{"ha":385,"x_min":86,"x_max":586,"o":"m 292 972 l 403 972 l 197 0 l 86 0 l 292 972 m 169 1171 l 586 1171 l 568 1085 l 150 1085 l 169 1171 z "},"ī":{"ha":360,"x_min":75,"x_max":514,"o":"m 222 694 l 326 694 l 179 0 l 75 0 l 222 694 m 124 893 l 514 893 l 496 807 l 104 807 l 124 893 z "},"Į":{"ha":385,"x_min":-44,"x_max":403,"o":"m 292 972 l 403 972 l 197 0 l 174 0 q 101 -53 133 -21 q 69 -135 69 -86 q 83 -174 69 -158 q 125 -190 96 -190 q 183 -179 151 -190 l 185 -239 q 126 -263 160 -256 q 65 -271 93 -271 q -12 -247 18 -271 q -44 -169 -43 -222 q -3 -67 -44 -111 q 94 0 39 -24 l 86 0 l 292 972 z "},"į":{"ha":361,"x_min":-61,"x_max":397,"o":"m 222 694 l 326 694 l 179 0 l 157 0 q 91 -53 119 -22 q 54 -122 63 -83 l 53 -139 q 67 -178 53 -162 q 115 -192 82 -193 q 165 -179 139 -189 l 167 -239 q 114 -262 149 -253 q 51 -271 79 -271 q -33 -248 -4 -272 q -61 -181 -61 -224 q -19 -73 -61 -121 q 83 0 24 -25 l 75 0 l 222 694 m 246 907 q 267 961 246 939 q 321 983 289 983 q 375 961 353 983 q 397 907 397 939 q 375 853 397 875 q 321 832 353 832 q 267 853 289 832 q 246 907 246 875 z "},"İ":{"ha":385,"x_min":86,"x_max":456,"o":"m 292 972 l 403 972 l 197 0 l 86 0 l 292 972 m 290 1106 q 314 1158 290 1138 q 372 1179 338 1179 q 432 1158 408 1179 q 456 1106 456 1138 q 432 1054 456 1075 q 372 1033 408 1033 q 314 1054 338 1033 q 290 1106 290 1075 z "},"ı":{"ha":360,"x_min":75,"x_max":326,"o":"m 222 694 l 326 694 l 179 0 l 75 0 l 222 694 z "},"Ĵ":{"ha":386,"x_min":-85,"x_max":578,"o":"m 308 972 l 419 972 l 258 214 q 228 116 246 158 q 184 44 211 74 q 117 1 157 15 q 22 -14 78 -14 q -3 -12 11 -14 q -33 -8 -18 -11 q -62 -1 -49 -6 q -85 8 -76 3 l -43 107 q 32 89 -17 89 q 81 99 61 89 q 114 130 100 110 q 137 178 128 150 q 153 242 146 206 l 308 972 m 374 1208 l 440 1208 l 578 1067 l 572 1038 l 478 1038 l 414 1106 l 400 1154 l 365 1107 l 267 1038 l 163 1038 l 169 1068 l 374 1208 z "},"ĵ":{"ha":346,"x_min":-133,"x_max":447,"o":"m 206 694 l 310 694 l 161 -1 q 69 -228 131 -167 q -90 -289 7 -289 q -112 -288 -101 -289 q -133 -286 -122 -287 l -112 -196 q -44 -184 -71 -196 q 2 -147 -17 -172 q 34 -85 21 -122 q 58 1 47 -47 l 206 694 m 314 1017 l 356 1017 l 447 764 l 360 764 l 326 856 l 318 936 l 271 856 l 192 764 l 97 764 l 314 1017 z "},"Ķ":{"ha":800,"x_min":56,"x_max":867,"o":"m 332 450 l 261 450 l 167 0 l 56 0 l 261 972 l 372 972 l 275 519 l 331 539 l 729 972 l 867 972 l 469 550 l 406 507 l 460 451 l 703 0 l 576 0 l 332 450 m 231 -146 q 256 -95 231 -114 q 308 -76 281 -76 q 360 -99 344 -76 q 375 -154 375 -121 q 358 -226 375 -194 q 319 -282 342 -258 q 272 -321 296 -306 q 233 -340 249 -336 l 208 -296 q 258 -258 236 -281 q 286 -203 281 -236 q 244 -187 258 -203 q 231 -146 231 -172 z "},"ķ":{"ha":624,"x_min":50,"x_max":671,"o":"m 294 313 l 219 313 l 154 0 l 50 0 l 256 972 l 360 972 l 233 381 l 293 396 l 543 694 l 671 694 l 424 413 l 358 367 l 411 313 l 567 0 l 451 0 l 294 313 m 158 -146 q 183 -95 158 -114 q 236 -76 208 -76 q 288 -99 272 -76 q 303 -154 303 -121 q 286 -226 303 -194 q 247 -282 269 -258 q 200 -321 224 -306 q 161 -340 176 -336 l 136 -296 q 186 -258 164 -281 q 214 -203 208 -236 q 172 -187 186 -203 q 158 -146 158 -172 z "},"Ĺ":{"ha":683,"x_min":56,"x_max":649,"o":"m 603 0 l 164 0 l 56 0 l 261 972 l 372 972 l 188 103 l 624 103 l 603 0 m 488 1208 l 649 1208 l 642 1179 l 399 1044 l 297 1044 l 488 1208 z "},"ĺ":{"ha":375,"x_min":69,"x_max":614,"o":"m 185 165 q 181 126 181 142 q 190 88 181 100 q 214 76 199 76 q 260 80 242 76 q 306 93 279 83 l 306 14 q 276 2 293 7 q 242 -6 260 -3 q 208 -10 225 -8 q 176 -12 190 -12 q 99 10 128 -12 q 69 92 69 32 q 78 160 69 119 l 250 972 l 354 972 l 185 165 m 453 1208 l 614 1208 l 607 1179 l 364 1044 l 263 1044 l 453 1208 z "},"Ļ":{"ha":683,"x_min":56,"x_max":624,"o":"m 603 0 l 164 0 l 56 0 l 261 972 l 372 972 l 188 103 l 624 103 l 603 0 m 214 -146 q 239 -95 214 -114 q 292 -76 264 -76 q 343 -99 328 -76 q 358 -154 358 -121 q 342 -226 358 -194 q 302 -282 325 -258 q 256 -321 279 -306 q 217 -340 232 -336 l 192 -296 q 242 -258 219 -281 q 269 -203 264 -236 q 228 -187 242 -203 q 214 -146 214 -172 z "},"ļ":{"ha":375,"x_min":35,"x_max":354,"o":"m 185 165 q 181 126 181 142 q 190 88 181 100 q 214 76 199 76 q 260 80 242 76 q 306 93 279 83 l 306 14 q 276 2 293 7 q 242 -6 260 -3 q 208 -10 225 -8 q 176 -12 190 -12 q 99 10 128 -12 q 69 92 69 32 q 78 160 69 119 l 250 972 l 354 972 l 185 165 m 57 -146 q 82 -95 57 -114 q 135 -76 107 -76 q 186 -99 171 -76 q 201 -154 201 -121 q 185 -226 201 -194 q 145 -282 168 -258 q 99 -321 122 -306 q 60 -340 75 -336 l 35 -296 q 85 -258 63 -281 q 113 -203 107 -236 q 71 -187 85 -203 q 57 -146 57 -172 z "},"Ľ":{"ha":683,"x_min":56,"x_max":717,"o":"m 603 0 l 164 0 l 56 0 l 261 972 l 372 972 l 188 103 l 624 103 l 603 0 m 717 972 q 684 890 706 932 q 638 811 663 847 q 590 747 613 775 q 553 707 567 719 l 515 732 q 573 845 549 782 q 611 972 597 908 l 717 972 z "},"ľ":{"ha":375,"x_min":69,"x_max":563,"o":"m 185 165 q 181 126 181 142 q 190 88 181 100 q 214 76 199 76 q 260 80 242 76 q 306 93 279 83 l 306 14 q 276 2 293 7 q 242 -6 260 -3 q 208 -10 225 -8 q 176 -12 190 -12 q 99 10 128 -12 q 69 92 69 32 q 78 160 69 119 l 250 972 l 354 972 l 185 165 m 563 972 q 530 890 551 932 q 483 811 508 847 q 435 747 458 775 q 399 707 413 719 l 361 732 q 419 845 394 782 q 457 972 443 908 l 563 972 z "},"Ł":{"ha":685,"x_min":28,"x_max":625,"o":"m 50 399 l 157 474 l 263 972 l 374 972 l 286 565 l 453 682 l 429 571 l 264 456 l 189 103 l 625 103 l 604 0 l 168 0 l 57 0 l 135 367 l 28 293 l 50 399 z "},"ł":{"ha":375,"x_min":4,"x_max":429,"o":"m 26 396 l 146 479 l 250 972 l 354 972 l 268 565 l 429 679 l 406 568 l 246 457 l 185 165 q 181 126 181 142 q 190 88 181 100 q 214 76 199 76 q 260 80 242 76 q 306 93 279 83 l 306 14 q 276 2 293 7 q 242 -6 260 -3 q 208 -10 225 -8 q 176 -12 190 -12 q 99 10 128 -12 q 69 92 69 32 q 78 160 69 119 l 122 372 l 4 290 l 26 396 z "},"Ń":{"ha":892,"x_min":56,"x_max":928,"o":"m 363 636 l 315 779 l 311 779 l 294 636 l 160 0 l 56 0 l 265 988 l 321 988 l 624 338 l 669 201 l 675 201 l 688 338 l 824 972 l 928 972 l 718 -15 l 667 -15 l 363 636 m 728 1208 l 889 1208 l 882 1179 l 639 1044 l 538 1044 l 728 1208 z "},"ń":{"ha":725,"x_min":36,"x_max":672,"o":"m 446 0 l 539 439 q 549 488 544 464 q 553 532 553 513 q 534 597 553 572 q 464 622 515 622 q 393 606 428 622 q 328 563 358 589 q 273 506 297 538 q 232 444 249 475 l 140 0 l 36 0 l 183 694 l 256 694 l 250 575 l 256 575 q 299 622 274 597 q 355 665 324 646 q 425 698 386 685 q 511 711 464 711 q 621 678 581 711 q 661 561 661 644 q 649 461 661 519 l 550 0 l 446 0 m 556 1000 l 672 1000 l 665 971 l 494 793 l 433 793 l 556 1000 z "},"Ņ":{"ha":892,"x_min":56,"x_max":928,"o":"m 363 636 l 315 779 l 311 779 l 294 636 l 160 0 l 56 0 l 265 988 l 321 988 l 624 338 l 669 201 l 675 201 l 688 338 l 824 972 l 928 972 l 718 -15 l 667 -15 l 363 636 m 285 -146 q 310 -95 285 -114 q 363 -76 335 -76 q 414 -99 399 -76 q 429 -154 429 -121 q 413 -226 429 -194 q 373 -282 396 -258 q 326 -321 350 -306 q 288 -340 303 -336 l 263 -296 q 313 -258 290 -281 q 340 -203 335 -236 q 299 -187 313 -203 q 285 -146 285 -172 z "},"ņ":{"ha":725,"x_min":36,"x_max":661,"o":"m 446 0 l 539 439 q 549 488 544 464 q 553 532 553 513 q 534 597 553 572 q 464 622 515 622 q 393 606 428 622 q 328 563 358 589 q 273 506 297 538 q 232 444 249 475 l 140 0 l 36 0 l 183 694 l 256 694 l 250 575 l 256 575 q 299 622 274 597 q 355 665 324 646 q 425 698 386 685 q 511 711 464 711 q 621 678 581 711 q 661 561 661 644 q 649 461 661 519 l 550 0 l 446 0 m 201 -146 q 226 -95 201 -114 q 279 -76 251 -76 q 331 -99 315 -76 q 346 -154 346 -121 q 329 -226 346 -194 q 290 -282 313 -258 q 243 -321 267 -306 q 204 -340 219 -336 l 179 -296 q 229 -258 207 -281 q 257 -203 251 -236 q 215 -187 229 -203 q 201 -146 201 -172 z "},"Ň":{"ha":892,"x_min":56,"x_max":928,"o":"m 363 636 l 315 779 l 311 779 l 294 636 l 160 0 l 56 0 l 265 988 l 321 988 l 624 338 l 669 201 l 675 201 l 688 338 l 824 972 l 928 972 l 718 -15 l 667 -15 l 363 636 m 638 1036 l 572 1036 l 438 1179 l 442 1208 l 535 1208 l 599 1139 l 611 1092 l 644 1138 l 743 1208 l 849 1208 l 843 1178 l 638 1036 z "},"ň":{"ha":725,"x_min":36,"x_max":704,"o":"m 446 0 l 539 439 q 549 488 544 464 q 553 532 553 513 q 534 597 553 572 q 464 622 515 622 q 393 606 428 622 q 328 563 358 589 q 273 506 297 538 q 232 444 249 475 l 140 0 l 36 0 l 183 694 l 256 694 l 250 575 l 256 575 q 299 622 274 597 q 355 665 324 646 q 425 698 386 685 q 511 711 464 711 q 621 678 581 711 q 661 561 661 644 q 649 461 661 519 l 550 0 l 446 0 m 488 764 l 439 764 l 340 1017 l 440 1017 l 472 925 l 482 844 l 529 925 l 607 1017 l 704 1017 l 488 764 z "},"Ō":{"ha":904,"x_min":99,"x_max":899,"o":"m 99 356 q 133 599 99 483 q 233 801 168 714 q 388 938 297 888 q 590 989 479 989 q 714 969 657 989 q 812 905 771 949 q 876 792 853 861 q 899 622 899 722 q 864 376 899 492 q 767 172 829 260 q 617 34 704 85 q 426 -17 531 -17 q 181 78 263 -17 q 99 356 99 174 m 215 357 q 269 155 215 226 q 429 83 324 83 q 572 126 507 83 q 683 243 636 169 q 756 414 731 317 q 782 619 782 511 q 764 753 782 700 q 716 835 746 806 q 648 877 686 865 q 571 889 610 889 q 426 845 492 889 q 315 728 361 801 q 242 558 268 654 q 215 357 215 461 m 432 1171 l 849 1171 l 831 1085 l 413 1085 l 432 1171 z "},"ō":{"ha":692,"x_min":69,"x_max":671,"o":"m 69 217 q 98 417 69 326 q 176 574 126 508 q 292 675 226 639 q 433 711 358 711 q 533 692 492 711 q 599 641 574 674 q 636 566 625 608 q 647 478 647 524 q 620 283 647 374 q 545 126 593 193 q 433 22 497 60 q 294 -17 369 -17 q 190 3 232 -17 q 120 57 147 24 q 81 132 93 90 q 69 217 69 174 m 181 242 q 211 116 181 160 q 308 72 242 72 q 395 105 354 72 q 467 193 436 138 q 517 320 499 249 q 536 469 536 392 q 510 581 536 540 q 413 622 485 622 q 325 591 367 622 q 251 507 283 560 q 199 385 218 454 q 181 242 181 317 m 281 893 l 671 893 l 653 807 l 261 807 l 281 893 z "},"Ő":{"ha":904,"x_min":99,"x_max":933,"o":"m 99 356 q 133 599 99 483 q 233 801 168 714 q 388 938 297 888 q 590 989 479 989 q 714 969 657 989 q 812 905 771 949 q 876 792 853 861 q 899 622 899 722 q 864 376 899 492 q 767 172 829 260 q 617 34 704 85 q 426 -17 531 -17 q 181 78 263 -17 q 99 356 99 174 m 215 357 q 269 155 215 226 q 429 83 324 83 q 572 126 507 83 q 683 243 636 169 q 756 414 731 317 q 782 619 782 511 q 764 753 782 700 q 716 835 746 806 q 648 877 686 865 q 571 889 610 889 q 426 845 492 889 q 315 728 361 801 q 242 558 268 654 q 215 357 215 461 m 590 1181 l 713 1181 l 708 1158 l 549 1029 l 474 1029 l 590 1181 m 804 1181 l 933 1181 l 929 1158 l 713 1029 l 638 1029 l 804 1181 z "},"ő":{"ha":692,"x_min":69,"x_max":721,"o":"m 69 217 q 98 417 69 326 q 176 574 126 508 q 292 675 226 639 q 433 711 358 711 q 533 692 492 711 q 599 641 574 674 q 636 566 625 608 q 647 478 647 524 q 620 283 647 374 q 545 126 593 193 q 433 22 497 60 q 294 -17 369 -17 q 190 3 232 -17 q 120 57 147 24 q 81 132 93 90 q 69 217 69 174 m 181 242 q 211 116 181 160 q 308 72 242 72 q 395 105 354 72 q 467 193 436 138 q 517 320 499 249 q 536 469 536 392 q 510 581 536 540 q 413 622 485 622 q 325 591 367 622 q 251 507 283 560 q 199 385 218 454 q 181 242 181 317 m 415 972 l 518 972 l 514 950 l 388 793 l 332 793 l 415 972 m 608 972 l 721 972 l 717 950 l 535 793 l 474 793 l 608 972 z "},"Œ":{"ha":1233,"x_min":100,"x_max":1290,"o":"m 763 858 q 692 881 731 874 q 588 889 653 889 q 428 845 497 889 q 311 728 358 801 q 240 558 264 654 q 217 357 217 463 q 225 267 217 315 q 257 178 233 219 q 324 110 281 138 q 436 83 367 83 q 474 84 456 83 q 511 87 492 85 q 553 94 531 89 q 604 107 575 99 l 763 858 m 582 0 q 514 -12 546 -8 q 431 -17 482 -17 q 306 1 365 -17 q 200 63 246 19 q 127 177 154 106 q 100 356 100 249 q 135 605 100 489 q 235 806 169 721 q 393 940 300 892 q 604 989 486 989 q 657 988 635 989 q 699 985 679 988 q 740 980 719 983 q 788 972 760 976 l 1290 972 l 1268 869 l 876 869 l 808 551 l 1167 551 l 1146 449 l 786 449 l 714 103 l 1113 103 l 1092 0 l 582 0 z "},"œ":{"ha":1089,"x_min":69,"x_max":1078,"o":"m 181 242 q 211 116 181 160 q 308 72 242 72 q 396 105 354 72 q 469 193 438 138 q 519 320 500 249 q 538 469 538 392 q 511 581 538 540 q 413 622 485 622 q 325 591 367 622 q 251 507 283 560 q 199 385 218 454 q 181 242 181 317 m 538 132 q 431 24 497 65 q 294 -17 365 -17 q 190 3 232 -17 q 120 57 147 24 q 81 132 93 90 q 69 217 69 174 q 98 417 69 326 q 176 574 126 508 q 292 675 226 639 q 433 711 358 711 q 566 669 521 711 q 626 558 611 626 q 742 672 674 632 q 885 711 810 711 q 972 697 935 711 q 1032 660 1008 683 q 1067 608 1056 638 q 1078 544 1078 578 q 982 390 1078 446 q 703 333 886 333 q 668 334 686 333 q 631 336 650 335 q 623 286 625 310 q 621 244 621 263 q 655 120 621 168 q 763 72 689 72 q 874 92 824 72 q 953 135 925 113 l 986 68 q 872 5 938 26 q 739 -17 806 -17 q 665 -5 699 -17 q 606 27 632 7 q 563 74 581 47 q 538 132 546 101 m 868 622 q 736 570 792 622 q 650 414 681 518 l 672 414 q 769 417 717 414 q 866 431 821 419 q 941 469 911 443 q 971 540 971 494 q 966 569 971 554 q 950 595 961 583 q 919 615 939 607 q 868 622 899 622 z "},"Ŕ":{"ha":789,"x_min":56,"x_max":774,"o":"m 260 963 q 372 978 318 974 q 481 983 426 983 q 583 970 533 983 q 672 928 633 957 q 733 854 710 900 q 756 743 756 808 q 684 540 756 621 q 476 435 613 458 l 526 385 l 676 0 l 556 0 l 389 419 l 258 440 l 167 0 l 56 0 l 260 963 m 474 883 q 407 881 440 883 q 351 875 374 879 l 275 517 l 371 517 q 469 526 421 517 q 555 561 517 536 q 616 629 593 586 q 639 738 639 672 q 629 788 639 763 q 600 835 619 814 q 549 870 581 857 q 474 883 517 883 m 613 1208 l 774 1208 l 767 1179 l 524 1044 l 422 1044 l 613 1208 z "},"ŕ":{"ha":454,"x_min":50,"x_max":535,"o":"m 503 603 q 477 607 490 606 q 453 608 464 608 q 331 564 382 608 q 250 456 279 519 l 154 0 l 50 0 l 197 694 l 269 694 l 269 575 l 275 575 q 311 624 292 601 q 354 665 331 647 q 406 694 378 683 q 467 704 433 704 q 531 694 497 704 l 503 603 m 418 1000 l 535 1000 l 528 971 l 357 793 l 296 793 l 418 1000 z "},"Ŗ":{"ha":789,"x_min":56,"x_max":756,"o":"m 260 963 q 372 978 318 974 q 481 983 426 983 q 583 970 533 983 q 672 928 633 957 q 733 854 710 900 q 756 743 756 808 q 684 540 756 621 q 476 435 613 458 l 526 385 l 676 0 l 556 0 l 389 419 l 258 440 l 167 0 l 56 0 l 260 963 m 474 883 q 407 881 440 883 q 351 875 374 879 l 275 517 l 371 517 q 469 526 421 517 q 555 561 517 536 q 616 629 593 586 q 639 738 639 672 q 629 788 639 763 q 600 835 619 814 q 549 870 581 857 q 474 883 517 883 m 231 -146 q 256 -95 231 -114 q 308 -76 281 -76 q 360 -99 344 -76 q 375 -154 375 -121 q 358 -226 375 -194 q 319 -282 342 -258 q 272 -321 296 -306 q 233 -340 249 -336 l 208 -296 q 258 -258 236 -281 q 286 -203 281 -236 q 244 -187 258 -203 q 231 -146 231 -172 z "},"ŗ":{"ha":454,"x_min":7,"x_max":531,"o":"m 503 603 q 477 607 490 606 q 453 608 464 608 q 331 564 382 608 q 250 456 279 519 l 154 0 l 50 0 l 197 694 l 269 694 l 269 575 l 275 575 q 311 624 292 601 q 354 665 331 647 q 406 694 378 683 q 467 704 433 704 q 531 694 497 704 l 503 603 m 29 -146 q 54 -95 29 -114 q 107 -76 79 -76 q 158 -99 143 -76 q 174 -154 174 -121 q 157 -226 174 -194 q 117 -282 140 -258 q 71 -321 94 -306 q 32 -340 47 -336 l 7 -296 q 57 -258 35 -281 q 85 -203 79 -236 q 43 -187 57 -203 q 29 -146 29 -172 z "},"Ř":{"ha":789,"x_min":56,"x_max":756,"o":"m 260 963 q 372 978 318 974 q 481 983 426 983 q 583 970 533 983 q 672 928 633 957 q 733 854 710 900 q 756 743 756 808 q 684 540 756 621 q 476 435 613 458 l 526 385 l 676 0 l 556 0 l 389 419 l 258 440 l 167 0 l 56 0 l 260 963 m 474 883 q 407 881 440 883 q 351 875 374 879 l 275 517 l 371 517 q 469 526 421 517 q 555 561 517 536 q 616 629 593 586 q 639 738 639 672 q 629 788 639 763 q 600 835 619 814 q 549 870 581 857 q 474 883 517 883 m 524 1036 l 458 1036 l 324 1179 l 328 1208 l 421 1208 l 485 1139 l 497 1092 l 531 1138 l 629 1208 l 735 1208 l 729 1178 l 524 1036 z "},"ř":{"ha":454,"x_min":50,"x_max":597,"o":"m 503 603 q 477 607 490 606 q 453 608 464 608 q 331 564 382 608 q 250 456 279 519 l 154 0 l 50 0 l 197 694 l 269 694 l 269 575 l 275 575 q 311 624 292 601 q 354 665 331 647 q 406 694 378 683 q 467 704 433 704 q 531 694 497 704 l 503 603 m 381 764 l 332 764 l 233 1017 l 333 1017 l 365 925 l 375 844 l 422 925 l 500 1017 l 597 1017 l 381 764 z "},"Ś":{"ha":701,"x_min":24,"x_max":808,"o":"m 539 250 q 513 335 539 300 q 449 398 488 369 q 365 453 410 426 q 281 514 319 479 q 216 596 242 549 q 190 713 190 643 q 217 839 190 786 q 291 925 244 892 q 401 974 338 958 q 535 989 464 989 q 679 976 615 989 q 779 944 743 964 l 724 846 q 641 875 696 861 q 514 889 586 889 q 365 847 422 889 q 307 726 307 806 q 333 640 307 675 q 397 576 358 604 q 481 521 436 547 q 565 460 526 494 q 630 379 604 426 q 656 264 656 332 q 558 56 656 129 q 279 -17 461 -17 q 122 -1 186 -17 q 24 35 57 15 l 81 136 q 167 101 113 118 q 297 83 222 83 q 383 91 340 83 q 461 118 426 99 q 517 169 496 138 q 539 250 539 201 m 647 1208 l 808 1208 l 801 1179 l 558 1044 l 457 1044 l 647 1208 z "},"ś":{"ha":553,"x_min":4,"x_max":572,"o":"m 360 196 q 342 257 360 232 q 296 302 324 282 q 236 342 268 322 q 176 385 204 361 q 131 442 149 410 q 113 524 113 475 q 131 597 113 563 q 183 656 150 631 q 260 697 215 682 q 358 711 306 711 q 472 701 432 711 q 544 674 513 692 l 510 590 q 358 622 454 622 q 262 598 300 622 q 224 524 224 574 q 242 473 224 494 q 288 432 260 451 q 347 392 315 413 q 407 347 379 372 q 453 286 435 321 q 471 204 471 251 q 398 40 471 96 q 203 -17 325 -17 q 88 -4 140 -17 q 4 28 36 8 l 43 115 q 116 85 71 97 q 210 72 161 72 q 319 102 278 72 q 360 196 360 132 m 456 1000 l 572 1000 l 565 971 l 394 793 l 333 793 l 456 1000 z "},"Ŝ":{"ha":701,"x_min":28,"x_max":783,"o":"m 543 250 q 517 335 543 300 q 453 398 492 369 q 369 453 414 426 q 285 514 324 479 q 220 596 246 549 q 194 713 194 643 q 222 839 194 786 q 295 925 249 892 q 405 974 342 958 q 539 989 468 989 q 683 976 619 989 q 783 944 747 964 l 728 846 q 645 875 700 861 q 518 889 590 889 q 369 847 426 889 q 311 726 311 806 q 337 640 311 675 q 401 576 363 604 q 485 521 440 547 q 569 460 531 494 q 634 379 608 426 q 660 264 660 332 q 563 56 660 129 q 283 -17 465 -17 q 126 -1 190 -17 q 28 35 61 15 l 85 136 q 172 101 117 118 q 301 83 226 83 q 388 91 344 83 q 465 118 431 99 q 522 169 500 138 q 543 250 543 201 m 546 1208 l 613 1208 l 750 1067 l 744 1038 l 650 1038 l 586 1106 l 572 1154 l 538 1107 l 439 1038 l 335 1038 l 342 1068 l 546 1208 z "},"ŝ":{"ha":553,"x_min":4,"x_max":547,"o":"m 360 196 q 342 257 360 232 q 296 302 324 282 q 236 342 268 322 q 176 385 204 361 q 131 442 149 410 q 113 524 113 475 q 131 597 113 563 q 183 656 150 631 q 260 697 215 682 q 358 711 306 711 q 472 701 432 711 q 544 674 513 692 l 510 590 q 358 622 454 622 q 262 598 300 622 q 224 524 224 574 q 242 473 224 494 q 288 432 260 451 q 347 392 315 413 q 407 347 379 372 q 453 286 435 321 q 471 204 471 251 q 398 40 471 96 q 203 -17 325 -17 q 88 -4 140 -17 q 4 28 36 8 l 43 115 q 116 85 71 97 q 210 72 161 72 q 319 102 278 72 q 360 196 360 132 m 414 1017 l 456 1017 l 547 764 l 460 764 l 426 856 l 418 936 l 371 856 l 292 764 l 197 764 l 414 1017 z "},"Ş":{"ha":701,"x_min":28,"x_max":783,"o":"m 543 250 q 517 335 543 300 q 453 398 492 369 q 369 453 414 426 q 285 514 324 479 q 220 596 246 549 q 194 713 194 643 q 222 839 194 786 q 295 925 249 892 q 405 974 342 958 q 539 989 468 989 q 683 976 619 989 q 783 944 747 964 l 728 846 q 645 875 700 861 q 518 889 590 889 q 369 847 426 889 q 311 726 311 806 q 337 640 311 675 q 401 576 363 604 q 485 521 440 547 q 569 460 531 494 q 634 379 608 426 q 660 264 660 332 q 576 68 660 140 q 338 -15 493 -4 l 304 -60 q 366 -88 342 -64 q 390 -157 390 -112 q 347 -253 390 -215 q 215 -290 303 -290 q 180 -288 199 -290 q 142 -283 161 -286 l 165 -229 q 180 -231 172 -231 q 194 -231 188 -231 q 243 -225 224 -231 q 274 -212 263 -219 q 289 -194 285 -204 q 293 -176 293 -185 q 264 -137 293 -150 q 186 -125 235 -125 l 264 -17 q 119 1 178 -14 q 28 35 60 15 l 85 136 q 172 101 117 118 q 301 83 226 83 q 388 91 344 83 q 465 118 431 99 q 522 169 500 138 q 543 250 543 201 z "},"ş":{"ha":553,"x_min":4,"x_max":544,"o":"m 360 196 q 342 257 360 232 q 296 302 324 282 q 236 342 268 322 q 176 385 204 361 q 131 442 149 410 q 113 524 113 475 q 131 597 113 563 q 183 656 150 631 q 260 697 215 682 q 358 711 306 711 q 472 701 432 711 q 544 674 513 692 l 510 590 q 358 622 454 622 q 262 598 300 622 q 224 524 224 574 q 242 473 224 494 q 288 432 260 451 q 347 392 315 413 q 407 347 379 372 q 453 286 435 321 q 471 204 471 251 q 408 48 471 104 q 240 -17 346 -8 l 207 -60 q 269 -88 244 -64 q 293 -157 293 -112 q 249 -253 293 -215 q 118 -290 206 -290 q 83 -288 101 -290 q 44 -283 64 -286 l 68 -229 q 83 -231 75 -231 q 97 -231 90 -231 q 146 -225 126 -231 q 176 -212 165 -219 q 192 -194 188 -204 q 196 -176 196 -185 q 167 -137 196 -150 q 89 -125 138 -125 l 168 -17 q 74 -2 115 -14 q 4 28 32 10 l 43 115 q 116 85 71 97 q 210 72 161 72 q 319 102 278 72 q 360 196 360 132 z "},"Š":{"ha":701,"x_min":24,"x_max":794,"o":"m 539 250 q 513 335 539 300 q 449 398 488 369 q 365 453 410 426 q 281 514 319 479 q 216 596 242 549 q 190 713 190 643 q 217 839 190 786 q 291 925 244 892 q 401 974 338 958 q 535 989 464 989 q 679 976 615 989 q 779 944 743 964 l 724 846 q 641 875 696 861 q 514 889 586 889 q 365 847 422 889 q 307 726 307 806 q 333 640 307 675 q 397 576 358 604 q 481 521 436 547 q 565 460 526 494 q 630 379 604 426 q 656 264 656 332 q 558 56 656 129 q 279 -17 461 -17 q 122 -1 186 -17 q 24 35 57 15 l 81 136 q 167 101 113 118 q 297 83 222 83 q 383 91 340 83 q 461 118 426 99 q 517 169 496 138 q 539 250 539 201 m 583 1036 l 518 1036 l 383 1179 l 388 1208 l 481 1208 l 544 1139 l 557 1092 l 590 1138 l 689 1208 l 794 1208 l 789 1178 l 583 1036 z "},"š":{"ha":553,"x_min":4,"x_max":610,"o":"m 360 196 q 342 257 360 232 q 296 302 324 282 q 236 342 268 322 q 176 385 204 361 q 131 442 149 410 q 113 524 113 475 q 131 597 113 563 q 183 656 150 631 q 260 697 215 682 q 358 711 306 711 q 472 701 432 711 q 544 674 513 692 l 510 590 q 358 622 454 622 q 262 598 300 622 q 224 524 224 574 q 242 473 224 494 q 288 432 260 451 q 347 392 315 413 q 407 347 379 372 q 453 286 435 321 q 471 204 471 251 q 398 40 471 96 q 203 -17 325 -17 q 88 -4 140 -17 q 4 28 36 8 l 43 115 q 116 85 71 97 q 210 72 161 72 q 319 102 278 72 q 360 196 360 132 m 393 764 l 344 764 l 246 1017 l 346 1017 l 378 925 l 388 844 l 435 925 l 513 1017 l 610 1017 l 393 764 z "},"Ţ":{"ha":733,"x_min":142,"x_max":857,"o":"m 836 869 l 549 869 l 365 0 l 350 0 l 304 -60 q 366 -88 342 -64 q 390 -157 390 -112 q 347 -253 390 -215 q 215 -290 303 -290 q 180 -288 199 -290 q 142 -283 161 -286 l 165 -229 q 180 -231 172 -231 q 194 -231 188 -231 q 243 -225 224 -231 q 274 -212 263 -219 q 289 -194 285 -204 q 293 -176 293 -185 q 186 -125 293 -125 l 276 0 l 254 0 l 438 869 l 153 869 l 174 972 l 857 972 l 836 869 z "},"ţ":{"ha":435,"x_min":38,"x_max":488,"o":"m 99 694 l 201 694 l 231 832 l 342 864 l 306 694 l 488 694 l 467 606 l 286 606 l 199 186 q 194 156 196 169 q 192 131 192 142 q 207 85 192 97 q 253 72 222 72 q 314 81 286 72 q 369 106 342 89 l 369 21 q 307 -4 344 6 q 233 -17 269 -14 l 200 -60 q 262 -88 238 -64 q 286 -157 286 -112 q 242 -253 286 -215 q 111 -290 199 -290 q 76 -288 94 -290 q 38 -283 57 -286 l 61 -229 q 76 -231 68 -231 q 90 -231 83 -231 q 139 -225 119 -231 q 169 -212 158 -219 q 185 -194 181 -204 q 189 -176 189 -185 q 82 -125 189 -125 l 163 -14 q 81 99 81 6 q 88 157 81 122 l 182 606 l 78 606 l 99 694 z "},"Ť":{"ha":733,"x_min":153,"x_max":857,"o":"m 836 869 l 549 869 l 365 0 l 254 0 l 438 869 l 153 869 l 174 972 l 857 972 l 836 869 m 560 1036 l 494 1036 l 360 1179 l 364 1208 l 457 1208 l 521 1139 l 533 1092 l 567 1138 l 665 1208 l 771 1208 l 765 1178 l 560 1036 z "},"ť":{"ha":435,"x_min":78,"x_max":560,"o":"m 99 694 l 201 694 l 231 832 l 342 864 l 306 694 l 488 694 l 467 606 l 286 606 l 199 186 q 194 156 196 169 q 192 131 192 142 q 207 85 192 97 q 253 72 222 72 q 314 81 286 72 q 369 106 342 89 l 369 21 q 294 -6 340 4 q 207 -17 249 -17 q 81 99 81 -17 q 88 157 81 122 l 182 606 l 78 606 l 99 694 m 560 992 q 527 909 549 951 q 481 831 506 867 q 433 767 456 794 q 396 726 410 739 l 358 751 q 416 865 392 801 q 454 992 440 928 l 560 992 z "},"Ū":{"ha":858,"x_min":121,"x_max":901,"o":"m 796 972 l 901 972 l 765 324 q 717 171 746 235 q 644 67 688 107 q 539 7 600 26 q 397 -12 478 -12 q 268 5 321 -12 q 183 53 215 22 q 135 130 150 85 q 121 229 121 175 q 136 358 121 286 l 265 972 l 376 972 l 247 357 q 232 246 232 296 q 278 124 232 158 q 414 90 324 90 q 509 106 468 90 q 580 153 550 121 q 630 235 610 185 q 665 356 650 285 l 796 972 m 406 1171 l 822 1171 l 804 1085 l 386 1085 l 406 1171 z "},"ū":{"ha":710,"x_min":83,"x_max":690,"o":"m 296 694 l 199 232 q 190 163 190 194 q 206 98 190 124 q 261 72 221 72 q 328 89 294 72 q 394 132 363 106 q 451 190 425 158 q 493 253 476 222 l 586 694 l 690 694 l 603 282 q 592 224 597 258 q 581 153 586 190 q 574 80 576 115 q 571 18 571 44 l 571 0 l 489 0 l 489 132 l 483 132 q 435 78 463 104 q 376 31 408 51 q 306 -3 343 10 q 226 -17 268 -17 q 170 -10 196 -17 q 125 15 144 -3 q 94 60 106 32 q 83 133 83 89 q 97 243 83 182 l 192 694 l 296 694 m 285 893 l 675 893 l 657 807 l 265 807 l 285 893 z "},"Ŭ":{"ha":858,"x_min":121,"x_max":901,"o":"m 796 972 l 901 972 l 765 324 q 717 171 746 235 q 644 67 688 107 q 539 7 600 26 q 397 -12 478 -12 q 268 5 321 -12 q 183 53 215 22 q 135 130 150 85 q 121 229 121 175 q 136 358 121 286 l 265 972 l 376 972 l 247 357 q 232 246 232 296 q 278 124 232 158 q 414 90 324 90 q 509 106 468 90 q 580 153 550 121 q 630 235 610 185 q 665 356 650 285 l 796 972 m 442 1210 q 492 1135 457 1161 q 581 1110 526 1110 q 657 1118 625 1110 q 713 1140 689 1126 q 754 1171 736 1153 q 788 1210 772 1189 l 844 1183 q 742 1057 810 1100 q 576 1014 674 1014 q 503 1027 536 1014 q 445 1063 469 1040 q 406 1115 421 1085 q 388 1176 392 1144 l 442 1210 z "},"ŭ":{"ha":710,"x_min":83,"x_max":697,"o":"m 296 694 l 199 232 q 190 163 190 194 q 206 98 190 124 q 261 72 221 72 q 328 89 294 72 q 394 132 363 106 q 451 190 425 158 q 493 253 476 222 l 586 694 l 690 694 l 603 282 q 592 224 597 258 q 581 153 586 190 q 574 80 576 115 q 571 18 571 44 l 571 0 l 489 0 l 489 132 l 483 132 q 435 78 463 104 q 376 31 408 51 q 306 -3 343 10 q 226 -17 268 -17 q 170 -10 196 -17 q 125 15 144 -3 q 94 60 106 32 q 83 133 83 89 q 97 243 83 182 l 192 694 l 296 694 m 361 1000 q 399 922 374 950 q 474 893 425 893 q 572 922 526 893 q 649 1000 617 950 l 697 975 q 663 909 686 942 q 609 851 640 876 q 540 811 578 826 q 463 796 501 796 q 344 842 390 796 q 294 968 297 889 l 361 1000 z "},"Ů":{"ha":858,"x_min":121,"x_max":901,"o":"m 796 972 l 901 972 l 765 324 q 717 171 746 235 q 644 67 688 107 q 539 7 600 26 q 397 -12 478 -12 q 268 5 321 -12 q 183 53 215 22 q 135 130 150 85 q 121 229 121 175 q 136 358 121 286 l 265 972 l 376 972 l 247 357 q 232 246 232 296 q 278 124 232 158 q 414 90 324 90 q 509 106 468 90 q 580 153 550 121 q 630 235 610 185 q 665 356 650 285 l 796 972 m 458 1067 q 493 1151 458 1118 q 604 1185 528 1185 q 713 1155 674 1185 q 751 1067 751 1125 q 715 984 751 1017 q 604 951 678 951 q 496 983 533 951 q 458 1067 458 1014 m 543 1067 q 558 1027 543 1043 q 604 1011 572 1011 q 651 1026 635 1011 q 667 1067 667 1042 q 651 1109 667 1093 q 604 1125 636 1125 q 558 1109 574 1125 q 543 1067 543 1093 z "},"ů":{"ha":710,"x_min":83,"x_max":690,"o":"m 296 694 l 199 232 q 190 163 190 194 q 206 98 190 124 q 261 72 221 72 q 328 89 294 72 q 394 132 363 106 q 451 190 425 158 q 493 253 476 222 l 586 694 l 690 694 l 603 282 q 592 224 597 258 q 581 153 586 190 q 574 80 576 115 q 571 18 571 44 l 571 0 l 489 0 l 489 132 l 483 132 q 435 78 463 104 q 376 31 408 51 q 306 -3 343 10 q 226 -17 268 -17 q 170 -10 196 -17 q 125 15 144 -3 q 94 60 106 32 q 83 133 83 89 q 97 243 83 182 l 192 694 l 296 694 m 340 893 q 377 985 340 951 q 475 1019 414 1019 q 572 989 533 1019 q 611 893 611 958 q 572 803 611 839 q 475 768 533 768 q 378 801 417 768 q 340 893 340 833 m 415 893 q 434 850 415 865 q 475 835 453 835 q 519 849 501 835 q 536 893 536 863 q 517 938 536 924 q 475 953 499 953 q 433 939 451 953 q 415 893 415 925 z "},"Ű":{"ha":858,"x_min":121,"x_max":901,"o":"m 796 972 l 901 972 l 765 324 q 717 171 746 235 q 644 67 688 107 q 539 7 600 26 q 397 -12 478 -12 q 268 5 321 -12 q 183 53 215 22 q 135 130 150 85 q 121 229 121 175 q 136 358 121 286 l 265 972 l 376 972 l 247 357 q 232 246 232 296 q 278 124 232 158 q 414 90 324 90 q 509 106 468 90 q 580 153 550 121 q 630 235 610 185 q 665 356 650 285 l 796 972 m 551 1181 l 674 1181 l 669 1158 l 510 1029 l 435 1029 l 551 1181 m 765 1181 l 894 1181 l 890 1158 l 674 1029 l 599 1029 l 765 1181 z "},"ű":{"ha":710,"x_min":83,"x_max":726,"o":"m 296 694 l 199 232 q 190 163 190 194 q 206 98 190 124 q 261 72 221 72 q 328 89 294 72 q 394 132 363 106 q 451 190 425 158 q 493 253 476 222 l 586 694 l 690 694 l 603 282 q 592 224 597 258 q 581 153 586 190 q 574 80 576 115 q 571 18 571 44 l 571 0 l 489 0 l 489 132 l 483 132 q 435 78 463 104 q 376 31 408 51 q 306 -3 343 10 q 226 -17 268 -17 q 170 -10 196 -17 q 125 15 144 -3 q 94 60 106 32 q 83 133 83 89 q 97 243 83 182 l 192 694 l 296 694 m 421 972 l 524 972 l 519 950 l 393 793 l 338 793 l 421 972 m 614 972 l 726 972 l 722 950 l 540 793 l 479 793 l 614 972 z "},"Ų":{"ha":858,"x_min":121,"x_max":901,"o":"m 796 972 l 901 972 l 765 324 q 684 112 738 189 q 539 6 631 35 q 460 -51 492 -17 q 426 -133 428 -85 q 438 -173 426 -157 q 482 -189 450 -189 q 540 -178 508 -189 l 542 -239 q 483 -263 517 -256 q 422 -271 450 -271 q 345 -246 376 -271 q 313 -169 314 -221 q 344 -78 313 -118 q 422 -11 376 -37 q 410 -12 415 -11 q 397 -12 404 -12 q 268 5 321 -12 q 183 53 215 22 q 135 130 150 85 q 121 229 121 175 q 136 358 121 286 l 265 972 l 376 972 l 247 357 q 232 246 232 296 q 278 124 232 158 q 414 90 324 90 q 509 106 468 90 q 580 153 550 121 q 630 235 610 185 q 665 356 650 285 l 796 972 z "},"ų":{"ha":710,"x_min":83,"x_max":690,"o":"m 296 694 l 199 232 q 190 163 190 194 q 206 98 190 124 q 261 72 221 72 q 328 89 294 72 q 394 132 363 106 q 451 190 425 158 q 493 253 476 222 l 586 694 l 690 694 l 603 282 q 592 224 597 258 q 581 153 586 190 q 574 80 576 115 q 571 18 571 44 l 571 0 l 549 0 q 510 -24 529 -10 q 474 -55 490 -37 q 447 -93 458 -72 q 435 -137 435 -114 q 448 -176 435 -161 q 492 -192 461 -192 q 547 -178 515 -192 l 549 -239 q 490 -263 525 -254 q 428 -271 456 -272 q 351 -248 378 -271 q 321 -179 324 -225 q 334 -115 319 -144 q 373 -63 349 -86 q 426 -23 397 -40 q 489 6 456 -6 l 489 132 l 483 132 q 435 78 463 104 q 376 31 408 51 q 306 -3 343 10 q 226 -17 268 -17 q 170 -10 196 -17 q 125 15 144 -3 q 94 60 106 32 q 83 133 83 89 q 97 243 83 182 l 192 694 l 296 694 z "},"Ÿ":{"ha":738,"x_min":150,"x_max":868,"o":"m 335 386 l 150 972 l 271 972 l 394 547 l 399 463 l 400 463 l 442 550 l 743 972 l 868 972 l 446 388 l 364 0 l 253 0 l 335 386 m 350 1103 q 369 1149 350 1131 q 421 1168 389 1168 q 472 1149 453 1168 q 490 1103 490 1131 q 472 1057 490 1075 q 421 1039 453 1039 q 369 1057 389 1039 q 350 1103 350 1075 m 604 1103 q 623 1149 604 1131 q 674 1168 642 1168 q 725 1149 706 1168 q 744 1103 744 1131 q 725 1057 744 1075 q 674 1039 706 1039 q 623 1057 642 1039 q 604 1103 604 1075 z "},"Ź":{"ha":722,"x_min":-1,"x_max":825,"o":"m 19 104 l 624 814 l 692 869 l 183 869 l 204 972 l 825 972 l 804 868 l 196 154 l 131 103 l 640 103 l 619 0 l -1 0 l 19 104 m 625 1208 l 786 1208 l 779 1179 l 536 1044 l 435 1044 l 625 1208 z "},"ź":{"ha":596,"x_min":-3,"x_max":613,"o":"m 15 96 l 406 539 l 482 599 l 124 599 l 144 694 l 613 694 l 592 599 l 197 151 l 122 96 l 485 96 l 465 0 l -3 0 l 15 96 m 465 1000 l 582 1000 l 575 971 l 404 793 l 343 793 l 465 1000 z "},"Ż":{"ha":722,"x_min":-1,"x_max":825,"o":"m 19 104 l 624 814 l 692 869 l 183 869 l 204 972 l 825 972 l 804 868 l 196 154 l 131 103 l 640 103 l 619 0 l -1 0 l 19 104 m 458 1106 q 482 1158 458 1138 q 540 1179 506 1179 q 600 1158 576 1179 q 624 1106 624 1138 q 600 1054 624 1075 q 540 1033 576 1033 q 482 1054 506 1033 q 458 1106 458 1075 z "},"ż":{"ha":596,"x_min":-3,"x_max":613,"o":"m 15 96 l 406 539 l 482 599 l 124 599 l 144 694 l 613 694 l 592 599 l 197 151 l 122 96 l 485 96 l 465 0 l -3 0 l 15 96 m 321 907 q 342 961 321 939 q 396 983 364 983 q 450 961 428 983 q 472 907 472 939 q 450 853 472 875 q 396 832 428 832 q 342 853 364 832 q 321 907 321 875 z "},"Ž":{"ha":722,"x_min":-1,"x_max":825,"o":"m 19 104 l 624 814 l 692 869 l 183 869 l 204 972 l 825 972 l 804 868 l 196 154 l 131 103 l 640 103 l 619 0 l -1 0 l 19 104 m 536 1036 l 471 1036 l 336 1179 l 340 1208 l 433 1208 l 497 1139 l 510 1092 l 543 1138 l 642 1208 l 747 1208 l 742 1178 l 536 1036 z "},"ž":{"ha":596,"x_min":-3,"x_max":618,"o":"m 15 96 l 406 539 l 482 599 l 124 599 l 144 694 l 613 694 l 592 599 l 197 151 l 122 96 l 485 96 l 465 0 l -3 0 l 15 96 m 401 764 l 353 764 l 254 1017 l 354 1017 l 386 925 l 396 844 l 443 925 l 521 1017 l 618 1017 l 401 764 z "},"ſ":{"ha":381,"x_min":-158,"x_max":606,"o":"m 200 606 l 94 606 l 113 694 l 219 694 l 228 733 q 261 844 242 797 q 309 922 281 892 q 377 966 338 951 q 469 981 417 981 q 543 975 513 981 q 606 954 574 969 l 564 872 q 510 889 536 886 q 460 892 483 892 q 402 878 425 892 q 364 838 379 864 q 340 775 349 811 q 322 694 331 739 l 203 0 q 174 -131 190 -76 q 133 -220 157 -185 q 72 -272 108 -256 q -15 -289 36 -289 q -92 -283 -57 -289 q -158 -261 -128 -276 l -128 -183 q -77 -197 -100 -193 q -21 -200 -54 -200 q 58 -145 32 -200 q 100 0 85 -90 l 200 606 z "},"ƒ":{"ha":722,"x_min":-43,"x_max":731,"o":"m 443 599 l 342 0 q 310 -142 325 -99 q 269 -219 294 -186 q 206 -270 243 -251 q 117 -289 169 -289 q 33 -279 76 -289 q -43 -256 -10 -269 l -14 -165 q 47 -186 18 -179 q 108 -193 75 -193 q 188 -146 161 -193 q 233 0 215 -99 l 328 599 l 210 599 l 210 694 l 343 694 l 358 788 q 419 940 375 890 q 563 989 463 989 q 652 979 608 989 q 731 954 696 969 l 699 865 q 571 893 632 893 q 500 861 519 893 q 468 751 481 829 l 458 694 l 625 694 l 625 599 l 443 599 z "},"Ǵ":{"ha":810,"x_min":99,"x_max":917,"o":"m 521 485 l 682 485 l 776 485 l 686 57 q 442 -17 588 -17 q 310 8 372 -17 q 201 83 249 33 q 126 206 154 132 q 99 378 99 279 q 149 665 99 549 q 277 853 199 782 q 450 957 356 925 q 633 989 544 989 q 765 978 713 989 q 849 953 817 968 l 800 851 q 726 876 772 867 q 621 886 679 886 q 467 855 540 886 q 338 761 394 824 q 249 606 282 699 q 215 392 215 514 q 231 274 215 329 q 277 176 246 218 q 355 110 308 135 q 465 86 401 86 q 542 95 510 86 q 606 121 574 104 l 663 392 l 507 419 l 521 485 m 756 1208 l 917 1208 l 910 1179 l 667 1044 l 565 1044 l 756 1208 z "},"ǵ":{"ha":701,"x_min":7,"x_max":682,"o":"m 535 -32 q 434 -231 506 -168 q 244 -294 363 -294 q 96 -272 154 -294 q 7 -232 38 -249 l 53 -154 q 80 -169 64 -160 q 119 -186 96 -178 q 174 -200 142 -194 q 251 -206 207 -206 q 368 -156 321 -206 q 439 1 415 -106 l 464 118 l 458 118 q 416 68 439 92 q 365 26 393 44 q 305 -4 338 7 q 233 -15 272 -15 q 113 39 158 -15 q 67 193 67 93 q 92 378 67 286 q 169 542 118 469 q 294 661 219 615 q 465 707 368 707 q 592 694 540 707 q 682 664 643 682 l 535 -32 m 272 74 q 341 92 307 74 q 403 138 375 110 q 455 200 432 167 q 493 263 478 233 l 564 597 q 510 614 542 610 q 444 618 478 618 q 339 585 388 618 q 255 495 290 551 q 199 365 219 439 q 178 211 178 292 q 203 110 178 147 q 272 74 229 74 m 549 1000 l 665 1000 l 658 971 l 488 793 l 426 793 l 549 1000 z "},"Ș":{"ha":701,"x_min":28,"x_max":783,"o":"m 543 250 q 517 335 543 300 q 453 398 492 369 q 369 453 414 426 q 285 514 324 479 q 220 596 246 549 q 194 713 194 643 q 222 839 194 786 q 295 925 249 892 q 405 974 342 958 q 539 989 468 989 q 683 976 619 989 q 783 944 747 964 l 728 846 q 645 875 700 861 q 518 889 590 889 q 369 847 426 889 q 311 726 311 806 q 337 640 311 675 q 401 576 363 604 q 485 521 440 547 q 569 460 531 494 q 634 379 608 426 q 660 264 660 332 q 563 56 660 129 q 283 -17 465 -17 q 126 -1 190 -17 q 28 35 61 15 l 85 136 q 172 101 117 118 q 301 83 226 83 q 388 91 344 83 q 465 118 431 99 q 522 169 500 138 q 543 250 543 201 m 190 -146 q 215 -95 190 -114 q 268 -76 240 -76 q 319 -99 304 -76 q 335 -154 335 -121 q 318 -226 335 -194 q 278 -282 301 -258 q 232 -321 256 -306 q 193 -340 208 -336 l 168 -296 q 218 -258 196 -281 q 246 -203 240 -236 q 204 -187 218 -203 q 190 -146 190 -172 z "},"ș":{"ha":553,"x_min":4,"x_max":544,"o":"m 360 196 q 342 257 360 232 q 296 302 324 282 q 236 342 268 322 q 176 385 204 361 q 131 442 149 410 q 113 524 113 475 q 131 597 113 563 q 183 656 150 631 q 260 697 215 682 q 358 711 306 711 q 472 701 432 711 q 544 674 513 692 l 510 590 q 358 622 454 622 q 262 598 300 622 q 224 524 224 574 q 242 473 224 494 q 288 432 260 451 q 347 392 315 413 q 407 347 379 372 q 453 286 435 321 q 471 204 471 251 q 398 40 471 96 q 203 -17 325 -17 q 88 -4 140 -17 q 4 28 36 8 l 43 115 q 116 85 71 97 q 210 72 161 72 q 319 102 278 72 q 360 196 360 132 m 104 -146 q 129 -95 104 -114 q 182 -76 154 -76 q 233 -99 218 -76 q 249 -154 249 -121 q 232 -226 249 -194 q 192 -282 215 -258 q 146 -321 169 -306 q 107 -340 122 -336 l 82 -296 q 132 -258 110 -281 q 160 -203 154 -236 q 118 -187 132 -203 q 104 -146 104 -172 z "},"Ț":{"ha":733,"x_min":153,"x_max":857,"o":"m 836 869 l 549 869 l 365 0 l 254 0 l 438 869 l 153 869 l 174 972 l 857 972 l 836 869 m 203 -146 q 228 -95 203 -114 q 281 -76 253 -76 q 332 -99 317 -76 q 347 -154 347 -121 q 331 -226 347 -194 q 291 -282 314 -258 q 244 -321 268 -306 q 206 -340 221 -336 l 181 -296 q 231 -258 208 -281 q 258 -203 253 -236 q 217 -187 231 -203 q 203 -146 203 -172 z "},"ț":{"ha":435,"x_min":60,"x_max":488,"o":"m 99 694 l 201 694 l 231 832 l 342 864 l 306 694 l 488 694 l 467 606 l 286 606 l 199 186 q 194 156 196 169 q 192 131 192 142 q 207 85 192 97 q 253 72 222 72 q 314 81 286 72 q 369 106 342 89 l 369 21 q 294 -6 340 4 q 207 -17 249 -17 q 81 99 81 -17 q 88 157 81 122 l 182 606 l 78 606 l 99 694 m 82 -146 q 107 -95 82 -114 q 160 -76 132 -76 q 211 -99 196 -76 q 226 -154 226 -121 q 210 -226 226 -194 q 170 -282 193 -258 q 124 -321 147 -306 q 85 -340 100 -336 l 60 -296 q 110 -258 88 -281 q 138 -203 132 -236 q 96 -187 110 -203 q 82 -146 82 -172 z "},"ȷ":{"ha":346,"x_min":-133,"x_max":310,"o":"m 206 694 l 310 694 l 161 -1 q 69 -228 131 -167 q -90 -289 7 -289 q -112 -288 -101 -289 q -133 -286 -122 -287 l -112 -196 q -44 -184 -71 -196 q 2 -147 -17 -172 q 34 -85 21 -122 q 58 1 47 -47 l 206 694 z "},"ʼ":{"ha":257,"x_min":167,"x_max":344,"o":"m 197 914 q 205 944 197 931 q 224 965 213 957 q 248 978 235 974 q 274 983 261 983 q 330 963 315 983 q 344 903 344 942 q 326 819 344 856 q 283 758 308 783 q 232 716 258 732 q 189 694 206 700 l 167 742 q 222 785 199 758 q 253 849 246 811 q 197 914 197 851 z "},"ˆ":{"ha":599,"x_min":278,"x_max":628,"o":"m 494 1017 l 536 1017 l 628 764 l 540 764 l 507 856 l 499 936 l 451 856 l 372 764 l 278 764 l 494 1017 z "},"ˇ":{"ha":599,"x_min":292,"x_max":656,"o":"m 439 764 l 390 764 l 292 1017 l 392 1017 l 424 925 l 433 844 l 481 925 l 558 1017 l 656 1017 l 439 764 z "},"˘":{"ha":396,"x_min":153,"x_max":556,"o":"m 219 1000 q 258 922 232 950 q 332 893 283 893 q 430 922 385 893 q 507 1000 475 950 l 556 975 q 522 909 544 942 q 467 851 499 876 q 398 811 436 826 q 321 796 360 796 q 202 842 249 796 q 153 968 156 889 l 219 1000 z "},"˙":{"ha":369,"x_min":265,"x_max":417,"o":"m 265 907 q 287 961 265 939 q 340 983 308 983 q 394 961 372 983 q 417 907 417 939 q 394 853 417 875 q 340 832 372 832 q 287 853 308 832 q 265 907 265 875 z "},"˚":{"ha":557,"x_min":306,"x_max":576,"o":"m 306 893 q 342 985 306 951 q 440 1019 379 1019 q 538 989 499 1019 q 576 893 576 958 q 538 803 576 839 q 440 768 499 768 q 344 801 382 768 q 306 893 306 833 m 381 893 q 399 850 381 865 q 440 835 418 835 q 484 849 467 835 q 501 893 501 863 q 483 938 501 924 q 440 953 464 953 q 399 939 417 953 q 381 893 381 925 z "},"˛":{"ha":531,"x_min":111,"x_max":357,"o":"m 357 14 q 308 -11 332 3 q 265 -42 285 -25 q 234 -83 246 -60 q 222 -133 222 -106 q 235 -173 222 -157 q 281 -189 249 -189 q 339 -178 307 -189 l 340 -237 q 282 -263 315 -256 q 221 -271 249 -271 q 142 -246 174 -271 q 111 -169 111 -221 q 126 -105 111 -135 q 166 -52 142 -75 q 222 -12 190 -29 q 286 14 253 4 l 357 14 z "},"˜":{"ha":485,"x_min":208,"x_max":576,"o":"m 208 911 q 285 974 253 957 q 343 992 318 992 q 381 983 364 992 q 413 963 397 974 q 445 944 429 953 q 481 936 461 936 q 556 969 513 936 l 576 910 q 507 854 536 869 q 454 839 478 839 q 417 847 433 839 q 384 866 400 856 q 351 885 368 876 q 314 893 335 893 q 275 884 296 893 q 226 853 254 875 l 208 911 z "},"˝":{"ha":660,"x_min":278,"x_max":667,"o":"m 361 972 l 464 972 l 460 950 l 333 793 l 278 793 l 361 972 m 554 972 l 667 972 l 663 950 l 481 793 l 419 793 l 554 972 z "},"́":{"ha":3,"x_min":-214,"x_max":25,"o":"m -92 1000 l 25 1000 l 18 971 l -153 793 l -214 793 l -92 1000 z "},"Δ":{"ha":790,"x_min":17,"x_max":772,"o":"m 17 0 l 17 51 l 369 988 l 417 988 l 772 51 l 772 0 l 17 0 m 144 100 l 638 100 l 422 660 l 389 806 l 388 806 l 349 657 l 144 100 z "},"Ω":{"ha":1115,"x_min":125,"x_max":1028,"o":"m 125 100 l 286 100 l 417 85 l 417 119 l 343 133 q 258 191 297 154 q 189 277 218 228 q 142 388 160 326 q 125 522 125 450 q 157 717 125 631 q 247 863 189 803 q 389 956 306 924 q 576 989 472 989 q 767 954 683 989 q 910 857 851 919 q 998 708 968 794 q 1028 517 1028 621 q 1008 381 1028 442 q 958 272 989 319 q 888 190 926 224 q 814 135 850 156 l 733 119 l 733 85 l 867 100 l 1028 100 l 1028 0 l 629 0 l 629 174 q 719 204 671 182 q 808 267 767 226 q 878 372 850 308 q 904 524 906 435 q 887 655 906 590 q 828 771 868 719 q 724 854 788 822 q 575 889 661 886 q 332 794 417 886 q 249 519 247 701 q 273 370 247 432 q 339 267 299 308 q 428 203 379 225 q 522 174 476 181 l 522 0 l 125 0 l 125 100 z "},"π":{"ha":878,"x_min":93,"x_max":858,"o":"m 635 161 q 631 131 631 142 q 663 92 631 92 q 693 94 676 92 q 722 100 710 97 l 732 25 q 676 5 708 15 q 603 -6 643 -6 q 536 15 556 -6 q 517 76 517 36 q 519 110 517 92 q 526 147 522 128 l 624 596 l 371 596 l 244 0 l 140 0 l 268 596 l 249 596 q 199 581 221 596 q 154 535 178 565 l 93 579 q 174 663 129 632 q 288 694 218 694 l 858 694 l 838 596 l 728 596 l 635 161 z "},"Ё":{"ha":708,"x_min":56,"x_max":764,"o":"m 263 972 l 764 972 l 743 869 l 350 869 l 282 551 l 642 551 l 621 449 l 261 449 l 188 103 l 588 103 l 565 0 l 165 0 l 56 0 l 263 972 m 333 1103 q 353 1149 333 1131 q 404 1168 372 1168 q 455 1149 436 1168 q 474 1103 474 1131 q 455 1057 474 1075 q 404 1039 436 1039 q 353 1057 372 1039 q 333 1103 333 1075 m 588 1103 q 606 1149 588 1131 q 657 1168 625 1168 q 708 1149 689 1168 q 728 1103 728 1131 q 708 1057 728 1075 q 657 1039 689 1039 q 606 1057 625 1039 q 588 1103 588 1075 z "},"Ђ":{"ha":963,"x_min":153,"x_max":907,"o":"m 365 0 l 254 0 l 439 869 l 153 869 l 174 972 l 857 972 l 836 869 l 549 869 l 488 576 q 549 594 504 583 q 665 606 594 606 q 778 587 732 606 q 853 535 824 568 q 894 460 882 503 q 907 369 907 417 q 883 219 907 289 q 810 99 858 150 q 691 18 763 47 q 526 -11 619 -11 q 460 -10 483 -11 q 428 -7 438 -10 l 450 93 q 483 90 465 90 q 539 89 500 89 q 646 110 599 89 q 725 167 693 131 q 774 251 757 203 q 790 353 790 299 q 748 470 790 435 q 621 506 706 506 q 573 502 597 506 q 528 494 549 499 q 490 483 507 489 q 464 475 472 478 l 365 0 z "},"Ѓ":{"ha":583,"x_min":56,"x_max":767,"o":"m 735 869 l 350 869 l 167 0 l 56 0 l 263 972 l 756 972 l 735 869 m 606 1208 l 767 1208 l 760 1179 l 517 1044 l 415 1044 l 606 1208 z "},"Є":{"ha":772,"x_min":99,"x_max":850,"o":"m 682 40 q 574 -4 633 8 q 444 -17 514 -17 q 299 13 363 -17 q 190 97 235 43 q 122 222 146 150 q 99 381 99 294 q 144 652 99 538 q 265 842 190 767 q 434 953 340 917 q 624 989 528 989 q 760 978 703 989 q 850 951 818 967 l 800 850 q 719 876 772 865 q 608 886 667 886 q 485 863 544 886 q 376 797 426 840 q 290 692 326 754 q 233 551 253 631 l 650 551 l 628 449 l 217 449 q 215 421 215 433 q 215 393 215 408 q 233 270 215 326 q 283 173 250 214 q 363 109 315 132 q 472 86 411 86 q 588 101 538 86 q 672 135 639 115 l 682 40 z "},"Ѕ":{"ha":701,"x_min":24,"x_max":779,"o":"m 539 250 q 513 335 539 300 q 449 398 488 369 q 365 453 410 426 q 281 514 319 479 q 216 596 242 549 q 190 713 190 643 q 217 839 190 786 q 291 925 244 892 q 401 974 338 958 q 535 989 464 989 q 679 976 615 989 q 779 944 743 964 l 724 846 q 641 875 696 861 q 514 889 586 889 q 365 847 422 889 q 307 726 307 806 q 333 640 307 675 q 397 576 358 604 q 481 521 436 547 q 565 460 526 494 q 630 379 604 426 q 656 264 656 332 q 558 56 656 129 q 279 -17 461 -17 q 122 -1 186 -17 q 24 35 57 15 l 81 136 q 167 101 113 118 q 297 83 222 83 q 383 91 340 83 q 461 118 426 99 q 517 169 496 138 q 539 250 539 201 z "},"І":{"ha":385,"x_min":86,"x_max":403,"o":"m 292 972 l 403 972 l 197 0 l 86 0 l 292 972 z "},"Ї":{"ha":385,"x_min":86,"x_max":521,"o":"m 217 1101 q 235 1149 217 1129 q 283 1168 253 1168 q 332 1149 314 1168 q 350 1101 350 1129 q 332 1055 350 1074 q 283 1036 314 1036 q 235 1055 253 1036 q 217 1101 217 1074 m 388 1101 q 406 1149 388 1129 q 454 1168 424 1168 q 503 1149 485 1168 q 521 1101 521 1129 q 503 1055 521 1074 q 454 1036 485 1036 q 406 1055 424 1036 q 388 1101 388 1074 m 292 972 l 403 972 l 197 0 l 86 0 l 292 972 z "},"Ј":{"ha":386,"x_min":-85,"x_max":419,"o":"m 308 972 l 419 972 l 258 214 q 228 116 246 158 q 184 44 211 74 q 117 1 157 15 q 22 -14 78 -14 q -3 -12 11 -14 q -33 -8 -18 -11 q -62 -1 -49 -6 q -85 8 -76 3 l -43 107 q 32 89 -17 89 q 81 99 61 89 q 114 130 100 110 q 137 178 128 150 q 153 242 146 206 l 308 972 z "},"Љ":{"ha":1224,"x_min":-58,"x_max":1200,"o":"m 729 869 l 457 869 q 334 409 393 593 q 210 121 275 225 q 120 23 167 53 q 22 -7 74 -7 q -22 -3 -1 -7 q -58 7 -43 0 l -21 107 q 10 103 -7 103 q 63 119 36 103 q 118 178 90 136 q 172 278 143 215 q 233 435 201 340 q 300 663 265 531 q 372 972 335 794 l 483 972 l 863 972 l 783 594 q 805 598 790 596 q 837 602 819 600 q 874 605 854 604 q 908 606 893 606 q 1019 592 967 606 q 1113 548 1072 578 q 1176 471 1153 518 q 1200 356 1200 424 q 1167 192 1200 261 q 1074 77 1133 122 q 936 10 1015 32 q 765 -11 857 -11 q 703 -10 736 -11 q 658 -7 671 -8 q 606 -2 624 -4 q 572 3 588 0 q 547 10 557 7 l 729 869 m 792 89 q 901 103 849 89 q 994 149 954 118 q 1059 228 1035 181 q 1083 344 1083 276 q 1027 467 1083 428 q 879 506 971 506 q 851 504 868 506 q 816 501 833 503 q 783 497 799 500 q 760 493 768 494 l 678 97 q 726 91 694 93 q 792 89 758 89 z "},"Њ":{"ha":1286,"x_min":56,"x_max":1263,"o":"m 708 465 l 265 465 l 167 0 l 56 0 l 261 972 l 372 972 l 286 568 l 729 568 l 814 972 l 925 972 l 840 568 q 900 576 860 572 q 972 579 940 579 q 1088 564 1035 579 q 1180 519 1142 549 q 1240 443 1218 489 q 1263 336 1263 397 q 1150 76 1263 164 q 826 -11 1038 -11 q 781 -10 808 -11 q 722 -7 754 -10 q 663 -1 692 -6 q 611 8 635 3 l 708 465 m 854 89 q 1076 153 1007 89 q 1146 326 1146 217 q 1090 447 1146 414 q 940 479 1033 479 q 910 478 928 479 q 874 475 892 476 q 840 471 856 474 q 818 467 825 468 l 740 97 q 789 91 757 93 q 854 89 821 89 z "},"Ћ":{"ha":989,"x_min":153,"x_max":921,"o":"m 365 0 l 254 0 l 438 869 l 153 869 l 174 972 l 857 972 l 836 869 l 549 869 l 482 549 q 581 592 524 572 q 711 611 638 611 q 793 600 754 611 q 860 565 832 589 q 904 502 888 540 q 921 411 921 464 q 911 325 921 369 l 844 0 l 733 0 l 800 310 q 810 381 808 349 q 675 508 808 508 q 559 490 613 508 q 458 444 506 472 l 365 0 z "},"Ќ":{"ha":800,"x_min":56,"x_max":867,"o":"m 332 450 l 261 450 l 167 0 l 56 0 l 261 972 l 372 972 l 275 519 l 331 539 l 729 972 l 867 972 l 469 550 l 406 507 l 460 451 l 703 0 l 576 0 l 332 450 m 640 1208 l 801 1208 l 794 1179 l 551 1044 l 450 1044 l 640 1208 z "},"Ў":{"ha":731,"x_min":75,"x_max":882,"o":"m 408 460 l 417 336 l 422 336 l 475 464 l 760 972 l 882 972 l 514 340 q 415 175 457 242 q 338 68 374 108 q 269 10 303 28 q 192 -7 235 -7 q 121 2 147 -7 q 75 24 94 11 l 129 119 q 169 101 151 106 q 206 96 186 96 q 276 142 242 96 q 351 258 311 188 l 163 972 l 281 972 l 408 460 m 422 1208 q 448 1129 422 1157 q 519 1101 474 1101 q 615 1130 578 1101 q 668 1207 653 1158 l 769 1183 q 679 1065 744 1108 q 514 1021 614 1021 q 375 1067 419 1021 q 328 1181 331 1114 l 422 1208 z "},"Џ":{"ha":871,"x_min":56,"x_max":908,"o":"m 56 0 l 261 972 l 372 972 l 188 103 l 614 103 l 797 972 l 908 972 l 701 0 l 425 0 l 379 -249 l 276 -249 l 338 0 l 56 0 z "},"А":{"ha":774,"x_min":-46,"x_max":707,"o":"m 561 269 l 222 269 l 72 0 l -46 0 l 515 988 l 567 988 l 707 0 l 600 0 l 561 269 m 276 369 l 550 369 l 510 665 l 507 813 l 506 813 l 443 663 l 276 369 z "},"Б":{"ha":728,"x_min":56,"x_max":760,"o":"m 260 972 l 760 972 l 739 869 l 347 869 l 286 578 q 343 586 310 582 q 408 590 376 590 q 619 527 546 590 q 692 351 692 464 q 655 181 692 250 q 559 69 618 111 q 426 8 500 26 q 276 -11 351 -11 q 226 -10 254 -11 q 163 -7 199 -10 q 107 -1 135 -4 q 56 10 79 3 l 260 972 m 311 89 q 406 103 358 89 q 490 146 453 117 q 551 222 528 175 q 575 333 575 268 q 522 454 575 418 q 376 490 468 490 q 349 489 365 490 q 316 486 332 488 q 286 483 300 485 q 265 479 272 481 l 185 97 q 240 90 201 92 q 311 89 278 89 z "},"В":{"ha":772,"x_min":56,"x_max":779,"o":"m 779 765 q 763 667 779 711 q 715 589 746 622 q 644 535 685 556 q 556 508 603 515 l 556 503 q 614 480 586 496 q 663 440 642 464 q 696 385 683 417 q 708 317 708 354 q 670 156 708 219 q 573 56 632 93 q 441 3 514 18 q 297 -11 368 -11 q 244 -11 275 -11 q 164 -8 213 -11 q 56 7 81 0 l 258 964 q 377 978 311 972 q 519 983 443 983 q 618 970 571 983 q 701 931 665 957 q 758 863 736 904 q 779 765 779 821 m 328 89 q 424 101 376 89 q 508 138 471 113 q 569 203 546 163 q 592 301 592 243 q 571 373 592 344 q 517 418 550 401 q 441 441 483 435 q 356 447 399 447 l 258 447 l 185 99 q 210 94 193 96 q 248 92 228 93 q 290 90 268 90 q 328 89 311 89 m 351 542 q 407 542 375 542 q 461 546 439 543 q 529 565 493 553 q 595 601 565 578 q 644 659 625 624 q 663 747 663 694 q 651 812 663 786 q 616 853 639 838 q 561 876 593 869 q 490 883 529 883 q 407 881 446 883 q 349 875 368 879 l 278 542 l 351 542 z "},"Г":{"ha":583,"x_min":56,"x_max":756,"o":"m 735 869 l 350 869 l 167 0 l 56 0 l 263 972 l 756 972 l 735 869 z "},"Д":{"ha":885,"x_min":-87,"x_max":874,"o":"m 751 -179 l 675 -179 l 693 0 l 46 0 l -12 -179 l -87 -179 l -29 103 l 64 103 q 114 172 78 118 q 196 330 150 226 q 291 592 242 433 q 381 972 340 750 l 485 972 l 874 972 l 689 103 l 811 103 l 751 -179 m 579 103 l 742 869 l 464 869 q 324 379 396 565 q 189 103 253 193 l 579 103 z "},"Е":{"ha":708,"x_min":56,"x_max":764,"o":"m 263 972 l 764 972 l 743 869 l 350 869 l 282 551 l 642 551 l 621 449 l 261 449 l 188 103 l 588 103 l 565 0 l 165 0 l 56 0 l 263 972 z "},"Ж":{"ha":1065,"x_min":-61,"x_max":1171,"o":"m 619 972 l 724 972 l 628 519 l 679 539 l 1036 972 l 1171 972 l 815 550 l 750 506 l 806 449 l 1006 0 l 883 0 l 682 450 l 613 450 l 518 0 l 414 0 l 513 467 l 461 449 l 78 0 l -61 0 l 321 435 l 394 488 l 347 536 l 163 972 l 285 972 l 460 536 l 526 536 l 619 972 z "},"З":{"ha":715,"x_min":8,"x_max":724,"o":"m 228 460 l 249 556 l 268 556 q 330 558 293 556 q 389 563 367 560 q 465 580 426 567 q 535 617 504 593 q 587 675 567 640 q 607 757 607 710 q 563 854 607 819 q 442 889 518 889 q 324 877 371 889 q 238 851 276 865 l 226 942 q 323 973 258 957 q 472 989 388 989 q 571 976 525 989 q 651 938 617 963 q 704 875 685 913 q 724 788 724 838 q 705 682 724 728 q 655 603 686 636 q 582 549 624 569 q 494 522 540 529 l 494 517 q 552 495 524 510 q 603 456 581 481 q 640 394 626 431 q 654 306 654 357 q 617 152 654 214 q 519 53 579 90 q 387 -1 460 15 q 242 -17 314 -17 q 98 -6 154 -17 q 8 19 42 4 l 58 121 q 138 94 86 106 q 267 83 189 83 q 363 95 314 83 q 450 133 411 107 q 513 202 489 160 q 538 306 538 244 q 523 375 538 347 q 483 421 508 403 q 426 447 458 439 q 361 458 394 456 q 331 460 346 460 q 300 460 315 460 l 228 460 z "},"И":{"ha":900,"x_min":56,"x_max":936,"o":"m 757 650 l 790 763 l 786 763 l 704 646 l 126 0 l 56 0 l 263 972 l 374 972 l 233 311 l 199 206 l 204 206 l 286 319 l 865 972 l 936 972 l 731 0 l 619 0 l 757 650 z "},"Й":{"ha":900,"x_min":56,"x_max":936,"o":"m 757 650 l 790 763 l 786 763 l 704 646 l 126 0 l 56 0 l 263 972 l 374 972 l 233 311 l 199 206 l 204 206 l 286 319 l 865 972 l 936 972 l 731 0 l 619 0 l 757 650 m 532 1208 q 558 1129 532 1157 q 629 1101 583 1101 q 725 1130 688 1101 q 778 1207 763 1158 l 879 1183 q 789 1065 854 1108 q 624 1021 724 1021 q 485 1067 529 1021 q 438 1181 440 1114 l 532 1208 z "},"К":{"ha":800,"x_min":56,"x_max":867,"o":"m 332 450 l 261 450 l 167 0 l 56 0 l 261 972 l 372 972 l 275 519 l 331 539 l 729 972 l 867 972 l 469 550 l 406 507 l 460 451 l 703 0 l 576 0 l 332 450 z "},"Л":{"ha":825,"x_min":-58,"x_max":861,"o":"m 729 869 l 457 869 q 334 409 393 593 q 210 121 275 225 q 120 23 167 53 q 22 -7 74 -7 q -22 -3 -1 -7 q -58 7 -43 0 l -21 107 q 10 103 -7 103 q 63 119 36 103 q 118 178 90 136 q 172 278 143 215 q 233 435 201 340 q 300 663 265 531 q 372 972 335 794 l 481 972 l 861 972 l 656 0 l 544 0 l 729 869 z "},"М":{"ha":1047,"x_min":56,"x_max":1083,"o":"m 904 653 l 947 799 l 942 799 l 864 665 l 531 226 l 497 226 l 338 665 l 317 799 l 311 799 l 300 654 l 161 0 l 56 0 l 263 972 l 339 972 l 519 475 l 540 367 l 542 367 l 606 478 l 985 972 l 1083 972 l 876 0 l 765 0 l 904 653 z "},"Н":{"ha":888,"x_min":56,"x_max":924,"o":"m 701 446 l 260 446 l 167 0 l 56 0 l 261 972 l 372 972 l 283 549 l 724 549 l 813 972 l 924 972 l 718 0 l 607 0 l 701 446 z "},"О":{"ha":904,"x_min":99,"x_max":899,"o":"m 99 356 q 133 599 99 483 q 233 801 168 714 q 388 938 297 888 q 590 989 479 989 q 714 969 657 989 q 812 905 771 949 q 876 792 853 861 q 899 622 899 722 q 864 376 899 492 q 767 172 829 260 q 617 34 704 85 q 426 -17 531 -17 q 181 78 263 -17 q 99 356 99 174 m 215 357 q 269 155 215 226 q 429 83 324 83 q 572 126 507 83 q 683 243 636 169 q 756 414 731 317 q 782 619 782 511 q 764 753 782 700 q 716 835 746 806 q 648 877 686 865 q 571 889 610 889 q 426 845 492 889 q 315 728 361 801 q 242 558 268 654 q 215 357 215 461 z "},"П":{"ha":871,"x_min":56,"x_max":907,"o":"m 775 869 l 350 869 l 167 0 l 56 0 l 263 972 l 907 972 l 701 0 l 590 0 l 775 869 z "},"Р":{"ha":739,"x_min":56,"x_max":786,"o":"m 260 963 q 371 979 313 975 q 486 983 429 983 q 605 969 550 983 q 700 925 660 956 q 763 847 740 894 q 786 732 786 799 q 748 556 786 626 q 648 442 710 485 q 508 382 586 400 q 351 364 431 364 q 330 364 344 364 q 299 365 315 364 q 267 367 282 365 q 244 369 251 368 l 167 0 l 56 0 l 260 963 m 463 883 q 401 881 431 883 q 351 875 371 879 l 267 471 q 285 467 272 468 q 313 465 299 467 q 342 464 328 464 q 363 464 356 464 q 478 476 422 464 q 576 519 533 489 q 644 599 618 550 q 669 721 669 647 q 653 803 669 771 q 608 852 636 835 q 542 876 579 869 q 463 883 504 883 z "},"С":{"ha":756,"x_min":99,"x_max":835,"o":"m 667 40 q 567 -4 619 8 q 444 -17 514 -17 q 299 13 363 -17 q 190 97 235 43 q 122 222 146 150 q 99 381 99 294 q 144 652 99 538 q 265 842 190 767 q 434 953 340 917 q 624 989 528 989 q 753 978 703 989 q 835 951 803 967 l 785 850 q 712 876 757 865 q 608 886 667 886 q 459 852 531 886 q 333 754 388 818 q 247 599 279 690 q 215 393 215 507 q 233 270 215 326 q 283 173 250 214 q 363 109 315 132 q 472 86 411 86 q 581 101 538 86 q 658 135 624 115 l 667 40 z "},"Т":{"ha":733,"x_min":153,"x_max":857,"o":"m 836 869 l 549 869 l 365 0 l 254 0 l 438 869 l 153 869 l 174 972 l 857 972 l 836 869 z "},"У":{"ha":731,"x_min":75,"x_max":882,"o":"m 408 460 l 417 336 l 422 336 l 475 464 l 760 972 l 882 972 l 514 340 q 415 175 457 242 q 338 68 374 108 q 269 10 303 28 q 192 -7 235 -7 q 121 2 147 -7 q 75 24 94 11 l 129 119 q 169 101 151 106 q 206 96 186 96 q 276 142 242 96 q 351 258 311 188 l 163 972 l 281 972 l 408 460 z "},"Ф":{"ha":1031,"x_min":88,"x_max":1042,"o":"m 429 111 q 383 103 406 106 q 328 101 360 101 q 248 115 290 101 q 170 161 206 128 q 111 250 135 194 q 88 390 88 306 q 117 596 88 504 q 203 752 147 688 q 336 851 258 817 q 508 886 414 886 q 553 885 526 886 q 593 881 579 883 l 619 1000 l 726 1000 l 700 876 q 753 885 726 883 q 800 886 779 886 q 894 870 850 886 q 972 821 939 854 q 1023 734 1004 788 q 1042 606 1042 681 q 1008 390 1042 483 q 919 232 975 296 q 788 135 863 168 q 629 101 713 101 q 582 103 611 101 q 538 111 553 106 l 507 -28 l 400 -28 l 429 111 m 768 790 q 724 789 750 790 q 678 781 697 788 l 554 201 q 590 198 568 199 q 631 197 611 197 q 758 230 703 197 q 850 317 813 263 q 906 443 888 372 q 925 590 925 514 q 882 744 925 699 q 768 790 839 790 m 364 197 q 405 198 378 197 q 451 206 432 199 l 574 785 q 536 789 558 788 q 494 790 514 790 q 376 761 429 790 q 284 680 322 732 q 225 556 246 628 q 204 397 204 483 q 218 302 204 340 q 255 240 232 264 q 306 207 278 217 q 364 197 335 197 z "},"Х":{"ha":817,"x_min":-10,"x_max":925,"o":"m 401 497 l 221 972 l 342 972 l 461 643 l 478 564 l 525 643 l 790 972 l 925 972 l 538 501 l 735 0 l 614 0 l 481 349 l 461 432 l 408 349 l 125 0 l -10 0 l 401 497 z "},"Ц":{"ha":908,"x_min":56,"x_max":897,"o":"m 775 -179 l 700 -179 l 717 0 l 692 0 l 579 0 l 169 0 l 56 0 l 263 972 l 374 972 l 189 103 l 603 103 l 786 972 l 897 972 l 714 103 l 835 103 l 775 -179 z "},"Ч":{"ha":800,"x_min":167,"x_max":836,"o":"m 357 972 l 290 660 q 283 622 286 640 q 281 588 281 603 q 411 460 281 460 q 531 477 474 460 q 629 524 589 494 l 725 972 l 836 972 l 631 0 l 519 0 l 608 419 q 512 376 568 396 q 376 357 456 357 q 297 367 335 357 q 229 402 258 378 q 183 465 200 426 q 167 558 167 503 q 176 644 167 600 l 246 972 l 357 972 z "},"Ш":{"ha":1160,"x_min":56,"x_max":1196,"o":"m 578 0 l 467 0 l 167 0 l 56 0 l 263 972 l 374 972 l 189 103 l 490 103 l 674 972 l 785 972 l 600 103 l 901 103 l 1085 972 l 1196 972 l 989 0 l 878 0 l 578 0 z "},"Щ":{"ha":1206,"x_min":56,"x_max":1196,"o":"m 167 0 l 56 0 l 263 972 l 374 972 l 189 103 l 490 103 l 674 972 l 785 972 l 600 103 l 901 103 l 1085 972 l 1196 972 l 1011 103 l 1133 103 l 1074 -179 l 997 -179 l 1015 0 l 989 0 l 878 0 l 578 0 l 467 0 l 167 0 z "},"Ъ":{"ha":831,"x_min":128,"x_max":807,"o":"m 338 869 l 128 869 l 149 972 l 469 972 l 389 594 q 413 598 397 596 q 446 602 428 600 q 483 605 464 604 q 517 606 501 606 q 626 592 574 606 q 719 549 679 579 q 783 472 760 519 q 807 357 807 425 q 774 193 807 263 q 683 78 742 124 q 545 11 625 33 q 371 -11 465 -11 q 326 -10 353 -11 q 263 -7 299 -10 q 207 -1 235 -6 q 156 10 179 3 l 338 869 m 397 89 q 513 105 460 89 q 606 153 567 121 q 668 233 646 185 q 690 343 690 281 q 674 420 690 389 q 629 470 657 451 q 565 497 601 489 q 488 506 528 506 q 458 504 475 506 q 422 501 440 503 q 389 497 404 500 q 367 493 374 494 l 283 97 q 333 91 301 93 q 397 89 364 89 z "},"Ы":{"ha":1018,"x_min":56,"x_max":1054,"o":"m 943 972 l 1054 972 l 849 0 l 738 0 l 943 972 m 260 972 l 371 972 l 292 594 q 345 602 314 599 q 408 606 376 606 q 515 590 465 606 q 600 544 564 575 q 656 469 636 514 q 676 364 676 424 q 641 192 676 264 q 547 76 606 121 q 410 10 488 31 q 251 -11 333 -11 q 164 -8 218 -11 q 56 10 101 -3 l 260 972 m 282 89 q 387 106 336 89 q 476 154 438 122 q 537 235 514 186 q 560 349 560 283 q 511 467 560 429 q 368 506 463 506 q 314 501 344 506 q 268 493 283 497 l 186 97 q 228 91 206 93 q 282 89 250 89 z "},"Ь":{"ha":732,"x_min":56,"x_max":708,"o":"m 260 972 l 371 972 l 292 594 q 313 598 299 596 q 345 602 328 600 q 382 605 363 604 q 417 606 401 606 q 528 592 475 606 q 621 548 581 578 q 685 471 661 518 q 708 356 708 424 q 675 192 708 261 q 583 77 642 122 q 444 10 524 32 q 274 -11 365 -11 q 228 -10 256 -11 q 164 -7 201 -10 q 109 -1 138 -6 q 56 10 81 3 l 260 972 m 300 89 q 410 103 357 89 q 503 149 463 118 q 567 228 543 181 q 592 344 592 276 q 535 467 592 428 q 388 506 479 506 q 359 504 376 506 q 324 501 342 503 q 290 497 306 500 q 268 493 275 494 l 186 97 q 235 91 203 93 q 300 89 267 89 z "},"Э":{"ha":769,"x_min":15,"x_max":767,"o":"m 267 544 l 653 544 q 655 576 654 560 q 656 608 656 593 q 596 815 656 740 q 406 889 536 889 q 296 875 343 889 q 214 843 249 861 l 206 935 q 308 974 253 960 q 432 989 363 989 q 597 956 532 989 q 699 870 661 922 q 751 753 736 818 q 767 626 767 689 q 734 373 767 490 q 635 169 701 256 q 465 33 568 83 q 221 -17 363 -17 q 103 -7 157 -17 q 15 18 49 3 l 67 119 q 142 94 94 104 q 243 83 190 83 q 378 107 314 83 q 497 177 443 131 q 587 291 550 224 q 639 446 624 358 l 247 446 l 267 544 z "},"Ю":{"ha":1196,"x_min":56,"x_max":1190,"o":"m 283 549 l 446 549 q 628 882 511 775 q 892 989 744 989 q 1110 909 1029 989 q 1190 667 1190 829 q 1158 405 1190 529 q 1063 187 1125 281 q 910 38 1000 93 q 704 -17 819 -17 q 578 9 631 -17 q 491 81 525 35 q 441 190 457 126 q 425 328 425 253 q 433 446 425 385 l 260 446 l 167 0 l 56 0 l 261 972 l 372 972 l 283 549 m 539 324 q 549 231 539 275 q 581 155 558 188 q 641 103 604 122 q 733 83 678 83 q 869 130 807 83 q 977 254 932 176 q 1048 435 1022 332 q 1074 653 1074 539 q 1026 824 1074 760 q 888 889 978 889 q 747 843 811 889 q 637 720 683 797 q 565 540 590 643 q 539 324 539 438 z "},"Я":{"ha":754,"x_min":-18,"x_max":790,"o":"m 588 0 l 476 0 l 565 422 l 431 393 l 115 0 l -18 0 l 260 349 l 353 410 q 297 436 326 418 q 242 483 267 454 q 200 552 217 511 q 183 650 183 593 q 220 810 183 746 q 315 913 257 874 q 447 967 374 951 q 592 983 519 983 q 690 979 636 983 q 790 963 744 975 l 588 0 m 565 883 q 469 872 517 883 q 385 835 422 861 q 324 766 347 810 q 300 658 300 722 q 349 535 300 579 q 489 490 399 490 l 579 490 l 661 875 q 622 881 644 879 q 565 883 599 883 z "},"а":{"ha":676,"x_min":63,"x_max":663,"o":"m 575 274 q 560 169 564 222 q 556 71 556 117 q 556 31 556 50 q 558 -3 556 13 l 481 -3 l 461 118 l 456 118 q 415 70 439 94 q 361 26 390 46 q 299 -5 332 7 q 228 -17 265 -17 q 63 199 63 -17 q 85 379 63 288 q 156 544 108 471 q 280 665 204 618 q 463 713 356 713 q 558 703 501 713 q 663 679 614 694 l 575 274 m 260 72 q 324 88 293 72 q 381 128 354 104 q 429 178 408 151 q 463 229 450 206 l 540 604 q 435 624 499 624 q 322 586 371 624 q 240 488 274 549 q 190 351 207 428 q 174 199 174 275 q 194 109 174 146 q 260 72 215 72 z "},"б":{"ha":693,"x_min":83,"x_max":753,"o":"m 214 531 q 337 654 272 617 q 485 692 401 692 q 622 638 581 692 q 664 486 664 583 q 634 278 664 371 q 554 119 604 185 q 440 19 504 54 q 304 -17 375 -17 q 201 4 243 -17 q 133 60 158 25 q 95 140 107 94 q 83 238 83 186 q 112 511 83 385 q 190 733 140 638 q 306 885 239 828 q 450 956 372 943 q 557 969 508 964 q 644 978 606 974 q 710 988 683 982 q 753 1007 738 994 l 749 910 q 674 881 726 893 q 518 861 622 869 q 427 844 471 857 q 343 797 383 832 q 268 699 303 763 q 204 531 233 635 l 214 531 m 194 253 q 199 185 194 217 q 217 129 203 153 q 256 92 231 106 q 322 79 281 79 q 405 106 364 79 q 478 183 446 133 q 532 304 511 233 q 553 463 553 375 q 548 513 553 489 q 531 555 543 536 q 497 585 518 574 q 440 596 475 596 q 350 569 394 596 q 271 494 306 542 q 215 385 236 447 q 194 253 194 324 z "},"в":{"ha":633,"x_min":65,"x_max":606,"o":"m 96 396 q 215 628 131 551 q 425 704 300 704 q 513 694 478 704 q 568 667 547 685 q 597 626 589 650 q 606 574 606 603 q 558 446 606 500 q 431 369 510 392 l 428 364 q 530 331 494 361 q 565 249 565 300 q 540 137 565 185 q 471 56 514 89 q 372 7 428 24 q 257 -10 317 -10 q 181 0 217 -10 q 120 33 146 10 q 80 95 94 56 q 65 193 65 135 q 67 232 65 214 q 72 272 68 250 q 81 324 75 294 q 96 396 86 354 m 179 308 q 169 245 172 271 q 165 199 165 219 q 276 79 165 79 q 345 89 313 79 q 403 119 378 99 q 442 168 428 139 q 457 238 457 197 q 427 296 457 274 q 326 318 397 318 q 316 318 322 318 q 295 317 310 318 q 253 314 281 315 q 179 308 225 313 m 321 401 q 372 413 342 403 q 431 440 403 422 q 479 482 460 457 q 499 540 499 507 q 479 597 499 578 q 404 615 460 615 q 276 565 325 615 q 204 422 228 515 l 196 389 l 321 401 z "},"г":{"ha":571,"x_min":38,"x_max":546,"o":"m 38 167 q 67 275 38 233 q 140 344 96 317 q 236 390 185 372 q 332 427 288 408 q 406 470 376 446 q 435 535 435 494 q 410 597 435 579 q 326 615 386 615 q 235 603 274 615 q 167 576 197 592 l 146 658 q 243 693 190 682 q 354 704 296 704 q 447 692 410 704 q 506 658 483 679 q 537 610 528 638 q 546 551 546 582 q 517 444 546 485 q 443 377 488 403 q 347 335 399 351 q 251 299 296 318 q 178 252 207 279 q 149 179 149 225 q 180 101 149 131 q 263 72 211 72 q 364 90 314 72 q 442 128 414 108 l 469 60 q 366 3 426 24 q 256 -17 306 -17 q 145 2 188 -17 q 78 49 103 21 q 46 108 54 76 q 38 167 38 140 z "},"д":{"ha":688,"x_min":71,"x_max":658,"o":"m 424 701 q 498 692 471 701 q 544 669 525 683 l 551 669 q 474 838 544 775 q 283 900 404 900 l 303 989 q 472 958 404 989 q 582 875 540 928 q 641 751 624 822 q 658 600 658 681 q 630 340 658 454 q 551 146 601 225 q 434 25 501 67 q 289 -17 367 -17 q 124 53 176 -17 q 71 244 71 122 q 95 414 71 332 q 165 560 119 496 q 276 663 211 624 q 424 701 342 701 m 415 613 q 329 585 371 613 q 255 507 288 557 q 202 387 222 457 q 182 233 182 317 q 210 119 182 165 q 300 72 238 72 q 415 121 368 72 q 492 242 463 169 q 534 401 521 315 q 547 560 547 486 q 494 600 524 588 q 415 613 464 613 z "},"е":{"ha":643,"x_min":69,"x_max":632,"o":"m 540 68 q 426 5 492 26 q 293 -17 360 -17 q 126 47 182 -17 q 69 225 69 111 q 101 429 69 339 q 185 582 133 519 q 303 678 238 644 q 439 711 369 711 q 526 697 489 711 q 586 660 563 683 q 621 608 610 638 q 632 544 632 578 q 536 390 632 446 q 257 333 440 333 q 222 334 240 333 q 185 336 204 335 q 176 286 179 310 q 174 244 174 263 q 208 120 174 168 q 317 72 243 72 q 428 92 378 72 q 507 135 479 113 l 540 68 m 422 622 q 290 570 346 622 q 204 414 233 518 q 314 417 257 414 q 417 431 371 419 q 494 469 464 443 q 525 540 525 494 q 520 569 525 554 q 504 595 515 583 q 473 615 493 607 q 422 622 453 622 z "},"ж":{"ha":978,"x_min":-19,"x_max":999,"o":"m 311 313 q 256 158 286 219 q 193 60 226 97 q 123 8 160 24 q 49 -7 86 -7 q 15 -4 32 -7 q -19 3 -3 -1 l 8 97 q 42 93 25 93 q 146 152 97 93 q 222 351 194 211 q 233 423 229 392 q 238 481 238 454 q 213 581 238 554 q 149 608 188 608 q 135 608 142 608 q 121 606 128 607 l 108 692 q 144 697 128 694 q 176 699 161 699 q 293 653 254 699 q 332 508 332 608 q 329 455 332 483 q 321 394 326 426 l 457 394 l 521 694 l 625 694 l 560 394 l 686 394 q 738 542 710 483 q 799 635 767 600 q 867 685 832 671 q 939 700 903 700 q 999 692 969 700 l 975 603 q 961 605 968 604 q 947 606 954 606 q 899 594 922 606 q 856 556 876 583 q 818 485 836 529 q 783 374 800 440 q 770 306 775 339 q 765 240 765 272 q 787 127 765 174 q 856 81 808 81 q 892 88 871 81 l 907 3 q 865 -6 885 -4 q 828 -8 846 -8 q 749 10 781 -8 q 699 60 718 29 q 673 133 681 92 q 665 218 665 174 q 667 265 665 242 q 672 313 669 289 l 543 313 l 478 0 l 374 0 l 440 313 l 311 313 z "},"з":{"ha":581,"x_min":-6,"x_max":542,"o":"m 167 311 l 185 397 l 276 397 q 327 408 300 397 q 377 439 354 419 q 415 483 400 458 q 431 535 431 507 q 404 597 431 579 q 307 615 378 615 q 220 604 257 615 q 151 578 183 593 l 129 660 q 227 694 174 683 q 350 704 281 704 q 497 667 453 704 q 542 561 542 631 q 529 494 542 525 q 495 440 517 464 q 447 399 474 415 q 390 372 419 382 l 390 367 q 474 322 450 356 q 499 243 499 288 q 474 135 499 182 q 406 55 449 88 q 306 5 364 22 q 182 -12 249 -12 q 75 1 126 -12 q -6 38 24 15 l 39 121 q 108 90 67 103 q 200 76 150 76 q 335 117 281 76 q 390 229 390 158 q 357 291 390 271 q 243 311 324 311 l 167 311 z "},"и":{"ha":710,"x_min":83,"x_max":690,"o":"m 296 694 l 199 232 q 190 163 190 194 q 206 98 190 124 q 261 72 221 72 q 328 89 294 72 q 394 132 363 106 q 451 190 425 158 q 493 253 476 222 l 586 694 l 690 694 l 603 282 q 592 224 597 258 q 581 153 586 190 q 574 80 576 115 q 571 18 571 44 l 571 0 l 489 0 l 489 132 l 483 132 q 435 78 463 104 q 376 31 408 51 q 306 -3 343 10 q 226 -17 268 -17 q 170 -10 196 -17 q 125 15 144 -3 q 94 60 106 32 q 83 133 83 89 q 97 243 83 182 l 192 694 l 296 694 z "},"й":{"ha":710,"x_min":83,"x_max":690,"o":"m 296 694 l 199 232 q 190 163 190 194 q 206 98 190 124 q 261 72 221 72 q 328 89 294 72 q 394 132 363 106 q 451 190 425 158 q 493 253 476 222 l 586 694 l 690 694 l 603 282 q 592 224 597 258 q 581 153 586 190 q 574 80 576 115 q 571 18 571 44 l 571 0 l 489 0 l 489 132 l 483 132 q 435 78 463 104 q 376 31 408 51 q 306 -3 343 10 q 226 -17 268 -17 q 170 -10 196 -17 q 125 15 144 -3 q 94 60 106 32 q 83 133 83 89 q 97 243 83 182 l 192 694 l 296 694 m 375 975 q 402 885 375 910 q 471 861 429 861 q 552 888 514 861 q 614 974 590 914 l 689 947 q 595 824 661 867 q 451 781 529 781 q 385 789 417 781 q 331 815 354 797 q 293 862 307 833 q 279 929 279 890 l 279 942 l 375 975 z "},"к":{"ha":644,"x_min":49,"x_max":674,"o":"m 293 313 l 218 313 l 153 0 l 49 0 l 196 694 l 300 694 l 233 381 l 290 399 l 549 694 l 674 694 l 419 415 l 356 369 l 411 314 l 567 0 l 450 0 l 293 313 z "},"л":{"ha":681,"x_min":-46,"x_max":661,"o":"m 539 606 l 353 606 q 285 343 317 457 q 216 152 253 229 q 135 35 179 75 q 28 -6 90 -6 q -15 -3 4 -6 q -46 7 -33 0 l -14 96 q 18 92 3 92 q 76 114 49 92 q 132 201 103 136 q 195 385 161 267 q 275 694 229 503 l 661 694 l 514 0 l 410 0 l 539 606 z "},"м":{"ha":863,"x_min":49,"x_max":843,"o":"m 681 413 l 715 544 l 710 544 l 639 438 l 422 165 l 386 165 l 278 438 l 257 544 l 251 544 l 233 414 l 146 0 l 49 0 l 196 694 l 292 694 l 410 383 l 431 303 l 433 303 l 490 386 l 729 694 l 843 694 l 696 0 l 593 0 l 681 413 z "},"н":{"ha":724,"x_min":49,"x_max":704,"o":"m 518 306 l 218 306 l 153 0 l 49 0 l 196 694 l 300 694 l 239 406 l 539 406 l 600 694 l 704 694 l 557 0 l 453 0 l 518 306 z "},"о":{"ha":692,"x_min":69,"x_max":647,"o":"m 69 217 q 98 417 69 326 q 176 574 126 508 q 292 675 226 639 q 433 711 358 711 q 533 692 492 711 q 599 641 574 674 q 636 566 625 608 q 647 478 647 524 q 620 283 647 374 q 545 126 593 193 q 433 22 497 60 q 294 -17 369 -17 q 190 3 232 -17 q 120 57 147 24 q 81 132 93 90 q 69 217 69 174 m 181 242 q 211 116 181 160 q 308 72 242 72 q 395 105 354 72 q 467 193 436 138 q 517 320 499 249 q 536 469 536 392 q 510 581 536 540 q 413 622 485 622 q 325 591 367 622 q 251 507 283 560 q 199 385 218 454 q 181 242 181 317 z "},"п":{"ha":725,"x_min":36,"x_max":661,"o":"m 446 0 l 539 439 q 549 488 544 464 q 553 532 553 513 q 534 597 553 572 q 464 622 515 622 q 393 606 428 622 q 328 563 358 589 q 273 506 297 538 q 232 444 249 475 l 140 0 l 36 0 l 183 694 l 256 694 l 250 575 l 256 575 q 299 622 274 597 q 355 665 324 646 q 425 698 386 685 q 511 711 464 711 q 621 678 581 711 q 661 561 661 644 q 649 461 661 519 l 550 0 l 446 0 z "},"р":{"ha":706,"x_min":-7,"x_max":669,"o":"m 200 694 l 272 694 l 265 575 l 271 575 q 315 624 290 600 q 368 668 339 649 q 432 699 397 688 q 507 711 467 711 q 569 701 540 711 q 621 666 599 690 q 656 601 643 642 q 669 503 669 561 q 636 284 669 381 q 549 121 603 188 q 427 19 494 54 q 293 -17 360 -17 q 208 -8 244 -17 q 158 11 171 1 l 97 -278 l -7 -278 l 200 694 m 468 622 q 397 603 431 622 q 334 555 363 583 q 283 494 306 526 q 247 433 261 461 l 179 104 q 228 79 203 86 q 282 72 253 72 q 385 102 336 72 q 474 188 435 132 q 535 321 513 243 q 558 494 558 399 q 535 586 558 550 q 468 622 513 622 z "},"с":{"ha":583,"x_min":69,"x_max":601,"o":"m 507 60 q 459 28 486 42 q 403 4 432 14 q 347 -11 375 -6 q 294 -17 319 -17 q 183 5 226 -17 q 114 60 139 26 q 79 132 89 93 q 69 206 69 171 q 101 417 69 324 q 187 576 133 511 q 310 676 240 642 q 453 711 379 711 q 540 701 506 711 q 601 679 574 692 l 563 593 q 504 615 539 607 q 429 622 469 622 q 337 590 382 622 q 257 506 292 558 q 201 387 222 454 q 181 249 181 319 q 218 115 181 158 q 319 72 256 72 q 407 91 361 72 q 481 129 453 110 l 507 60 z "},"т":{"ha":1060,"x_min":50,"x_max":1010,"o":"m 424 0 l 507 393 q 524 479 518 442 q 529 544 529 517 q 515 602 529 582 q 468 622 501 622 q 400 604 433 622 q 338 559 367 586 q 284 501 308 532 q 246 446 260 471 l 154 0 l 50 0 l 197 694 l 271 694 l 263 575 l 268 575 q 316 622 290 597 q 373 665 342 646 q 441 698 404 685 q 522 711 478 711 q 606 672 585 711 q 628 564 628 633 q 676 617 649 590 q 737 664 704 643 q 806 698 769 685 q 878 711 842 711 q 976 681 942 711 q 1010 571 1010 651 q 989 417 1010 513 l 901 0 l 797 0 l 885 418 q 898 490 893 458 q 903 546 903 522 q 888 603 903 583 q 836 622 872 622 q 774 603 807 622 q 711 557 742 585 q 656 497 681 529 q 618 438 632 465 l 528 0 l 424 0 z "},"у":{"ha":610,"x_min":-28,"x_max":678,"o":"m 269 244 l 276 111 l 283 111 l 336 246 l 567 694 l 678 694 l 350 75 q 278 -58 314 7 q 206 -173 243 -122 q 128 -254 168 -224 q 44 -285 88 -285 q 3 -282 21 -285 q -28 -272 -14 -279 l 6 -176 q 39 -182 21 -182 q 119 -140 79 -182 q 210 0 160 -99 l 90 694 l 201 694 l 269 244 z "},"ф":{"ha":946,"x_min":61,"x_max":908,"o":"m 358 -6 q 324 -14 339 -11 q 289 -17 308 -17 q 118 45 175 -17 q 61 206 61 107 q 92 417 61 324 q 175 574 122 510 q 297 672 228 639 q 446 706 367 706 q 508 700 482 706 l 565 972 l 665 972 l 607 699 q 651 704 632 703 q 688 706 669 706 q 852 645 796 706 q 908 488 908 585 q 874 262 908 357 q 786 105 840 167 q 664 13 732 43 q 528 -17 596 -17 q 492 -15 515 -17 q 457 -7 469 -12 l 400 -278 l 300 -278 l 358 -6 m 647 617 q 618 615 631 617 q 586 608 606 613 l 474 78 q 502 74 488 75 q 532 72 517 72 q 624 97 576 72 q 709 172 671 122 q 772 298 747 222 q 797 476 797 374 q 647 617 797 617 m 310 72 q 342 75 325 72 q 378 81 358 78 l 490 610 q 461 615 475 613 q 428 617 447 617 q 341 591 386 617 q 258 515 296 565 q 197 393 221 465 q 172 228 172 321 q 207 115 172 158 q 310 72 242 72 z "},"х":{"ha":672,"x_min":-31,"x_max":710,"o":"m 282 356 l 133 694 l 251 694 l 333 503 l 358 424 l 415 503 l 583 694 l 710 694 l 415 361 l 581 0 l 463 0 l 368 211 l 340 294 l 282 211 l 96 0 l -31 0 l 282 356 z "},"ц":{"ha":736,"x_min":83,"x_max":690,"o":"m 579 0 l 575 0 q 503 24 526 0 q 479 92 479 47 q 483 132 479 111 l 478 132 q 432 79 458 106 q 374 31 406 53 q 305 -3 342 10 q 226 -17 268 -17 q 170 -10 196 -17 q 125 15 144 -3 q 94 60 106 32 q 83 133 83 89 q 97 243 83 182 l 192 694 l 296 694 l 199 232 q 190 163 190 194 q 206 98 190 124 q 261 72 221 72 q 328 89 294 72 q 394 132 363 106 q 451 190 425 158 q 493 253 476 222 l 586 694 l 690 694 q 643 474 663 564 q 611 325 624 385 q 591 231 599 265 q 580 177 583 196 q 576 150 576 158 q 575 133 575 142 q 613 89 575 89 l 689 89 l 617 -176 l 533 -176 l 579 0 z "},"ч":{"ha":653,"x_min":92,"x_max":633,"o":"m 257 694 l 217 506 q 207 422 207 457 q 226 358 207 382 q 296 333 244 333 q 397 351 357 333 q 461 385 438 368 l 528 694 l 633 694 l 486 0 l 381 0 l 442 292 q 374 261 418 278 q 263 244 329 244 q 194 252 225 244 q 142 277 164 260 q 108 324 121 294 q 96 396 96 353 q 151 694 92 446 l 257 694 z "},"ш":{"ha":1033,"x_min":82,"x_max":1014,"o":"m 654 694 l 572 301 q 556 218 563 256 q 550 153 550 181 q 564 93 550 114 q 610 72 578 72 q 663 90 633 72 q 722 133 693 107 q 777 190 751 160 q 817 249 803 221 l 910 694 l 1014 694 l 911 210 q 894 103 900 157 q 885 0 888 49 l 806 0 l 801 118 l 796 118 q 692 22 750 60 q 556 -17 635 -17 q 477 22 504 -17 q 450 125 450 60 l 450 129 q 403 76 429 101 q 347 29 378 50 q 282 -4 317 8 q 210 -17 247 -17 q 115 13 147 -17 q 82 122 82 42 q 103 278 82 182 l 190 694 l 294 694 l 207 276 q 190 153 190 201 q 244 72 190 72 q 310 90 278 72 q 372 136 343 108 q 422 197 400 164 q 458 257 444 229 l 550 694 l 654 694 z "},"щ":{"ha":1061,"x_min":82,"x_max":1014,"o":"m 804 132 q 696 23 757 63 q 556 -17 635 -17 q 477 22 504 -17 q 450 125 450 60 l 450 129 q 403 76 429 101 q 347 29 378 50 q 282 -4 317 8 q 210 -17 247 -17 q 115 13 147 -17 q 82 122 82 42 q 103 278 82 182 l 190 694 l 294 694 l 207 276 q 195 210 200 240 q 190 156 190 179 q 203 94 190 115 q 244 72 217 72 q 310 90 278 72 q 372 136 343 108 q 422 197 400 164 q 458 257 444 229 l 550 694 l 654 694 l 572 301 q 556 218 563 256 q 550 153 550 181 q 564 93 550 114 q 610 72 578 72 q 663 90 633 72 q 722 133 693 107 q 777 190 751 160 q 817 249 803 221 l 910 694 l 1014 694 q 972 497 989 578 q 944 364 956 417 q 928 283 933 311 q 919 240 922 254 q 914 220 915 225 q 913 213 913 215 q 906 174 910 196 q 901 133 901 153 q 939 89 901 89 l 1014 89 l 943 -176 l 858 -176 l 906 0 l 901 0 q 828 24 851 0 q 806 90 806 47 q 810 132 806 108 l 804 132 l 804 132 z "},"ъ":{"ha":660,"x_min":72,"x_max":614,"o":"m 232 188 q 226 144 226 165 q 299 81 226 81 q 379 94 342 81 q 444 133 417 108 q 488 191 472 158 q 503 261 503 224 q 481 327 503 301 q 397 353 460 353 q 365 351 383 353 q 328 345 347 349 q 292 336 310 342 q 261 322 274 331 l 232 188 m 281 414 q 353 432 314 425 q 432 439 392 439 q 563 402 513 439 q 614 286 614 365 q 588 167 614 221 q 514 74 561 113 q 403 13 467 35 q 268 -8 340 -8 q 154 28 189 -8 q 119 121 119 64 q 121 149 119 135 q 126 179 122 164 l 231 599 l 72 599 l 92 694 l 356 694 l 281 414 z "},"ы":{"ha":888,"x_min":83,"x_max":868,"o":"m 193 163 q 191 150 192 156 q 190 139 190 144 q 205 97 190 113 q 253 81 219 81 q 331 94 294 81 q 396 131 368 107 q 440 189 424 156 q 456 263 456 222 q 432 329 456 306 q 339 353 408 353 q 229 331 282 353 l 193 163 m 249 421 q 311 433 272 428 q 382 439 350 439 q 525 398 483 439 q 567 290 567 357 q 537 163 567 218 q 459 69 507 107 q 351 11 411 31 q 231 -8 292 -8 q 119 24 154 -8 q 83 110 83 56 q 89 158 83 136 l 210 694 l 314 694 l 249 421 m 764 694 l 868 694 l 721 0 l 617 0 l 764 694 z "},"ь":{"ha":622,"x_min":83,"x_max":576,"o":"m 194 183 q 190 150 190 164 q 210 99 190 118 q 275 81 231 81 q 348 94 314 81 q 408 131 382 107 q 450 188 435 154 q 465 263 465 221 q 440 332 465 311 q 347 353 414 353 q 283 345 311 353 q 231 329 256 338 l 194 183 m 250 421 q 253 422 253 421 q 257 422 254 422 q 315 434 285 429 q 383 439 346 439 q 482 426 444 439 q 540 393 519 414 q 569 344 561 372 q 576 288 576 317 q 549 159 576 214 q 477 67 522 104 q 374 10 432 29 q 253 -8 315 -8 q 172 3 204 -8 q 120 33 140 14 q 92 76 100 51 q 83 125 83 100 q 88 165 83 144 l 211 694 l 315 694 l 250 421 z "},"э":{"ha":611,"x_min":-12,"x_max":565,"o":"m 172 393 l 449 393 q 453 422 451 407 q 454 453 454 436 q 419 581 454 540 q 321 622 385 622 q 215 608 257 622 q 144 576 172 593 l 117 649 q 220 695 164 679 q 346 711 276 711 q 444 694 403 711 q 512 648 485 678 q 552 578 539 618 q 565 490 565 538 q 533 251 565 349 q 449 95 501 154 q 328 10 396 36 q 192 -17 261 -17 q -12 26 51 -17 l 33 111 q 103 83 60 93 q 190 72 147 72 q 351 132 286 72 q 442 308 415 192 l 154 308 l 172 393 z "},"ю":{"ha":944,"x_min":49,"x_max":900,"o":"m 368 401 q 419 529 388 472 q 492 626 450 586 q 583 689 533 667 q 692 711 633 711 q 791 692 751 711 q 855 641 831 674 q 890 566 879 608 q 900 478 900 524 q 873 283 900 374 q 799 126 846 193 q 688 22 751 60 q 554 -17 625 -17 q 451 3 492 -17 q 388 57 411 24 q 355 132 364 90 q 346 217 346 174 q 348 265 346 242 q 353 313 350 289 l 218 313 l 153 0 l 49 0 l 196 694 l 300 694 l 239 401 l 368 401 m 450 242 q 475 116 450 160 q 567 72 500 72 q 650 105 610 72 q 721 193 690 138 q 770 320 751 249 q 789 469 789 392 q 766 581 789 540 q 672 622 743 622 q 586 591 626 622 q 515 507 546 560 q 467 385 485 454 q 450 242 450 317 z "},"я":{"ha":647,"x_min":-22,"x_max":628,"o":"m 443 286 l 336 269 l 113 0 l -22 0 l 181 238 l 249 289 q 156 335 193 299 q 118 439 118 372 q 144 553 118 503 q 215 639 171 604 q 319 692 260 674 q 443 711 378 711 q 499 708 471 711 q 551 699 526 704 q 596 688 576 694 q 628 678 615 682 l 486 0 l 382 0 l 443 286 m 513 604 q 482 617 506 611 q 418 622 458 622 q 282 576 335 622 q 229 451 229 529 q 374 350 229 350 q 378 350 375 350 q 390 350 382 350 q 414 351 399 350 q 457 353 429 351 l 513 604 z "},"ё":{"ha":643,"x_min":69,"x_max":661,"o":"m 540 68 q 426 5 492 26 q 293 -17 360 -17 q 126 47 182 -17 q 69 225 69 111 q 101 429 69 339 q 185 582 133 519 q 303 678 238 644 q 439 711 369 711 q 526 697 489 711 q 586 660 563 683 q 621 608 610 638 q 632 544 632 578 q 536 390 632 446 q 257 333 440 333 q 222 334 240 333 q 185 336 204 335 q 176 286 179 310 q 174 244 174 263 q 208 120 174 168 q 317 72 243 72 q 428 92 378 72 q 507 135 479 113 l 540 68 m 422 622 q 290 570 346 622 q 204 414 233 518 q 314 417 257 414 q 417 431 371 419 q 494 469 464 443 q 525 540 525 494 q 520 569 525 554 q 504 595 515 583 q 473 615 493 607 q 422 622 453 622 m 278 881 q 295 931 278 911 q 342 951 313 951 q 389 931 371 951 q 407 881 407 911 q 389 833 407 853 q 342 813 371 813 q 295 833 313 813 q 278 881 278 853 m 532 882 q 549 931 532 911 q 596 951 567 951 q 644 931 626 951 q 661 882 661 911 q 644 833 661 853 q 596 813 626 813 q 549 833 567 813 q 532 882 532 853 z "},"ђ":{"ha":683,"x_min":53,"x_max":660,"o":"m 124 833 l 228 833 l 258 972 l 363 972 l 332 833 l 544 833 l 528 750 l 314 750 l 264 517 l 269 517 q 316 559 290 538 q 373 599 342 581 q 442 628 404 617 q 524 639 479 639 q 626 605 593 639 q 660 492 660 571 q 653 435 660 476 q 635 328 647 393 q 606 181 624 264 q 568 0 589 97 q 486 -221 544 -147 q 328 -294 428 -294 q 308 -294 318 -294 q 289 -292 299 -293 l 310 -194 q 372 -183 347 -194 q 413 -148 396 -172 q 441 -87 429 -124 q 464 0 453 -50 l 533 325 q 547 398 542 365 q 551 457 551 431 q 534 526 551 501 q 472 550 517 550 q 403 533 439 550 q 333 490 367 517 q 273 431 300 464 q 232 364 246 397 l 157 0 l 53 0 l 211 750 l 106 750 l 124 833 z "},"ѓ":{"ha":571,"x_min":38,"x_max":569,"o":"m 38 167 q 67 275 38 233 q 140 344 96 317 q 236 390 185 372 q 332 427 288 408 q 406 470 376 446 q 435 535 435 494 q 410 597 435 579 q 326 615 386 615 q 235 603 274 615 q 167 576 197 592 l 146 658 q 243 693 190 682 q 354 704 296 704 q 447 692 410 704 q 506 658 483 679 q 537 610 528 638 q 546 551 546 582 q 517 444 546 485 q 443 377 488 403 q 347 335 399 351 q 251 299 296 318 q 178 252 207 279 q 149 179 149 225 q 180 101 149 131 q 263 72 211 72 q 364 90 314 72 q 442 128 414 108 l 469 60 q 366 3 426 24 q 256 -17 306 -17 q 145 2 188 -17 q 78 49 103 21 q 46 108 54 76 q 38 167 38 140 m 453 1000 l 569 1000 l 563 971 l 392 793 l 331 793 l 453 1000 z "},"є":{"ha":603,"x_min":69,"x_max":621,"o":"m 542 60 q 431 1 492 19 q 308 -17 369 -17 q 207 2 251 -17 q 132 54 163 21 q 85 132 101 88 q 69 229 69 176 q 104 442 69 351 q 195 593 139 533 q 323 682 251 653 q 469 711 394 711 q 565 701 532 711 q 621 679 597 690 l 582 599 q 527 617 553 611 q 461 622 501 622 q 301 563 371 622 q 200 401 232 503 l 514 401 l 494 313 l 183 313 q 181 285 181 299 q 181 258 181 272 q 188 187 181 221 q 215 128 196 153 q 268 88 235 103 q 354 72 301 72 q 446 91 403 72 q 517 129 489 110 l 542 60 z "},"ѕ":{"ha":553,"x_min":4,"x_max":544,"o":"m 360 196 q 342 257 360 232 q 296 302 324 282 q 236 342 268 322 q 176 385 204 361 q 131 442 149 410 q 113 524 113 475 q 131 597 113 563 q 183 656 150 631 q 260 697 215 682 q 358 711 306 711 q 472 701 432 711 q 544 674 513 692 l 510 590 q 358 622 454 622 q 262 598 300 622 q 224 524 224 574 q 242 473 224 494 q 288 432 260 451 q 347 392 315 413 q 407 347 379 372 q 453 286 435 321 q 471 204 471 251 q 398 40 471 96 q 203 -17 325 -17 q 88 -4 140 -17 q 4 28 36 8 l 43 115 q 116 85 71 97 q 210 72 161 72 q 319 102 278 72 q 360 196 360 132 z "},"і":{"ha":360,"x_min":75,"x_max":396,"o":"m 222 694 l 326 694 l 179 0 l 75 0 l 222 694 m 244 907 q 266 961 244 939 q 319 983 288 983 q 374 961 351 983 q 396 907 396 939 q 374 853 396 875 q 319 832 351 832 q 266 853 288 832 q 244 907 244 875 z "},"ї":{"ha":363,"x_min":56,"x_max":444,"o":"m 154 907 q 171 956 154 936 q 217 975 188 975 q 263 956 246 975 q 279 907 279 936 q 263 858 279 878 q 217 839 246 839 q 171 858 188 839 q 154 907 154 878 m 319 907 q 336 956 319 936 q 382 975 353 975 q 428 956 411 975 q 444 907 444 936 q 428 858 444 878 q 382 839 411 839 q 336 858 353 839 q 319 907 319 878 m 203 694 l 307 694 l 160 0 l 56 0 l 203 694 z "},"ј":{"ha":346,"x_min":-133,"x_max":379,"o":"m 206 694 l 310 694 l 154 -37 q 68 -228 126 -167 q -90 -289 10 -289 q -112 -288 -101 -289 q -133 -286 -122 -287 l -112 -196 q -44 -184 -71 -196 q 2 -147 -17 -172 q 34 -85 21 -122 q 58 4 47 -47 l 206 694 m 228 907 q 249 961 228 939 q 303 983 271 983 q 357 961 335 983 q 379 907 379 939 q 357 853 379 875 q 303 832 335 832 q 249 853 271 832 q 228 907 228 875 z "},"љ":{"ha":965,"x_min":-46,"x_max":919,"o":"m 575 329 q 552 237 560 269 q 540 188 544 204 q 535 164 536 171 q 535 150 535 157 q 555 99 535 118 q 619 81 575 81 q 692 94 658 81 q 752 131 726 107 q 793 190 778 156 q 808 265 808 224 q 783 333 808 314 q 692 353 758 353 q 628 345 656 353 q 575 329 600 338 m 531 606 l 353 606 q 285 343 317 457 q 216 152 253 229 q 135 35 179 75 q 28 -6 90 -6 q -15 -3 4 -6 q -46 7 -33 0 l -14 96 q 18 92 3 92 q 76 114 49 92 q 132 201 103 136 q 195 385 161 267 q 275 694 229 503 l 654 694 l 594 421 q 655 433 622 428 q 728 439 688 439 q 826 426 789 439 q 885 393 864 414 q 913 344 906 372 q 919 288 919 317 q 892 159 919 214 q 820 67 865 104 q 717 10 775 29 q 596 -8 658 -8 q 515 3 547 -8 q 463 33 483 14 q 435 76 443 51 q 426 125 426 100 q 431 165 426 146 l 531 606 z "},"њ":{"ha":1010,"x_min":49,"x_max":964,"o":"m 633 419 q 697 433 660 426 q 771 439 733 439 q 870 426 832 439 q 929 393 908 414 q 957 344 950 372 q 964 288 964 317 q 937 159 964 214 q 865 67 910 104 q 761 10 819 29 q 640 -8 703 -8 q 560 3 592 -8 q 508 33 528 14 q 479 76 488 51 q 471 125 471 100 q 475 167 471 146 l 507 313 l 219 313 l 153 0 l 49 0 l 196 694 l 300 694 l 238 401 l 525 401 l 588 694 l 692 694 l 633 419 m 582 183 q 578 150 578 164 q 598 99 578 118 q 663 81 618 81 q 735 94 701 81 q 796 131 769 107 q 838 190 822 156 q 853 265 853 224 q 827 333 853 314 q 735 353 801 353 q 671 345 699 353 q 618 329 643 338 l 582 183 z "},"ћ":{"ha":681,"x_min":53,"x_max":657,"o":"m 124 833 l 228 833 l 258 972 l 363 972 l 332 833 l 544 833 l 528 750 l 315 750 l 268 529 l 274 529 q 377 606 318 572 q 524 639 436 639 q 622 607 586 639 q 657 488 657 575 q 640 347 657 431 l 567 0 l 463 0 l 532 326 q 545 400 540 367 q 550 460 550 433 q 533 527 550 504 q 472 550 515 550 q 395 534 432 550 q 327 492 358 518 q 272 435 296 467 q 233 375 247 404 l 157 0 l 53 0 l 211 750 l 106 750 l 124 833 z "},"ќ":{"ha":644,"x_min":49,"x_max":674,"o":"m 293 313 l 218 313 l 153 0 l 49 0 l 196 694 l 300 694 l 233 381 l 290 399 l 549 694 l 674 694 l 419 415 l 356 369 l 411 314 l 567 0 l 450 0 l 293 313 m 499 1000 l 615 1000 l 608 971 l 438 793 l 376 793 l 499 1000 z "},"ў":{"ha":610,"x_min":-28,"x_max":678,"o":"m 269 244 l 276 111 l 283 111 l 336 246 l 567 694 l 678 694 l 350 75 q 278 -58 314 7 q 206 -173 243 -122 q 128 -254 168 -224 q 44 -285 88 -285 q 3 -282 21 -285 q -28 -272 -14 -279 l 6 -176 q 39 -182 21 -182 q 119 -140 79 -182 q 210 0 160 -99 l 90 694 l 201 694 l 269 244 m 340 975 q 367 885 340 910 q 436 861 394 861 q 517 888 479 861 q 579 974 556 914 l 654 947 q 560 824 626 867 q 417 781 494 781 q 351 789 382 781 q 296 815 319 797 q 258 862 272 833 q 244 929 244 890 l 244 942 l 340 975 z "},"џ":{"ha":710,"x_min":83,"x_max":690,"o":"m 365 -54 l 332 -278 l 222 -278 l 279 -54 l 365 -54 m 296 694 l 199 232 q 190 163 190 194 q 206 98 190 124 q 261 72 221 72 q 328 89 294 72 q 394 132 363 106 q 451 190 425 158 q 493 253 476 222 l 586 694 l 690 694 l 603 282 q 592 224 597 258 q 581 153 586 190 q 574 80 576 115 q 571 18 571 44 l 571 0 l 489 0 l 489 132 l 483 132 q 435 78 463 104 q 376 31 408 51 q 306 -3 343 10 q 226 -17 268 -17 q 170 -10 196 -17 q 125 15 144 -3 q 94 60 106 32 q 83 133 83 89 q 97 243 83 182 l 192 694 l 296 694 z "},"Ѣ":{"ha":821,"x_min":110,"x_max":796,"o":"m 131 861 l 325 861 l 356 1001 l 467 1001 l 436 861 l 711 861 l 690 764 l 417 764 l 381 593 q 402 597 388 594 q 434 600 417 599 q 471 603 451 601 q 506 604 490 604 q 620 590 567 604 q 713 544 674 575 q 774 467 751 514 q 796 354 796 419 q 764 195 796 264 q 675 81 732 126 q 538 12 618 35 q 363 -11 458 -11 q 316 -10 343 -11 q 258 -8 289 -10 q 198 -1 228 -6 q 144 10 168 3 l 304 764 l 110 764 l 131 861 m 389 89 q 497 103 444 89 q 590 149 550 118 q 655 228 631 181 q 679 343 679 276 q 622 467 679 431 q 475 504 565 504 q 447 503 464 504 q 412 501 429 503 q 380 497 394 499 q 358 493 365 494 l 275 97 q 325 91 293 93 q 389 89 357 89 z "},"ѣ":{"ha":935,"x_min":50,"x_max":889,"o":"m 507 183 q 503 150 503 164 q 523 99 503 118 q 588 81 543 81 q 660 94 626 81 q 721 131 694 107 q 763 190 747 156 q 778 265 778 224 q 752 333 778 314 q 660 353 726 353 q 596 345 624 353 q 543 329 568 338 l 507 183 m 464 439 q 477 504 472 475 q 482 554 482 533 q 426 622 482 622 q 378 606 403 622 q 328 563 353 589 q 283 506 304 538 q 246 444 263 475 l 154 0 l 50 0 l 197 694 l 269 694 l 263 586 l 268 586 q 301 628 282 607 q 346 669 321 650 q 403 699 371 688 q 472 711 435 711 q 559 683 529 711 q 589 585 589 654 q 572 461 589 533 l 563 421 q 623 433 590 428 q 696 439 656 439 q 794 426 757 439 q 853 393 832 414 q 881 344 874 372 q 889 288 889 317 q 862 159 889 214 q 789 67 835 104 q 685 10 743 29 q 564 -8 626 -8 q 483 3 515 -8 q 431 33 451 14 q 403 76 411 51 q 394 125 394 100 q 399 165 394 146 l 464 439 z "},"Ѳ":{"ha":904,"x_min":100,"x_max":899,"o":"m 100 356 q 134 599 100 483 q 231 801 168 714 q 385 938 294 888 q 586 989 475 989 q 710 969 653 989 q 810 905 768 949 q 875 792 851 861 q 899 622 899 722 q 865 376 899 492 q 770 172 832 260 q 623 34 708 85 q 433 -17 538 -17 q 185 78 269 -17 q 100 356 100 174 m 217 357 q 274 155 217 226 q 436 83 331 83 q 550 110 497 83 q 644 185 603 138 q 717 299 686 233 q 764 443 747 365 l 221 443 q 217 357 217 399 m 567 889 q 453 863 506 889 q 358 790 400 836 q 285 681 317 744 q 238 543 254 618 l 778 543 q 782 619 782 581 q 763 753 782 700 q 713 835 743 806 q 644 877 682 865 q 567 889 606 889 z "},"ѳ":{"ha":692,"x_min":69,"x_max":647,"o":"m 69 217 q 98 417 69 326 q 176 574 126 508 q 292 675 226 639 q 433 711 358 711 q 533 692 492 711 q 599 641 574 674 q 636 566 625 608 q 647 478 647 524 q 620 283 647 374 q 545 126 593 193 q 433 22 497 60 q 294 -17 369 -17 q 190 3 232 -17 q 120 57 147 24 q 81 132 93 90 q 69 217 69 174 m 413 622 q 346 604 378 622 q 285 555 314 586 q 235 481 257 524 q 200 388 214 438 l 531 388 q 535 428 533 407 q 536 469 536 449 q 510 581 536 540 q 413 622 485 622 m 181 242 q 211 116 181 160 q 308 72 242 72 q 372 90 342 72 q 429 138 403 107 q 477 212 456 169 q 513 304 499 254 l 183 304 q 181 273 182 289 q 181 242 181 257 z "},"Ѵ":{"ha":788,"x_min":144,"x_max":1014,"o":"m 346 -15 l 294 -15 l 144 972 l 258 972 l 351 306 l 351 158 l 354 158 l 408 307 l 585 663 q 672 825 633 763 q 744 922 710 888 q 815 969 779 957 q 894 982 850 982 q 966 973 938 982 q 1014 951 994 964 l 961 854 q 882 879 922 879 q 808 843 843 879 q 729 722 774 807 l 346 -15 z "},"ѵ":{"ha":663,"x_min":83,"x_max":769,"o":"m 263 -15 l 218 -15 l 83 694 l 194 694 l 267 288 l 275 156 l 278 156 l 338 290 q 399 393 375 353 q 438 460 422 433 q 463 504 453 488 q 482 535 474 521 q 581 660 533 615 q 693 704 629 704 q 735 701 717 704 q 769 692 754 699 l 735 599 q 715 604 725 601 q 694 607 706 607 q 642 585 671 607 q 571 494 613 563 l 263 -15 z "},"Ҋ":{"ha":911,"x_min":56,"x_max":936,"o":"m 757 650 l 790 763 l 786 763 l 704 646 l 126 0 l 56 0 l 263 972 l 374 972 l 233 311 l 199 206 l 204 206 l 286 319 l 865 972 l 936 972 l 751 97 l 888 97 l 881 67 l 708 -179 l 638 -179 l 736 0 l 619 0 l 757 650 m 525 1208 q 551 1129 525 1157 q 622 1101 576 1101 q 718 1130 681 1101 q 771 1207 756 1158 l 872 1183 q 782 1065 847 1108 q 617 1021 717 1021 q 478 1067 522 1021 q 431 1181 433 1114 l 525 1208 z "},"ҋ":{"ha":743,"x_min":83,"x_max":714,"o":"m 296 694 l 199 232 q 190 163 190 194 q 206 98 190 124 q 261 72 221 72 q 328 89 294 72 q 394 132 363 106 q 451 190 425 158 q 493 253 476 222 l 586 694 l 690 694 l 603 282 q 588 198 596 250 q 575 97 579 146 l 714 97 l 707 67 l 535 -179 l 464 -179 l 563 0 l 489 0 l 489 132 l 483 132 q 435 78 463 104 q 376 31 408 51 q 306 -3 343 10 q 226 -17 268 -17 q 170 -10 196 -17 q 125 15 144 -3 q 94 60 106 32 q 83 133 83 89 q 97 243 83 182 l 192 694 l 296 694 m 364 975 q 391 885 364 910 q 460 861 418 861 q 541 888 503 861 q 603 974 579 914 l 678 947 q 584 824 650 867 q 440 781 518 781 q 374 789 406 781 q 319 815 343 797 q 282 862 296 833 q 268 929 268 890 l 268 942 l 364 975 z "},"Ҍ":{"ha":821,"x_min":110,"x_max":796,"o":"m 131 861 l 325 861 l 356 1001 l 467 1001 l 436 861 l 711 861 l 690 764 l 417 764 l 381 593 q 402 597 388 594 q 434 600 417 599 q 471 603 451 601 q 506 604 490 604 q 620 590 567 604 q 713 544 674 575 q 774 467 751 514 q 796 354 796 419 q 764 195 796 264 q 675 81 732 126 q 538 12 618 35 q 363 -11 458 -11 q 316 -10 343 -11 q 258 -8 289 -10 q 198 -1 228 -6 q 144 10 168 3 l 304 764 l 110 764 l 131 861 m 389 89 q 497 103 444 89 q 590 149 550 118 q 655 228 631 181 q 679 343 679 276 q 622 467 679 431 q 475 504 565 504 q 447 503 464 504 q 412 501 429 503 q 380 497 394 499 q 358 493 365 494 l 275 97 q 325 91 293 93 q 389 89 357 89 z "}}}
